NotoSerifBengali-Black.ufo
<glyph name="exclam" format="2">
  <advance width="407"/>
  <unicode hex="0021"/>
  <outline>
    <contour>
      <point x="187" y="229" type="line"/>
      <point x="243" y="229" type="line"/>
      <point x="303" y="714" type="line"/>
      <point x="127" y="714" type="line"/>
    </contour>
    <contour>
      <point x="216" y="-8" type="curve" smooth="yes"/>
      <point x="260" y="-8"/>
      <point x="299" y="12"/>
      <point x="299" y="72" type="curve" smooth="yes"/>
      <point x="299" y="134"/>
      <point x="260" y="153"/>
      <point x="216" y="153" type="curve" smooth="yes"/>
      <point x="169" y="153"/>
      <point x="133" y="134"/>
      <point x="133" y="72" type="curve" smooth="yes"/>
      <point x="133" y="12"/>
      <point x="169" y="-8"/>
    </contour>
  </outline>
</glyph>
<glyph name="numbersign" format="2">
  <advance width="559"/>
  <unicode hex="0023"/>
  <outline>
    <contour>
      <point x="84" y="0" type="line"/>
      <point x="156" y="0" type="line"/>
      <point x="194" y="200" type="line"/>
      <point x="302" y="200" type="line"/>
      <point x="265" y="0" type="line"/>
      <point x="337" y="0" type="line"/>
      <point x="374" y="200" type="line"/>
      <point x="499" y="200" type="line"/>
      <point x="499" y="269" type="line"/>
      <point x="388" y="269" type="line"/>
      <point x="422" y="450" type="line"/>
      <point x="531" y="450" type="line"/>
      <point x="531" y="520" type="line"/>
      <point x="435" y="520" type="line"/>
      <point x="472" y="714" type="line"/>
      <point x="400" y="714" type="line"/>
      <point x="363" y="520" type="line"/>
      <point x="255" y="520" type="line"/>
      <point x="291" y="714" type="line"/>
      <point x="218" y="714" type="line"/>
      <point x="184" y="520" type="line"/>
      <point x="60" y="520" type="line"/>
      <point x="60" y="450" type="line"/>
      <point x="170" y="450" type="line"/>
      <point x="135" y="269" type="line"/>
      <point x="28" y="269" type="line"/>
      <point x="28" y="200" type="line"/>
      <point x="123" y="200" type="line"/>
    </contour>
    <contour>
      <point x="207" y="269" type="line"/>
      <point x="242" y="450" type="line"/>
      <point x="351" y="450" type="line"/>
      <point x="317" y="269" type="line"/>
    </contour>
  </outline>
</glyph>
<glyph name="percent" format="2">
  <advance width="906"/>
  <unicode hex="0025"/>
  <outline>
    <contour>
      <point x="240" y="0" type="line"/>
      <point x="319" y="0" type="line"/>
      <point x="663" y="714" type="line"/>
      <point x="585" y="714" type="line"/>
    </contour>
    <contour>
      <point x="214" y="280" type="curve" smooth="yes"/>
      <point x="336" y="280"/>
      <point x="396" y="369"/>
      <point x="396" y="503" type="curve"/>
      <point x="396" y="637"/>
      <point x="336" y="724"/>
      <point x="215" y="724" type="curve" smooth="yes"/>
      <point x="87" y="724"/>
      <point x="34" y="637"/>
      <point x="34" y="503" type="curve" smooth="yes"/>
      <point x="34" y="369"/>
      <point x="87" y="280"/>
    </contour>
    <contour>
      <point x="214" y="331" type="curve" smooth="yes"/>
      <point x="166" y="331"/>
      <point x="147" y="394"/>
      <point x="147" y="503" type="curve"/>
      <point x="147" y="610"/>
      <point x="166" y="672"/>
      <point x="215" y="672" type="curve" smooth="yes"/>
      <point x="264" y="672"/>
      <point x="280" y="610"/>
      <point x="280" y="503" type="curve" smooth="yes"/>
      <point x="280" y="394"/>
      <point x="264" y="331"/>
    </contour>
    <contour>
      <point x="692" y="-10" type="curve" smooth="yes"/>
      <point x="814" y="-10"/>
      <point x="874" y="79"/>
      <point x="874" y="213" type="curve" smooth="yes"/>
      <point x="874" y="347"/>
      <point x="814" y="434"/>
      <point x="693" y="434" type="curve" smooth="yes"/>
      <point x="565" y="434"/>
      <point x="512" y="347"/>
      <point x="512" y="213" type="curve" smooth="yes"/>
      <point x="512" y="79"/>
      <point x="565" y="-10"/>
    </contour>
    <contour>
      <point x="692" y="41" type="curve" smooth="yes"/>
      <point x="644" y="41"/>
      <point x="625" y="104"/>
      <point x="625" y="213" type="curve" smooth="yes"/>
      <point x="625" y="320"/>
      <point x="644" y="382"/>
      <point x="693" y="382" type="curve" smooth="yes"/>
      <point x="742" y="382"/>
      <point x="758" y="320"/>
      <point x="758" y="213" type="curve" smooth="yes"/>
      <point x="758" y="104"/>
      <point x="742" y="41"/>
    </contour>
  </outline>
</glyph>
<glyph name="parenleft" format="2">
  <advance width="455"/>
  <unicode hex="0028"/>
  <outline>
    <contour>
      <point x="357" y="-139" type="curve"/>
      <point x="357" y="-75" type="line"/>
      <point x="233" y="7"/>
      <point x="207" y="159"/>
      <point x="207" y="318" type="curve" smooth="yes"/>
      <point x="207" y="476"/>
      <point x="233" y="626"/>
      <point x="357" y="709" type="curve"/>
      <point x="357" y="772" type="line"/>
      <point x="132" y="683"/>
      <point x="44" y="532"/>
      <point x="44" y="318" type="curve" smooth="yes"/>
      <point x="44" y="103"/>
      <point x="132" y="-50"/>
    </contour>
  </outline>
</glyph>
<glyph name="parenright" format="2">
  <advance width="484"/>
  <unicode hex="0029"/>
  <outline>
    <contour>
      <point x="127" y="-139" type="line"/>
      <point x="352" y="-50"/>
      <point x="440" y="103"/>
      <point x="440" y="318" type="curve" smooth="yes"/>
      <point x="440" y="532"/>
      <point x="352" y="683"/>
      <point x="127" y="772" type="curve"/>
      <point x="127" y="709" type="line"/>
      <point x="250" y="626"/>
      <point x="277" y="476"/>
      <point x="277" y="318" type="curve" smooth="yes"/>
      <point x="277" y="159"/>
      <point x="250" y="7"/>
      <point x="127" y="-75" type="curve"/>
    </contour>
  </outline>
</glyph>
<glyph name="asterisk" format="2">
  <advance width="503"/>
  <unicode hex="002A"/>
  <outline>
    <contour>
      <point x="196" y="367" type="line"/>
      <point x="308" y="367" type="line"/>
      <point x="272" y="529" type="line"/>
      <point x="422" y="424" type="line"/>
      <point x="468" y="524" type="line"/>
      <point x="313" y="563" type="line"/>
      <point x="468" y="603" type="line"/>
      <point x="422" y="703" type="line"/>
      <point x="272" y="599" type="line"/>
      <point x="309" y="760" type="line"/>
      <point x="196" y="760" type="line"/>
      <point x="229" y="597" type="line"/>
      <point x="80" y="705" type="line"/>
      <point x="35" y="604" type="line"/>
      <point x="190" y="563" type="line"/>
      <point x="35" y="523" type="line"/>
      <point x="80" y="423" type="line"/>
      <point x="229" y="530" type="line"/>
    </contour>
  </outline>
</glyph>
<glyph name="plus" format="2">
  <advance width="559"/>
  <unicode hex="002B"/>
  <outline>
    <contour>
      <point x="243" y="143" type="line"/>
      <point x="315" y="143" type="line"/>
      <point x="315" y="322" type="line"/>
      <point x="494" y="322" type="line"/>
      <point x="494" y="393" type="line"/>
      <point x="315" y="393" type="line"/>
      <point x="315" y="572" type="line"/>
      <point x="243" y="572" type="line"/>
      <point x="243" y="393" type="line"/>
      <point x="65" y="393" type="line"/>
      <point x="65" y="322" type="line"/>
      <point x="243" y="322" type="line"/>
    </contour>
  </outline>
</glyph>
<glyph name="period" format="2">
  <advance width="356"/>
  <unicode hex="002E"/>
  <outline>
    <contour>
      <point x="210" y="-8" type="curve" smooth="yes"/>
      <point x="254" y="-8"/>
      <point x="292" y="12"/>
      <point x="292" y="72" type="curve" smooth="yes"/>
      <point x="292" y="134"/>
      <point x="254" y="153"/>
      <point x="210" y="153" type="curve" smooth="yes"/>
      <point x="163" y="153"/>
      <point x="127" y="134"/>
      <point x="127" y="72" type="curve" smooth="yes"/>
      <point x="127" y="12"/>
      <point x="163" y="-8"/>
    </contour>
  </outline>
</glyph>
<glyph name="colon" format="2">
  <advance width="356"/>
  <unicode hex="003A"/>
  <outline>
    <contour>
      <point x="209" y="384" type="curve" smooth="yes"/>
      <point x="254" y="384"/>
      <point x="292" y="404"/>
      <point x="292" y="465" type="curve" smooth="yes"/>
      <point x="292" y="526"/>
      <point x="254" y="545"/>
      <point x="209" y="545" type="curve" smooth="yes"/>
      <point x="163" y="545"/>
      <point x="127" y="526"/>
      <point x="127" y="465" type="curve" smooth="yes"/>
      <point x="127" y="404"/>
      <point x="163" y="384"/>
    </contour>
    <contour>
      <point x="209" y="-8" type="curve" smooth="yes"/>
      <point x="254" y="-8"/>
      <point x="292" y="12"/>
      <point x="292" y="72" type="curve" smooth="yes"/>
      <point x="292" y="134"/>
      <point x="254" y="153"/>
      <point x="209" y="153" type="curve" smooth="yes"/>
      <point x="163" y="153"/>
      <point x="127" y="134"/>
      <point x="127" y="72" type="curve" smooth="yes"/>
      <point x="127" y="12"/>
      <point x="163" y="-8"/>
    </contour>
  </outline>
</glyph>
<glyph name="semicolon" format="2">
  <advance width="358"/>
  <unicode hex="003B"/>
  <outline>
    <contour>
      <point x="107" y="-154" type="line"/>
      <point x="237" y="-119"/>
      <point x="287" y="-43"/>
      <point x="287" y="42" type="curve" smooth="yes"/>
      <point x="287" y="111"/>
      <point x="254" y="153"/>
      <point x="198" y="153" type="curve" smooth="yes"/>
      <point x="157" y="153"/>
      <point x="122" y="129"/>
      <point x="122" y="83" type="curve" smooth="yes"/>
      <point x="122" y="3"/>
      <point x="195" y="14"/>
      <point x="195" y="-24" type="curve"/>
      <point x="195" y="-62"/>
      <point x="165" y="-81"/>
      <point x="107" y="-102" type="curve"/>
    </contour>
    <contour>
      <point x="206" y="384" type="curve" smooth="yes"/>
      <point x="250" y="384"/>
      <point x="289" y="404"/>
      <point x="289" y="465" type="curve" smooth="yes"/>
      <point x="289" y="526"/>
      <point x="250" y="545"/>
      <point x="206" y="545" type="curve" smooth="yes"/>
      <point x="159" y="545"/>
      <point x="123" y="526"/>
      <point x="123" y="465" type="curve" smooth="yes"/>
      <point x="123" y="404"/>
      <point x="159" y="384"/>
    </contour>
  </outline>
</glyph>
<glyph name="equal" format="2">
  <advance width="559"/>
  <unicode hex="003D"/>
  <outline>
    <contour>
      <point x="63" y="419" type="line"/>
      <point x="497" y="419" type="line"/>
      <point x="497" y="489" type="line"/>
      <point x="63" y="489" type="line"/>
    </contour>
    <contour>
      <point x="63" y="225" type="line"/>
      <point x="497" y="225" type="line"/>
      <point x="497" y="295" type="line"/>
      <point x="63" y="295" type="line"/>
    </contour>
  </outline>
</glyph>
<glyph name="question" format="2">
  <advance width="557"/>
  <unicode hex="003F"/>
  <outline>
    <contour>
      <point x="215" y="238" type="line"/>
      <point x="300" y="238" type="line"/>
      <point x="323" y="323" type="line"/>
      <point x="462" y="381"/>
      <point x="522" y="433"/>
      <point x="522" y="538" type="curve" smooth="yes"/>
      <point x="522" y="655"/>
      <point x="421" y="724"/>
      <point x="261" y="724" type="curve" smooth="yes"/>
      <point x="101" y="724"/>
      <point x="29" y="657"/>
      <point x="29" y="590" type="curve" smooth="yes"/>
      <point x="29" y="524"/>
      <point x="87" y="506"/>
      <point x="194" y="506" type="curve"/>
      <point x="194" y="612"/>
      <point x="218" y="656"/>
      <point x="262" y="656" type="curve" smooth="yes"/>
      <point x="302" y="656"/>
      <point x="326" y="619"/>
      <point x="326" y="553" type="curve" smooth="yes"/>
      <point x="326" y="468"/>
      <point x="303" y="404"/>
      <point x="192" y="350" type="curve"/>
    </contour>
    <contour>
      <point x="255" y="-9" type="curve" smooth="yes"/>
      <point x="305" y="-9"/>
      <point x="349" y="14"/>
      <point x="349" y="83" type="curve" smooth="yes"/>
      <point x="349" y="153"/>
      <point x="305" y="175"/>
      <point x="255" y="175" type="curve" smooth="yes"/>
      <point x="203" y="175"/>
      <point x="162" y="153"/>
      <point x="162" y="83" type="curve" smooth="yes"/>
      <point x="162" y="14"/>
      <point x="203" y="-9"/>
    </contour>
  </outline>
</glyph>
<glyph name="bracketleft" format="2">
  <advance width="431"/>
  <unicode hex="005B"/>
  <outline>
    <contour>
      <point x="73" y="-128" type="line"/>
      <point x="353" y="-128" type="line"/>
      <point x="353" y="-75" type="line"/>
      <point x="310" y="-75" type="line" smooth="yes"/>
      <point x="265" y="-75"/>
      <point x="228" y="-66"/>
      <point x="228" y="-3" type="curve" smooth="yes"/>
      <point x="228" y="635" type="line" smooth="yes"/>
      <point x="228" y="698"/>
      <point x="265" y="707"/>
      <point x="310" y="707" type="curve" smooth="yes"/>
      <point x="353" y="707" type="line"/>
      <point x="353" y="760" type="line"/>
      <point x="73" y="760" type="line"/>
    </contour>
  </outline>
</glyph>
<glyph name="bracketright" format="2">
  <advance width="479"/>
  <unicode hex="005D"/>
  <outline>
    <contour>
      <point x="127" y="-128" type="line"/>
      <point x="406" y="-128" type="line"/>
      <point x="406" y="760" type="line"/>
      <point x="127" y="760" type="line"/>
      <point x="127" y="707" type="line"/>
      <point x="170" y="707" type="line" smooth="yes"/>
      <point x="215" y="707"/>
      <point x="252" y="698"/>
      <point x="252" y="635" type="curve" smooth="yes"/>
      <point x="252" y="-3" type="line" smooth="yes"/>
      <point x="252" y="-66"/>
      <point x="215" y="-75"/>
      <point x="170" y="-75" type="curve" smooth="yes"/>
      <point x="127" y="-75" type="line"/>
    </contour>
  </outline>
</glyph>
<glyph name="braceleft" format="2">
  <advance width="517"/>
  <unicode hex="007B"/>
  <outline>
    <contour>
      <point x="322" y="-125" type="curve" smooth="yes"/>
      <point x="419" y="-125" type="line"/>
      <point x="419" y="-71" type="line"/>
      <point x="379" y="-71" type="line" smooth="yes"/>
      <point x="323" y="-71"/>
      <point x="309" y="-37"/>
      <point x="309" y="26" type="curve" smooth="yes"/>
      <point x="309" y="197" type="line" smooth="yes"/>
      <point x="309" y="257"/>
      <point x="275" y="296"/>
      <point x="199" y="315" type="curve"/>
      <point x="199" y="323" type="line"/>
      <point x="276" y="341"/>
      <point x="309" y="380"/>
      <point x="309" y="440" type="curve" smooth="yes"/>
      <point x="309" y="610" type="line" smooth="yes"/>
      <point x="309" y="673"/>
      <point x="323" y="707"/>
      <point x="379" y="707" type="curve" smooth="yes"/>
      <point x="419" y="707" type="line"/>
      <point x="419" y="760" type="line"/>
      <point x="322" y="760" type="line" smooth="yes"/>
      <point x="209" y="760"/>
      <point x="150" y="707"/>
      <point x="150" y="614" type="curve" smooth="yes"/>
      <point x="150" y="442" type="line" smooth="yes"/>
      <point x="150" y="367"/>
      <point x="99" y="351"/>
      <point x="34" y="349" type="curve"/>
      <point x="34" y="288" type="line"/>
      <point x="99" y="285"/>
      <point x="150" y="270"/>
      <point x="150" y="194" type="curve" smooth="yes"/>
      <point x="150" y="23" type="line" smooth="yes"/>
      <point x="150" y="-68"/>
      <point x="209" y="-125"/>
    </contour>
  </outline>
</glyph>
<glyph name="braceright" format="2">
  <advance width="546"/>
  <unicode hex="007D"/>
  <outline>
    <contour>
      <point x="127" y="-125" type="line"/>
      <point x="223" y="-125" type="line" smooth="yes"/>
      <point x="336" y="-125"/>
      <point x="395" y="-68"/>
      <point x="395" y="23" type="curve" smooth="yes"/>
      <point x="395" y="194" type="line" smooth="yes"/>
      <point x="395" y="270"/>
      <point x="447" y="285"/>
      <point x="512" y="288" type="curve"/>
      <point x="512" y="349" type="line"/>
      <point x="447" y="351"/>
      <point x="395" y="367"/>
      <point x="395" y="442" type="curve" smooth="yes"/>
      <point x="395" y="614" type="line" smooth="yes"/>
      <point x="395" y="707"/>
      <point x="336" y="760"/>
      <point x="223" y="760" type="curve" smooth="yes"/>
      <point x="127" y="760" type="line"/>
      <point x="127" y="707" type="line"/>
      <point x="167" y="707" type="line" smooth="yes"/>
      <point x="224" y="707"/>
      <point x="237" y="673"/>
      <point x="237" y="610" type="curve" smooth="yes"/>
      <point x="237" y="440" type="line" smooth="yes"/>
      <point x="237" y="380"/>
      <point x="270" y="341"/>
      <point x="347" y="323" type="curve"/>
      <point x="347" y="315" type="line"/>
      <point x="271" y="296"/>
      <point x="237" y="257"/>
      <point x="237" y="197" type="curve" smooth="yes"/>
      <point x="237" y="26" type="line" smooth="yes"/>
      <point x="237" y="-37"/>
      <point x="224" y="-71"/>
      <point x="167" y="-71" type="curve" smooth="yes"/>
      <point x="127" y="-71" type="line"/>
    </contour>
  </outline>
</glyph>
<glyph name="asciitilde" format="2">
  <advance width="559"/>
  <unicode hex="007E"/>
  <outline>
    <contour>
      <point x="46" y="262" type="curve"/>
      <point x="119" y="262" type="line"/>
      <point x="122" y="345"/>
      <point x="141" y="378"/>
      <point x="176" y="378" type="curve" smooth="yes"/>
      <point x="204" y="378"/>
      <point x="220" y="359"/>
      <point x="255" y="327" type="curve" smooth="yes"/>
      <point x="303" y="283"/>
      <point x="333" y="262"/>
      <point x="384" y="262" type="curve" smooth="yes"/>
      <point x="483" y="262"/>
      <point x="507" y="344"/>
      <point x="512" y="451" type="curve"/>
      <point x="438" y="451" type="line"/>
      <point x="434" y="371"/>
      <point x="419" y="335"/>
      <point x="385" y="335" type="curve" smooth="yes"/>
      <point x="361" y="335"/>
      <point x="340" y="354"/>
      <point x="306" y="384" type="curve" smooth="yes"/>
      <point x="249" y="434"/>
      <point x="226" y="451"/>
      <point x="181" y="451" type="curve" smooth="yes"/>
      <point x="79" y="451"/>
      <point x="48" y="366"/>
    </contour>
  </outline>
</glyph>
<glyph name="multiply" format="2">
  <advance width="559"/>
  <unicode hex="00D7"/>
  <outline>
    <contour>
      <point x="133" y="160" type="line"/>
      <point x="279" y="308" type="line"/>
      <point x="426" y="160" type="line"/>
      <point x="476" y="210" type="line"/>
      <point x="329" y="358" type="line"/>
      <point x="476" y="505" type="line"/>
      <point x="425" y="557" type="line"/>
      <point x="279" y="410" type="line"/>
      <point x="133" y="556" type="line"/>
      <point x="81" y="505" type="line"/>
      <point x="228" y="359" type="line"/>
      <point x="81" y="211" type="line"/>
    </contour>
  </outline>
</glyph>
<glyph name="uni02BC" format="2">
  <advance width="281"/>
  <unicode hex="02BC"/>
  <outline>
    <contour>
      <point x="45" y="407" type="line"/>
      <point x="176" y="442"/>
      <point x="225" y="518"/>
      <point x="225" y="603" type="curve" smooth="yes"/>
      <point x="225" y="672"/>
      <point x="189" y="714"/>
      <point x="133" y="714" type="curve" smooth="yes"/>
      <point x="91" y="714"/>
      <point x="60" y="690"/>
      <point x="60" y="645" type="curve" smooth="yes"/>
      <point x="60" y="564"/>
      <point x="133" y="575"/>
      <point x="133" y="537" type="curve" smooth="yes"/>
      <point x="133" y="498"/>
      <point x="104" y="480"/>
      <point x="45" y="459" type="curve"/>
    </contour>
  </outline>
</glyph>
<glyph name="anudatta-deva" format="2">
  <unicode hex="0952"/>
  <anchor x="-299" y="440" name="_vedic"/>
  <outline>
    <contour>
      <point x="-550" y="-165" type="line"/>
      <point x="-47" y="-165" type="line"/>
      <point x="-47" y="-79" type="line"/>
      <point x="-550" y="-79" type="line"/>
    </contour>
  </outline>
</glyph>
<glyph name="dbldanda-deva" format="2">
  <advance width="688"/>
  <unicode hex="0965"/>
  <outline>
    <contour>
      <point x="607" y="-43" type="line"/>
      <point x="618" y="-40" type="line"/>
      <point x="618" y="591" type="line"/>
      <point x="506" y="628" type="line"/>
      <point x="503" y="628" type="line"/>
      <point x="503" y="-1" type="line"/>
    </contour>
    <contour>
      <point x="404" y="-43" type="line"/>
      <point x="415" y="-40" type="line"/>
      <point x="415" y="591" type="line"/>
      <point x="303" y="628" type="line"/>
      <point x="300" y="628" type="line"/>
      <point x="300" y="-1" type="line"/>
    </contour>
  </outline>
</glyph>
<glyph name="anji-beng" format="2">
  <advance width="641"/>
  <unicode hex="0980"/>
  <outline>
    <contour>
      <point x="534" y="-60" type="curve" smooth="yes"/>
      <point x="597" y="-60"/>
      <point x="631" y="-24"/>
      <point x="631" y="33" type="curve" smooth="yes"/>
      <point x="631" y="90"/>
      <point x="592" y="124"/>
      <point x="548" y="124" type="curve" smooth="yes"/>
      <point x="493" y="124"/>
      <point x="474" y="81"/>
      <point x="474" y="50" type="curve"/>
      <point x="525" y="41" type="line"/>
      <point x="525" y="461" type="line" smooth="yes"/>
      <point x="525" y="566"/>
      <point x="442" y="638"/>
      <point x="317" y="638" type="curve" smooth="yes"/>
      <point x="163" y="638"/>
      <point x="45" y="539"/>
      <point x="45" y="385" type="curve" smooth="yes"/>
      <point x="45" y="250"/>
      <point x="126" y="162"/>
      <point x="258" y="162" type="curve" smooth="yes"/>
      <point x="337" y="162"/>
      <point x="382" y="208"/>
      <point x="382" y="275" type="curve" smooth="yes"/>
      <point x="382" y="335"/>
      <point x="345" y="378"/>
      <point x="284" y="378" type="curve" smooth="yes"/>
      <point x="230" y="378"/>
      <point x="193" y="339"/>
      <point x="193" y="287" type="curve" smooth="yes"/>
      <point x="193" y="265"/>
      <point x="197" y="244"/>
      <point x="204" y="232" type="curve"/>
      <point x="261" y="258" type="line"/>
      <point x="247" y="255"/>
      <point x="232" y="254"/>
      <point x="219" y="254" type="curve" smooth="yes"/>
      <point x="181" y="254"/>
      <point x="156" y="283"/>
      <point x="156" y="345" type="curve" smooth="yes"/>
      <point x="156" y="451"/>
      <point x="274" y="521"/>
      <point x="356" y="521" type="curve" smooth="yes"/>
      <point x="398" y="521"/>
      <point x="410" y="502"/>
      <point x="410" y="459" type="curve" smooth="yes"/>
      <point x="410" y="86" type="line" smooth="yes"/>
      <point x="410" y="4"/>
      <point x="453" y="-60"/>
    </contour>
  </outline>
</glyph>
<glyph name="anusvara-beng" format="2">
  <advance width="397"/>
  <unicode hex="0982"/>
  <outline>
    <contour>
      <point x="192" y="313" type="curve" smooth="yes"/>
      <point x="285" y="313"/>
      <point x="352" y="378"/>
      <point x="352" y="470" type="curve" smooth="yes"/>
      <point x="352" y="554"/>
      <point x="295" y="621"/>
      <point x="203" y="621" type="curve" smooth="yes"/>
      <point x="111" y="621"/>
      <point x="45" y="555"/>
      <point x="45" y="465" type="curve" smooth="yes"/>
      <point x="45" y="384"/>
      <point x="99" y="313"/>
    </contour>
    <contour>
      <point x="165" y="402" type="curve" smooth="yes"/>
      <point x="147" y="402"/>
      <point x="134" y="411"/>
      <point x="134" y="434" type="curve" smooth="yes"/>
      <point x="134" y="474"/>
      <point x="195" y="533"/>
      <point x="234" y="533" type="curve" smooth="yes"/>
      <point x="255" y="533"/>
      <point x="265" y="523"/>
      <point x="265" y="507" type="curve" smooth="yes"/>
      <point x="265" y="467"/>
      <point x="207" y="402"/>
    </contour>
    <contour>
      <point x="327" y="-88" type="curve"/>
      <point x="389" y="-67" type="line"/>
      <point x="317" y="96"/>
      <point x="224" y="226"/>
      <point x="117" y="285" type="curve"/>
      <point x="44" y="142" type="line"/>
      <point x="145" y="102"/>
      <point x="218" y="67"/>
    </contour>
  </outline>
</glyph>
<glyph name="visarga-beng" format="2">
  <advance width="423"/>
  <unicode hex="0983"/>
  <outline>
    <contour>
      <point x="204" y="310" type="curve" smooth="yes"/>
      <point x="305" y="310"/>
      <point x="378" y="376"/>
      <point x="378" y="470" type="curve" smooth="yes"/>
      <point x="378" y="556"/>
      <point x="316" y="624"/>
      <point x="216" y="624" type="curve" smooth="yes"/>
      <point x="117" y="624"/>
      <point x="45" y="557"/>
      <point x="45" y="465" type="curve" smooth="yes"/>
      <point x="45" y="382"/>
      <point x="104" y="310"/>
    </contour>
    <contour>
      <point x="179" y="398" type="curve" smooth="yes"/>
      <point x="160" y="398"/>
      <point x="146" y="407"/>
      <point x="146" y="430" type="curve" smooth="yes"/>
      <point x="146" y="471"/>
      <point x="204" y="537"/>
      <point x="246" y="537" type="curve" smooth="yes"/>
      <point x="269" y="537"/>
      <point x="279" y="527"/>
      <point x="279" y="511" type="curve" smooth="yes"/>
      <point x="279" y="470"/>
      <point x="225" y="398"/>
    </contour>
    <contour>
      <point x="205" y="-42" type="curve" smooth="yes"/>
      <point x="303" y="-42"/>
      <point x="374" y="23"/>
      <point x="374" y="115" type="curve" smooth="yes"/>
      <point x="374" y="199"/>
      <point x="314" y="266"/>
      <point x="216" y="266" type="curve" smooth="yes"/>
      <point x="119" y="266"/>
      <point x="49" y="200"/>
      <point x="49" y="110" type="curve" smooth="yes"/>
      <point x="49" y="29"/>
      <point x="106" y="-42"/>
    </contour>
    <contour>
      <point x="180" y="44" type="curve" smooth="yes"/>
      <point x="161" y="44"/>
      <point x="147" y="53"/>
      <point x="147" y="76" type="curve" smooth="yes"/>
      <point x="147" y="116"/>
      <point x="204" y="181"/>
      <point x="245" y="181" type="curve" smooth="yes"/>
      <point x="267" y="181"/>
      <point x="278" y="171"/>
      <point x="278" y="155" type="curve" smooth="yes"/>
      <point x="278" y="115"/>
      <point x="225" y="44"/>
    </contour>
  </outline>
</glyph>
<glyph name="a-beng" format="2">
  <advance width="855"/>
  <unicode hex="0985"/>
  <anchor x="775" y="0" name="bottom"/>
  <anchor x="775" y="100" name="bottom.rakaar"/>
  <anchor x="775" y="11" name="bottom.rvocalic"/>
  <anchor x="755" y="20" name="bottom.virama"/>
  <anchor x="775" y="536" name="top"/>
  <anchor x="775" y="536" name="topright"/>
  <outline>
    <contour>
      <point x="764" y="-32" type="line"/>
      <point x="775" y="-29" type="line"/>
      <point x="775" y="536" type="line"/>
      <point x="894" y="536" type="line"/>
      <point x="846" y="622" type="line"/>
      <point x="-39" y="622" type="line"/>
      <point x="8" y="536" type="line"/>
      <point x="660" y="536" type="line"/>
      <point x="660" y="80" type="line"/>
      <point x="679" y="97" type="line"/>
      <point x="640" y="177"/>
      <point x="599" y="217"/>
      <point x="570" y="236" type="curve"/>
      <point x="534" y="142" type="line"/>
      <point x="594" y="113"/>
      <point x="638" y="74"/>
      <point x="678" y="14" type="curve"/>
    </contour>
    <contour>
      <point x="378" y="12" type="curve" smooth="yes"/>
      <point x="488" y="12"/>
      <point x="601" y="80"/>
      <point x="601" y="258" type="curve" smooth="yes"/>
      <point x="601" y="391"/>
      <point x="517" y="493"/>
      <point x="361" y="493" type="curve" smooth="yes"/>
      <point x="263" y="493"/>
      <point x="207" y="438"/>
      <point x="207" y="360" type="curve" smooth="yes"/>
      <point x="207" y="292"/>
      <point x="255" y="237"/>
      <point x="333" y="237" type="curve" smooth="yes"/>
      <point x="408" y="237"/>
      <point x="447" y="287"/>
      <point x="447" y="354" type="curve" smooth="yes"/>
      <point x="447" y="452"/>
      <point x="371" y="521"/>
      <point x="324" y="553" type="curve"/>
      <point x="125" y="552" type="line"/>
      <point x="290" y="521"/>
      <point x="351" y="434"/>
      <point x="362" y="344" type="curve"/>
      <point x="373" y="351"/>
      <point x="397" y="364"/>
      <point x="423" y="364" type="curve" smooth="yes"/>
      <point x="470" y="364"/>
      <point x="518" y="340"/>
      <point x="518" y="278" type="curve" smooth="yes"/>
      <point x="518" y="205"/>
      <point x="454" y="176"/>
      <point x="371" y="176" type="curve" smooth="yes"/>
      <point x="247" y="176"/>
      <point x="145" y="244"/>
      <point x="72" y="470" type="curve"/>
      <point x="8" y="455" type="line"/>
      <point x="78" y="163"/>
      <point x="190" y="12"/>
    </contour>
  </outline>
</glyph>
<glyph name="aa-beng" format="2">
  <advance width="1121"/>
  <unicode hex="0986"/>
  <anchor x="775" y="0" name="bottom"/>
  <anchor x="775" y="100" name="bottom.rakaar"/>
  <anchor x="775" y="11" name="bottom.rvocalic"/>
  <anchor x="755" y="20" name="bottom.virama"/>
  <anchor x="1041" y="536" name="top"/>
  <anchor x="1041" y="523" name="topright"/>
  <outline>
    <contour>
      <point x="764" y="-32" type="line"/>
      <point x="775" y="-29" type="line"/>
      <point x="775" y="536" type="line"/>
      <point x="837" y="536" type="line"/>
      <point x="790" y="622" type="line"/>
      <point x="-39" y="622" type="line"/>
      <point x="8" y="536" type="line"/>
      <point x="660" y="536" type="line"/>
      <point x="660" y="80" type="line"/>
      <point x="679" y="97" type="line"/>
      <point x="640" y="177"/>
      <point x="599" y="217"/>
      <point x="570" y="236" type="curve"/>
      <point x="534" y="142" type="line"/>
      <point x="594" y="113"/>
      <point x="638" y="74"/>
      <point x="678" y="14" type="curve"/>
    </contour>
    <contour>
      <point x="378" y="12" type="curve" smooth="yes"/>
      <point x="488" y="12"/>
      <point x="601" y="80"/>
      <point x="601" y="258" type="curve" smooth="yes"/>
      <point x="601" y="391"/>
      <point x="517" y="493"/>
      <point x="361" y="493" type="curve" smooth="yes"/>
      <point x="263" y="493"/>
      <point x="207" y="438"/>
      <point x="207" y="360" type="curve" smooth="yes"/>
      <point x="207" y="292"/>
      <point x="255" y="237"/>
      <point x="333" y="237" type="curve" smooth="yes"/>
      <point x="408" y="237"/>
      <point x="447" y="287"/>
      <point x="447" y="354" type="curve" smooth="yes"/>
      <point x="447" y="452"/>
      <point x="371" y="521"/>
      <point x="324" y="553" type="curve"/>
      <point x="125" y="552" type="line"/>
      <point x="290" y="521"/>
      <point x="351" y="434"/>
      <point x="362" y="344" type="curve"/>
      <point x="373" y="351"/>
      <point x="397" y="364"/>
      <point x="423" y="364" type="curve" smooth="yes"/>
      <point x="470" y="364"/>
      <point x="518" y="340"/>
      <point x="518" y="278" type="curve" smooth="yes"/>
      <point x="518" y="205"/>
      <point x="454" y="176"/>
      <point x="371" y="176" type="curve" smooth="yes"/>
      <point x="247" y="176"/>
      <point x="145" y="244"/>
      <point x="72" y="470" type="curve"/>
      <point x="8" y="455" type="line"/>
      <point x="78" y="163"/>
      <point x="190" y="12"/>
    </contour>
    <contour>
      <point x="1030" y="-43" type="line"/>
      <point x="1041" y="-40" type="line"/>
      <point x="1041" y="536" type="line"/>
      <point x="1160" y="536" type="line"/>
      <point x="1112" y="622" type="line"/>
      <point x="1029" y="622" type="line"/>
      <point x="1019" y="686" type="line"/>
      <point x="935" y="724" type="line"/>
      <point x="926" y="720" type="line"/>
      <point x="926" y="614" type="line" smooth="yes"/>
      <point x="926" y="593"/>
      <point x="928" y="537"/>
      <point x="934" y="490" type="curve"/>
      <point x="947" y="493" type="line"/>
      <point x="929" y="579"/>
      <point x="905" y="622"/>
      <point x="841" y="622" type="curve" smooth="yes"/>
      <point x="781" y="622" type="line"/>
      <point x="829" y="536" type="line"/>
      <point x="859" y="536" type="line" smooth="yes"/>
      <point x="900" y="536"/>
      <point x="920" y="489"/>
      <point x="926" y="442" type="curve"/>
      <point x="926" y="-1" type="line"/>
    </contour>
  </outline>
</glyph>
<glyph name="ii-beng" format="2">
  <advance width="746"/>
  <unicode hex="0988"/>
  <anchor x="666" y="-30" name="bottom"/>
  <anchor x="670" y="30" name="bottom.rakaar"/>
  <anchor x="660" y="-57" name="bottom.rvocalic"/>
  <anchor x="655" y="-65" name="bottom.virama"/>
  <anchor x="467" y="605" name="top"/>
  <anchor x="415" y="604" name="topright"/>
  <outline>
    <contour>
      <point x="615" y="-114" type="curve"/>
      <point x="671" y="-92" type="line"/>
      <point x="650" y="-26"/>
      <point x="642" y="19"/>
      <point x="642" y="81" type="curve" smooth="yes"/>
      <point x="642" y="175"/>
      <point x="670" y="284"/>
      <point x="721" y="372" type="curve"/>
      <point x="579" y="486" type="line"/>
      <point x="494" y="432"/>
      <point x="428" y="351"/>
      <point x="384" y="274" type="curve"/>
      <point x="413" y="209" type="line"/>
      <point x="420" y="235"/>
      <point x="422" y="262"/>
      <point x="422" y="288" type="curve" smooth="yes"/>
      <point x="422" y="396"/>
      <point x="374" y="490"/>
      <point x="202" y="490" type="curve" smooth="yes"/>
      <point x="107" y="490"/>
      <point x="51" y="445"/>
      <point x="51" y="372" type="curve" smooth="yes"/>
      <point x="51" y="296"/>
      <point x="105" y="259"/>
      <point x="168" y="259" type="curve" smooth="yes"/>
      <point x="235" y="259"/>
      <point x="281" y="304"/>
      <point x="281" y="382" type="curve" smooth="yes"/>
      <point x="281" y="462"/>
      <point x="226" y="529"/>
      <point x="193" y="543" type="curve"/>
      <point x="17" y="543" type="line"/>
      <point x="74" y="529"/>
      <point x="147" y="502"/>
      <point x="196" y="455" type="curve"/>
      <point x="178" y="357" type="line"/>
      <point x="193" y="376"/>
      <point x="230" y="397"/>
      <point x="256" y="397" type="curve" smooth="yes"/>
      <point x="312" y="397"/>
      <point x="343" y="363"/>
      <point x="343" y="309" type="curve" smooth="yes"/>
      <point x="343" y="271"/>
      <point x="335" y="242"/>
      <point x="315" y="213" type="curve" smooth="yes"/>
      <point x="292" y="179"/>
      <point x="261" y="159"/>
      <point x="210" y="159" type="curve" smooth="yes"/>
      <point x="170" y="159"/>
      <point x="140" y="184"/>
      <point x="112" y="231" type="curve"/>
      <point x="50" y="201" type="line"/>
      <point x="95" y="95"/>
      <point x="162" y="2"/>
      <point x="264" y="2" type="curve" smooth="yes"/>
      <point x="352" y="2"/>
      <point x="410" y="72"/>
      <point x="484" y="171" type="curve" smooth="yes"/>
      <point x="523" y="224"/>
      <point x="579" y="312"/>
      <point x="636" y="359" type="curve"/>
      <point x="597" y="381" type="line"/>
      <point x="565" y="292"/>
      <point x="541" y="220"/>
      <point x="541" y="134" type="curve" smooth="yes"/>
      <point x="541" y="39"/>
      <point x="578" y="-48"/>
    </contour>
    <contour>
      <point x="8" y="536" type="line"/>
      <point x="785" y="536" type="line"/>
      <point x="739" y="622" type="line"/>
      <point x="-39" y="622" type="line"/>
    </contour>
    <contour>
      <point x="571" y="588" type="curve"/>
      <point x="643" y="588" type="line"/>
      <point x="634" y="737"/>
      <point x="569" y="838"/>
      <point x="432" y="838" type="curve" smooth="yes"/>
      <point x="356" y="838"/>
      <point x="305" y="822"/>
      <point x="229" y="822" type="curve" smooth="yes"/>
      <point x="147" y="822"/>
      <point x="115" y="847"/>
      <point x="115" y="897" type="curve" smooth="yes"/>
      <point x="115" y="910"/>
      <point x="116" y="926"/>
      <point x="118" y="938" type="curve"/>
      <point x="60" y="945" type="line"/>
      <point x="54" y="919"/>
      <point x="50" y="888"/>
      <point x="50" y="859" type="curve" smooth="yes"/>
      <point x="50" y="756"/>
      <point x="112" y="682"/>
      <point x="245" y="682" type="curve" smooth="yes"/>
      <point x="328" y="682"/>
      <point x="392" y="701"/>
      <point x="460" y="701" type="curve" smooth="yes"/>
      <point x="532" y="701"/>
      <point x="566" y="676"/>
    </contour>
  </outline>
</glyph>
<glyph name="u-beng" format="2">
  <advance width="652"/>
  <unicode hex="0989"/>
  <anchor x="515" y="-26" name="bottom"/>
  <anchor x="582" y="-11" name="bottom.rakaar"/>
  <anchor x="502" y="2" name="bottom.rvocalic"/>
  <anchor x="437" y="-11" name="bottom.virama"/>
  <anchor x="427" y="597" name="top"/>
  <anchor x="355" y="604" name="topright"/>
  <anchor x="326" y="0" name="vedic"/>
  <anchor x="349" y="-142" name="nukta"/>
  <outline>
    <contour>
      <point x="529" y="587" type="curve"/>
      <point x="601" y="587" type="line"/>
      <point x="588" y="736"/>
      <point x="525" y="830"/>
      <point x="394" y="830" type="curve" smooth="yes"/>
      <point x="325" y="830"/>
      <point x="296" y="821"/>
      <point x="237" y="821" type="curve" smooth="yes"/>
      <point x="142" y="821"/>
      <point x="110" y="846"/>
      <point x="110" y="896" type="curve" smooth="yes"/>
      <point x="110" y="909"/>
      <point x="111" y="925"/>
      <point x="113" y="937" type="curve"/>
      <point x="55" y="944" type="line"/>
      <point x="49" y="918"/>
      <point x="45" y="887"/>
      <point x="45" y="858" type="curve" smooth="yes"/>
      <point x="45" y="755"/>
      <point x="106" y="681"/>
      <point x="247" y="681" type="curve" smooth="yes"/>
      <point x="318" y="681"/>
      <point x="361" y="693"/>
      <point x="407" y="693" type="curve" smooth="yes"/>
      <point x="485" y="693"/>
      <point x="520" y="675"/>
    </contour>
    <component base="dda-beng"/>
  </outline>
</glyph>
<glyph name="uu-beng" format="2">
  <advance width="757"/>
  <unicode hex="098A"/>
  <anchor x="606" y="-36" name="bottom"/>
  <anchor x="673" y="-21" name="bottom.rakaar"/>
  <anchor x="593" y="-8" name="bottom.rvocalic"/>
  <anchor x="528" y="-21" name="bottom.virama"/>
  <anchor x="490" y="602" name="top"/>
  <anchor x="465" y="604" name="topright"/>
  <outline>
    <contour>
      <point x="453" y="-35" type="curve" smooth="yes"/>
      <point x="656" y="-35"/>
      <point x="738" y="80"/>
      <point x="738" y="234" type="curve" smooth="yes"/>
      <point x="738" y="347"/>
      <point x="690" y="433"/>
      <point x="630" y="486" type="curve"/>
      <point x="568" y="404"/>
      <point x="513" y="369"/>
      <point x="483" y="369" type="curve" smooth="yes"/>
      <point x="466" y="369"/>
      <point x="448" y="375"/>
      <point x="448" y="401" type="curve" smooth="yes"/>
      <point x="448" y="536" type="line"/>
      <point x="796" y="536" type="line"/>
      <point x="747" y="622" type="line"/>
      <point x="-39" y="622" type="line"/>
      <point x="10" y="536" type="line"/>
      <point x="333" y="536" type="line"/>
      <point x="333" y="370" type="line" smooth="yes"/>
      <point x="333" y="314"/>
      <point x="354" y="280"/>
      <point x="382" y="252" type="curve" smooth="yes"/>
      <point x="412" y="222"/>
      <point x="450" y="206"/>
      <point x="496" y="206" type="curve" smooth="yes"/>
      <point x="558" y="206"/>
      <point x="640" y="257"/>
      <point x="692" y="334" type="curve"/>
      <point x="624" y="363" type="line"/>
      <point x="646" y="334"/>
      <point x="664" y="305"/>
      <point x="664" y="266" type="curve" smooth="yes"/>
      <point x="664" y="182"/>
      <point x="592" y="126"/>
      <point x="488" y="126" type="curve" smooth="yes"/>
      <point x="309" y="126"/>
      <point x="258" y="270"/>
      <point x="198" y="488" type="curve"/>
      <point x="134" y="472" type="line"/>
      <point x="162" y="309"/>
      <point x="203" y="197"/>
      <point x="259" y="109" type="curve"/>
      <point x="306" y="120" type="line"/>
      <point x="198" y="154"/>
      <point x="129" y="271"/>
      <point x="62" y="478" type="curve"/>
      <point x="-1" y="462" type="line"/>
      <point x="64" y="143"/>
      <point x="209" y="-35"/>
    </contour>
    <contour>
      <point x="622" y="588" type="curve"/>
      <point x="694" y="588" type="line"/>
      <point x="681" y="737"/>
      <point x="608" y="835"/>
      <point x="460" y="835" type="curve" smooth="yes"/>
      <point x="368" y="835"/>
      <point x="330" y="818"/>
      <point x="221" y="818" type="curve" smooth="yes"/>
      <point x="129" y="818"/>
      <point x="101" y="847"/>
      <point x="101" y="897" type="curve" smooth="yes"/>
      <point x="101" y="910"/>
      <point x="102" y="926"/>
      <point x="104" y="938" type="curve"/>
      <point x="46" y="945" type="line"/>
      <point x="40" y="919"/>
      <point x="36" y="888"/>
      <point x="36" y="859" type="curve" smooth="yes"/>
      <point x="36" y="756"/>
      <point x="91" y="680"/>
      <point x="246" y="680" type="curve" smooth="yes"/>
      <point x="341" y="680"/>
      <point x="407" y="700"/>
      <point x="484" y="700" type="curve" smooth="yes"/>
      <point x="564" y="700"/>
      <point x="613" y="676"/>
    </contour>
  </outline>
</glyph>
<glyph name="lVocalic-beng" format="2">
  <advance width="571"/>
  <unicode hex="098C"/>
  <anchor x="454" y="536" name="top"/>
  <outline>
    <contour>
      <point x="317" y="-29" type="line"/>
      <point x="420" y="-18"/>
      <point x="556" y="51"/>
      <point x="556" y="261" type="curve" smooth="yes"/>
      <point x="556" y="417"/>
      <point x="474" y="479"/>
      <point x="306" y="507" type="curve" smooth="yes"/>
      <point x="217" y="522"/>
      <point x="155" y="538"/>
      <point x="155" y="616" type="curve" smooth="yes"/>
      <point x="155" y="648"/>
      <point x="161" y="670"/>
      <point x="173" y="699" type="curve"/>
      <point x="115" y="718" type="line"/>
      <point x="102" y="696"/>
      <point x="67" y="628"/>
      <point x="67" y="555" type="curve" smooth="yes"/>
      <point x="67" y="430"/>
      <point x="147" y="388"/>
      <point x="276" y="367" type="curve" smooth="yes"/>
      <point x="398" y="347"/>
      <point x="473" y="338"/>
      <point x="473" y="225" type="curve" smooth="yes"/>
      <point x="473" y="146"/>
      <point x="431" y="106"/>
      <point x="370" y="104" type="curve"/>
      <point x="432" y="69" type="line"/>
      <point x="433" y="218"/>
      <point x="356" y="333"/>
      <point x="220" y="333" type="curve" smooth="yes"/>
      <point x="87" y="333"/>
      <point x="35" y="239"/>
      <point x="35" y="145" type="curve" smooth="yes"/>
      <point x="35" y="38"/>
      <point x="94" y="-15"/>
      <point x="171" y="-15" type="curve" smooth="yes"/>
      <point x="232" y="-15"/>
      <point x="260" y="27"/>
      <point x="260" y="77" type="curve" smooth="yes"/>
      <point x="260" y="130"/>
      <point x="225" y="164"/>
      <point x="174" y="164" type="curve" smooth="yes"/>
      <point x="130" y="164"/>
      <point x="89" y="134"/>
      <point x="90" y="94" type="curve"/>
      <point x="157" y="86" type="line"/>
      <point x="137" y="92"/>
      <point x="122" y="109"/>
      <point x="122" y="141" type="curve" smooth="yes"/>
      <point x="122" y="177"/>
      <point x="150" y="204"/>
      <point x="196" y="204" type="curve" smooth="yes"/>
      <point x="285" y="204"/>
      <point x="314" y="100"/>
      <point x="314" y="19" type="curve" smooth="yes"/>
      <point x="314" y="5"/>
      <point x="313" y="-8"/>
      <point x="310" y="-22" type="curve"/>
    </contour>
  </outline>
</glyph>
<glyph name="e-beng" format="2">
  <advance width="698"/>
  <unicode hex="098F"/>
  <anchor x="633" y="0" name="bottom"/>
  <anchor x="633" y="-10" name="bottom.rvocalic"/>
  <anchor x="613" y="10" name="bottom.virama"/>
  <anchor x="541" y="536" name="top"/>
  <anchor x="544" y="536" name="topright"/>
  <outline>
    <contour>
      <point x="622" y="-41" type="line"/>
      <point x="633" y="-38" type="line"/>
      <point x="633" y="475" type="line" smooth="yes"/>
      <point x="633" y="568"/>
      <point x="572" y="633"/>
      <point x="466" y="633" type="curve" smooth="yes"/>
      <point x="330" y="633"/>
      <point x="199" y="525"/>
      <point x="199" y="385" type="curve" smooth="yes"/>
      <point x="199" y="298"/>
      <point x="254" y="249"/>
      <point x="329" y="249" type="curve" smooth="yes"/>
      <point x="403" y="249"/>
      <point x="445" y="298"/>
      <point x="445" y="357" type="curve" smooth="yes"/>
      <point x="445" y="411"/>
      <point x="409" y="446"/>
      <point x="360" y="446" type="curve" smooth="yes"/>
      <point x="335" y="446"/>
      <point x="312" y="434"/>
      <point x="299" y="415" type="curve"/>
      <point x="385" y="407" type="line"/>
      <point x="386" y="471"/>
      <point x="432" y="537"/>
      <point x="482" y="537" type="curve" smooth="yes"/>
      <point x="506" y="537"/>
      <point x="518" y="523"/>
      <point x="518" y="500" type="curve" smooth="yes"/>
      <point x="518" y="271" type="line" smooth="yes"/>
      <point x="518" y="214"/>
      <point x="524" y="136"/>
      <point x="533" y="98" type="curve"/>
      <point x="485" y="190"/>
      <point x="438" y="204"/>
      <point x="370" y="204" type="curve" smooth="yes"/>
      <point x="323" y="204"/>
      <point x="276" y="195"/>
      <point x="227" y="195" type="curve" smooth="yes"/>
      <point x="159" y="195"/>
      <point x="103" y="238"/>
      <point x="103" y="323" type="curve" smooth="yes"/>
      <point x="103" y="342"/>
      <point x="104" y="369"/>
      <point x="113" y="403" type="curve"/>
      <point x="52" y="413" type="line"/>
      <point x="37" y="365"/>
      <point x="30" y="307"/>
      <point x="30" y="258" type="curve" smooth="yes"/>
      <point x="30" y="94"/>
      <point x="129" y="32"/>
      <point x="238" y="32" type="curve" smooth="yes"/>
      <point x="311" y="32"/>
      <point x="374" y="54"/>
      <point x="433" y="54" type="curve" smooth="yes"/>
      <point x="477" y="54"/>
      <point x="517" y="42"/>
      <point x="553" y="-4" type="curve"/>
    </contour>
  </outline>
</glyph>
<glyph name="ai-beng" format="2">
  <advance width="811"/>
  <unicode hex="0990"/>
  <anchor x="633" y="0" name="bottom"/>
  <anchor x="633" y="-10" name="bottom.rvocalic"/>
  <anchor x="613" y="10" name="bottom.virama"/>
  <anchor x="583" y="606" name="top"/>
  <anchor x="530" y="596" name="topright"/>
  <outline>
    <contour>
      <point x="618" y="280" type="line"/>
      <point x="701" y="356"/>
      <point x="756" y="441"/>
      <point x="756" y="561" type="curve" smooth="yes"/>
      <point x="756" y="768"/>
      <point x="594" y="790"/>
      <point x="451" y="810" type="curve" smooth="yes"/>
      <point x="338" y="826"/>
      <point x="238" y="840"/>
      <point x="238" y="933" type="curve" smooth="yes"/>
      <point x="238" y="962"/>
      <point x="246" y="995"/>
      <point x="261" y="1025" type="curve"/>
      <point x="191" y="1047" type="line"/>
      <point x="167" y="1000"/>
      <point x="152" y="955"/>
      <point x="152" y="894" type="curve" smooth="yes"/>
      <point x="152" y="733"/>
      <point x="302" y="707"/>
      <point x="442" y="690" type="curve" smooth="yes"/>
      <point x="566" y="675"/>
      <point x="679" y="663"/>
      <point x="679" y="549" type="curve" smooth="yes"/>
      <point x="679" y="486"/>
      <point x="657" y="441"/>
      <point x="591" y="392" type="curve"/>
    </contour>
    <contour>
      <point x="622" y="-41" type="line"/>
      <point x="633" y="-38" type="line"/>
      <point x="633" y="475" type="line" smooth="yes"/>
      <point x="633" y="568"/>
      <point x="572" y="633"/>
      <point x="466" y="633" type="curve" smooth="yes"/>
      <point x="330" y="633"/>
      <point x="199" y="525"/>
      <point x="199" y="385" type="curve" smooth="yes"/>
      <point x="199" y="298"/>
      <point x="254" y="249"/>
      <point x="329" y="249" type="curve" smooth="yes"/>
      <point x="403" y="249"/>
      <point x="445" y="298"/>
      <point x="445" y="357" type="curve" smooth="yes"/>
      <point x="445" y="411"/>
      <point x="409" y="446"/>
      <point x="360" y="446" type="curve" smooth="yes"/>
      <point x="335" y="446"/>
      <point x="312" y="434"/>
      <point x="299" y="415" type="curve"/>
      <point x="385" y="407" type="line"/>
      <point x="386" y="471"/>
      <point x="432" y="537"/>
      <point x="482" y="537" type="curve" smooth="yes"/>
      <point x="506" y="537"/>
      <point x="518" y="523"/>
      <point x="518" y="500" type="curve" smooth="yes"/>
      <point x="518" y="271" type="line" smooth="yes"/>
      <point x="518" y="214"/>
      <point x="524" y="136"/>
      <point x="533" y="98" type="curve"/>
      <point x="485" y="190"/>
      <point x="438" y="204"/>
      <point x="370" y="204" type="curve" smooth="yes"/>
      <point x="323" y="204"/>
      <point x="276" y="195"/>
      <point x="227" y="195" type="curve" smooth="yes"/>
      <point x="159" y="195"/>
      <point x="103" y="238"/>
      <point x="103" y="323" type="curve" smooth="yes"/>
      <point x="103" y="342"/>
      <point x="104" y="369"/>
      <point x="113" y="403" type="curve"/>
      <point x="52" y="413" type="line"/>
      <point x="37" y="365"/>
      <point x="30" y="307"/>
      <point x="30" y="258" type="curve" smooth="yes"/>
      <point x="30" y="94"/>
      <point x="129" y="32"/>
      <point x="238" y="32" type="curve" smooth="yes"/>
      <point x="311" y="32"/>
      <point x="374" y="54"/>
      <point x="433" y="54" type="curve" smooth="yes"/>
      <point x="477" y="54"/>
      <point x="517" y="42"/>
      <point x="553" y="-4" type="curve"/>
    </contour>
  </outline>
</glyph>
<glyph name="o-beng" format="2">
  <advance width="740"/>
  <unicode hex="0993"/>
  <anchor x="580" y="-21" name="bottom"/>
  <anchor x="645" y="0" name="bottom.rakaar"/>
  <anchor x="570" y="5" name="bottom.rvocalic"/>
  <anchor x="508" y="-4" name="bottom.virama"/>
  <anchor x="498" y="493" name="top"/>
  <anchor x="501" y="493" name="topright"/>
  <outline>
    <contour>
      <point x="457" y="14" type="curve" smooth="yes"/>
      <point x="602" y="14"/>
      <point x="705" y="91"/>
      <point x="705" y="215" type="curve" smooth="yes"/>
      <point x="705" y="350"/>
      <point x="562" y="436"/>
      <point x="499" y="436" type="curve" smooth="yes"/>
      <point x="447" y="436"/>
      <point x="409" y="397"/>
      <point x="409" y="339" type="curve" smooth="yes"/>
      <point x="409" y="284"/>
      <point x="447" y="246"/>
      <point x="505" y="246" type="curve" smooth="yes"/>
      <point x="596" y="246"/>
      <point x="674" y="343"/>
      <point x="674" y="455" type="curve" smooth="yes"/>
      <point x="674" y="554"/>
      <point x="598" y="629"/>
      <point x="464" y="629" type="curve" smooth="yes"/>
      <point x="307" y="629"/>
      <point x="185" y="537"/>
      <point x="185" y="417" type="curve" smooth="yes"/>
      <point x="185" y="342"/>
      <point x="233" y="300"/>
      <point x="297" y="300" type="curve" smooth="yes"/>
      <point x="365" y="300"/>
      <point x="402" y="342"/>
      <point x="402" y="399" type="curve" smooth="yes"/>
      <point x="402" y="453"/>
      <point x="372" y="476"/>
      <point x="330" y="476" type="curve" smooth="yes"/>
      <point x="294" y="476"/>
      <point x="274" y="456"/>
      <point x="269" y="440" type="curve"/>
      <point x="369" y="406" type="line"/>
      <point x="365" y="482"/>
      <point x="442" y="542"/>
      <point x="509" y="542" type="curve" smooth="yes"/>
      <point x="549" y="542"/>
      <point x="562" y="525"/>
      <point x="562" y="504" type="curve" smooth="yes"/>
      <point x="562" y="470"/>
      <point x="536" y="423"/>
      <point x="486" y="411" type="curve"/>
      <point x="509" y="335" type="line"/>
      <point x="556" y="337"/>
      <point x="614" y="313"/>
      <point x="614" y="260" type="curve" smooth="yes"/>
      <point x="614" y="192"/>
      <point x="546" y="162"/>
      <point x="452" y="162" type="curve" smooth="yes"/>
      <point x="275" y="162"/>
      <point x="174" y="242"/>
      <point x="78" y="520" type="curve"/>
      <point x="13" y="504" type="line"/>
      <point x="91" y="175"/>
      <point x="228" y="14"/>
    </contour>
  </outline>
</glyph>
<glyph name="au-beng" format="2">
  <advance width="826"/>
  <unicode hex="0994"/>
  <anchor x="612" y="-16" name="bottom"/>
  <anchor x="679" y="-1" name="bottom.rakaar"/>
  <anchor x="599" y="12" name="bottom.rvocalic"/>
  <anchor x="534" y="-1" name="bottom.virama"/>
  <anchor x="643" y="606" name="top"/>
  <anchor x="580" y="596" name="topright"/>
  <outline>
    <contour>
      <point x="633" y="300" type="line"/>
      <point x="716" y="376"/>
      <point x="771" y="451"/>
      <point x="771" y="561" type="curve" smooth="yes"/>
      <point x="771" y="768"/>
      <point x="609" y="790"/>
      <point x="466" y="810" type="curve" smooth="yes"/>
      <point x="353" y="826"/>
      <point x="253" y="840"/>
      <point x="253" y="933" type="curve" smooth="yes"/>
      <point x="253" y="962"/>
      <point x="261" y="995"/>
      <point x="276" y="1025" type="curve"/>
      <point x="206" y="1047" type="line"/>
      <point x="182" y="1000"/>
      <point x="167" y="955"/>
      <point x="167" y="894" type="curve" smooth="yes"/>
      <point x="167" y="733"/>
      <point x="317" y="707"/>
      <point x="457" y="690" type="curve" smooth="yes"/>
      <point x="581" y="675"/>
      <point x="695" y="659"/>
      <point x="695" y="545" type="curve" smooth="yes"/>
      <point x="695" y="482"/>
      <point x="672" y="441"/>
      <point x="606" y="392" type="curve"/>
    </contour>
    <contour>
      <point x="457" y="14" type="curve" smooth="yes"/>
      <point x="602" y="14"/>
      <point x="705" y="91"/>
      <point x="705" y="215" type="curve" smooth="yes"/>
      <point x="705" y="350"/>
      <point x="562" y="436"/>
      <point x="499" y="436" type="curve" smooth="yes"/>
      <point x="447" y="436"/>
      <point x="409" y="397"/>
      <point x="409" y="339" type="curve" smooth="yes"/>
      <point x="409" y="284"/>
      <point x="447" y="246"/>
      <point x="505" y="246" type="curve" smooth="yes"/>
      <point x="596" y="246"/>
      <point x="674" y="343"/>
      <point x="674" y="455" type="curve" smooth="yes"/>
      <point x="674" y="554"/>
      <point x="598" y="629"/>
      <point x="464" y="629" type="curve" smooth="yes"/>
      <point x="307" y="629"/>
      <point x="185" y="537"/>
      <point x="185" y="417" type="curve" smooth="yes"/>
      <point x="185" y="342"/>
      <point x="233" y="300"/>
      <point x="297" y="300" type="curve" smooth="yes"/>
      <point x="365" y="300"/>
      <point x="402" y="342"/>
      <point x="402" y="399" type="curve" smooth="yes"/>
      <point x="402" y="453"/>
      <point x="372" y="476"/>
      <point x="330" y="476" type="curve" smooth="yes"/>
      <point x="294" y="476"/>
      <point x="274" y="456"/>
      <point x="269" y="440" type="curve"/>
      <point x="369" y="406" type="line"/>
      <point x="365" y="482"/>
      <point x="442" y="542"/>
      <point x="509" y="542" type="curve" smooth="yes"/>
      <point x="549" y="542"/>
      <point x="562" y="525"/>
      <point x="562" y="504" type="curve" smooth="yes"/>
      <point x="562" y="470"/>
      <point x="536" y="423"/>
      <point x="486" y="411" type="curve"/>
      <point x="509" y="335" type="line"/>
      <point x="556" y="337"/>
      <point x="614" y="313"/>
      <point x="614" y="260" type="curve" smooth="yes"/>
      <point x="614" y="192"/>
      <point x="546" y="162"/>
      <point x="452" y="162" type="curve" smooth="yes"/>
      <point x="275" y="162"/>
      <point x="174" y="242"/>
      <point x="78" y="520" type="curve"/>
      <point x="13" y="504" type="line"/>
      <point x="91" y="175"/>
      <point x="228" y="14"/>
    </contour>
  </outline>
</glyph>
<glyph name="ka-beng" format="2">
  <advance width="773"/>
  <unicode hex="0995"/>
  <anchor x="481" y="37" name="bottom"/>
  <anchor x="491" y="-46" name="bottom.rakaar"/>
  <anchor x="491" y="11" name="bottom.rvocalic"/>
  <anchor x="491" y="-34" name="bottom.virama"/>
  <anchor x="234" y="23" name="nukta"/>
  <anchor x="456" y="592" name="top"/>
  <anchor x="457" y="572" name="topright"/>
  <outline>
    <contour>
      <point x="480" y="-32" type="line"/>
      <point x="491" y="-29" type="line"/>
      <point x="491" y="379" type="line"/>
      <point x="473" y="353" type="line"/>
      <point x="480" y="355"/>
      <point x="487" y="356"/>
      <point x="494" y="356" type="curve" smooth="yes"/>
      <point x="600" y="356"/>
      <point x="687" y="305"/>
      <point x="687" y="241" type="curve" smooth="yes"/>
      <point x="687" y="226"/>
      <point x="684" y="214"/>
      <point x="675" y="201" type="curve"/>
      <point x="693" y="202" type="line"/>
      <point x="690" y="250"/>
      <point x="660" y="276"/>
      <point x="609" y="276" type="curve" smooth="yes"/>
      <point x="559" y="276"/>
      <point x="519" y="244"/>
      <point x="519" y="190" type="curve" smooth="yes"/>
      <point x="519" y="132"/>
      <point x="556" y="91"/>
      <point x="619" y="91" type="curve" smooth="yes"/>
      <point x="696" y="91"/>
      <point x="749" y="147"/>
      <point x="749" y="253" type="curve" smooth="yes"/>
      <point x="749" y="394"/>
      <point x="646" y="496"/>
      <point x="476" y="511" type="curve"/>
      <point x="491" y="485" type="line"/>
      <point x="491" y="536" type="line"/>
      <point x="812" y="536" type="line"/>
      <point x="765" y="622" type="line"/>
      <point x="-39" y="622" type="line"/>
      <point x="8" y="536" type="line"/>
      <point x="376" y="536" type="line"/>
      <point x="376" y="447" type="line"/>
      <point x="389" y="514" type="line"/>
      <point x="251" y="484"/>
      <point x="110" y="422"/>
      <point x="3" y="354" type="curve"/>
      <point x="68" y="182" type="line"/>
      <point x="208" y="167"/>
      <point x="322" y="116"/>
      <point x="394" y="15" type="curve"/>
    </contour>
    <contour>
      <point x="376" y="88" type="line"/>
      <point x="395" y="112" type="line"/>
      <point x="347" y="206"/>
      <point x="260" y="263"/>
      <point x="177" y="284" type="curve"/>
      <point x="182" y="262" type="line"/>
      <point x="245" y="299"/>
      <point x="330" y="337"/>
      <point x="396" y="353" type="curve"/>
      <point x="376" y="401" type="line"/>
    </contour>
  </outline>
</glyph>
<glyph name="ga-beng" format="2">
  <advance width="683"/>
  <unicode hex="0997"/>
  <anchor x="579" y="62" name="bottom"/>
  <anchor x="603" y="-24" name="bottom.rakaar"/>
  <anchor x="603" y="-3" name="bottom.rvocalic"/>
  <anchor x="563" y="10" name="bottom.virama"/>
  <anchor x="563" y="582" name="top"/>
  <anchor x="553" y="572" name="topright"/>
  <outline>
    <contour>
      <point x="592" y="-43" type="line"/>
      <point x="603" y="-40" type="line"/>
      <point x="603" y="536" type="line"/>
      <point x="722" y="536" type="line"/>
      <point x="674" y="622" type="line"/>
      <point x="591" y="622" type="line"/>
      <point x="581" y="686" type="line"/>
      <point x="497" y="724" type="line"/>
      <point x="488" y="720" type="line"/>
      <point x="488" y="617" type="line" smooth="yes"/>
      <point x="488" y="549"/>
      <point x="491" y="492"/>
      <point x="499" y="416" type="curve"/>
      <point x="512" y="417" type="line"/>
      <point x="454" y="570"/>
      <point x="360" y="637"/>
      <point x="262" y="637" type="curve" smooth="yes"/>
      <point x="151" y="637"/>
      <point x="57" y="565"/>
      <point x="-10" y="441" type="curve"/>
      <point x="104" y="329" type="line"/>
      <point x="140" y="355"/>
      <point x="185" y="386"/>
      <point x="226" y="386" type="curve" smooth="yes"/>
      <point x="254" y="386"/>
      <point x="274" y="374"/>
      <point x="274" y="344" type="curve" smooth="yes"/>
      <point x="274" y="305"/>
      <point x="225" y="274"/>
      <point x="123" y="250" type="curve"/>
      <point x="211" y="100" type="line"/>
      <point x="357" y="156"/>
      <point x="405" y="245"/>
      <point x="405" y="327" type="curve" smooth="yes"/>
      <point x="405" y="406"/>
      <point x="357" y="468"/>
      <point x="266" y="468" type="curve" smooth="yes"/>
      <point x="216" y="468"/>
      <point x="177" y="452"/>
      <point x="147" y="433" type="curve"/>
      <point x="165" y="400" type="line"/>
      <point x="187" y="447"/>
      <point x="245" y="515"/>
      <point x="309" y="515" type="curve" smooth="yes"/>
      <point x="371" y="515"/>
      <point x="440" y="467"/>
      <point x="502" y="317" type="curve"/>
      <point x="488" y="386" type="line"/>
      <point x="488" y="-1" type="line"/>
    </contour>
  </outline>
</glyph>
<glyph name="ca-beng" format="2">
  <advance width="573"/>
  <unicode hex="099A"/>
  <anchor x="380" y="-10" name="bottom"/>
  <anchor x="470" y="0" name="bottom.rakaar"/>
  <anchor x="407" y="-33" name="bottom.rvocalic"/>
  <anchor x="332" y="20" name="bottom.virama"/>
  <anchor x="160" y="592" name="top"/>
  <anchor x="161" y="572" name="topright"/>
  <outline>
    <contour>
      <point x="259" y="-12" type="curve" smooth="yes"/>
      <point x="439" y="-12"/>
      <point x="531" y="182"/>
      <point x="531" y="292" type="curve" smooth="yes"/>
      <point x="531" y="364"/>
      <point x="468" y="409"/>
      <point x="436" y="424" type="curve"/>
      <point x="347" y="425"/>
      <point x="247" y="456"/>
      <point x="189" y="547" type="curve"/>
      <point x="186" y="461" type="line"/>
      <point x="223" y="366"/>
      <point x="313" y="289"/>
      <point x="437" y="284" type="curve"/>
      <point x="374" y="343" type="line"/>
      <point x="366" y="199"/>
      <point x="289" y="111"/>
      <point x="236" y="111" type="curve" smooth="yes"/>
      <point x="211" y="111"/>
      <point x="195" y="125"/>
      <point x="195" y="150" type="curve" smooth="yes"/>
      <point x="195" y="536" type="line"/>
      <point x="612" y="536" type="line"/>
      <point x="566" y="622" type="line"/>
      <point x="-39" y="622" type="line"/>
      <point x="10" y="536" type="line"/>
      <point x="80" y="536" type="line"/>
      <point x="80" y="150" type="line" smooth="yes"/>
      <point x="80" y="60"/>
      <point x="172" y="-12"/>
    </contour>
  </outline>
</glyph>
<glyph name="jha-beng" format="2">
  <advance width="762"/>
  <unicode hex="099D"/>
  <anchor x="481" y="37" name="bottom"/>
  <anchor x="491" y="98" name="bottom.rakaar"/>
  <anchor x="491" y="9" name="bottom.rvocalic"/>
  <anchor x="478" y="20" name="bottom.virama"/>
  <anchor x="436" y="592" name="top"/>
  <anchor x="501" y="592" name="topleft"/>
  <anchor x="437" y="572" name="topright"/>
  <outline>
    <contour>
      <point x="479" y="-32" type="line"/>
      <point x="491" y="-29" type="line"/>
      <point x="491" y="622" type="line"/>
      <point x="-39" y="622" type="line"/>
      <point x="8" y="536" type="line"/>
      <point x="376" y="536" type="line"/>
      <point x="376" y="445" type="line"/>
      <point x="389" y="514" type="line"/>
      <point x="253" y="485"/>
      <point x="113" y="423"/>
      <point x="3" y="354" type="curve"/>
      <point x="68" y="182" type="line"/>
      <point x="204" y="169"/>
      <point x="326" y="113"/>
      <point x="394" y="15" type="curve"/>
    </contour>
    <contour>
      <point x="376" y="88" type="line"/>
      <point x="395" y="112" type="line"/>
      <point x="341" y="218"/>
      <point x="243" y="267"/>
      <point x="177" y="284" type="curve"/>
      <point x="182" y="262" type="line"/>
      <point x="247" y="300"/>
      <point x="331" y="337"/>
      <point x="396" y="353" type="curve"/>
      <point x="376" y="400" type="line"/>
    </contour>
    <contour>
      <point x="671" y="38" type="line"/>
      <point x="682" y="41" type="line"/>
      <point x="682" y="536" type="line"/>
      <point x="801" y="536" type="line"/>
      <point x="753" y="622" type="line"/>
      <point x="670" y="622" type="line"/>
      <point x="660" y="686" type="line"/>
      <point x="576" y="724" type="line"/>
      <point x="567" y="720" type="line"/>
      <point x="567" y="157" type="line"/>
      <point x="586" y="175" type="line"/>
      <point x="548" y="272"/>
      <point x="507" y="307"/>
      <point x="444" y="340" type="curve"/>
      <point x="433" y="226" type="line"/>
      <point x="504" y="195"/>
      <point x="548" y="159"/>
      <point x="585" y="85" type="curve"/>
    </contour>
  </outline>
</glyph>
<glyph name="nya-beng" format="2">
  <advance width="986"/>
  <unicode hex="099E"/>
  <anchor x="624" y="28" name="bottom"/>
  <anchor x="633" y="91" name="bottom.rakaar"/>
  <anchor x="633" y="2" name="bottom.rvocalic"/>
  <anchor x="613" y="11" name="bottom.virama"/>
  <anchor x="537" y="592" name="top"/>
  <anchor x="538" y="572" name="topright"/>
  <anchor x="493" y="0" name="vedic"/>
  <outline>
    <contour>
      <point x="790" y="21" type="curve" smooth="yes"/>
      <point x="892" y="21"/>
      <point x="941" y="92"/>
      <point x="941" y="175" type="curve" smooth="yes"/>
      <point x="941" y="235"/>
      <point x="915" y="297"/>
      <point x="860" y="338" type="curve"/>
      <point x="883" y="286" type="line"/>
      <point x="913" y="315"/>
      <point x="940" y="367"/>
      <point x="940" y="439" type="curve" smooth="yes"/>
      <point x="940" y="535"/>
      <point x="887" y="611"/>
      <point x="798" y="611" type="curve" smooth="yes"/>
      <point x="669" y="611"/>
      <point x="600" y="462"/>
      <point x="591" y="371" type="curve"/>
      <point x="591" y="263" type="line"/>
      <point x="610" y="131"/>
      <point x="678" y="21"/>
    </contour>
    <contour>
      <point x="778" y="154" type="curve" smooth="yes"/>
      <point x="704" y="154"/>
      <point x="635" y="220"/>
      <point x="635" y="312" type="curve" smooth="yes"/>
      <point x="635" y="400"/>
      <point x="701" y="491"/>
      <point x="789" y="491" type="curve" smooth="yes"/>
      <point x="819" y="491"/>
      <point x="841" y="476"/>
      <point x="841" y="445" type="curve" smooth="yes"/>
      <point x="841" y="417"/>
      <point x="806" y="383"/>
      <point x="769" y="368" type="curve"/>
      <point x="832" y="361" type="line"/>
      <point x="812" y="379"/>
      <point x="790" y="400"/>
      <point x="752" y="400" type="curve" smooth="yes"/>
      <point x="703" y="400"/>
      <point x="672" y="365"/>
      <point x="672" y="313" type="curve" smooth="yes"/>
      <point x="672" y="258"/>
      <point x="708" y="225"/>
      <point x="757" y="225" type="curve" smooth="yes"/>
      <point x="800" y="225"/>
      <point x="833" y="242"/>
      <point x="862" y="272" type="curve"/>
      <point x="807" y="305" type="line"/>
      <point x="826" y="286"/>
      <point x="856" y="264"/>
      <point x="856" y="223" type="curve" smooth="yes"/>
      <point x="856" y="177"/>
      <point x="826" y="154"/>
    </contour>
    <component base="e-beng"/>
  </outline>
</glyph>
<glyph name="tta-beng" format="2">
  <advance width="583"/>
  <unicode hex="099F"/>
  <anchor x="384" y="-10" name="bottom"/>
  <anchor x="470" y="0" name="bottom.rakaar"/>
  <anchor x="387" y="-3" name="bottom.rvocalic"/>
  <anchor x="332" y="20" name="bottom.virama"/>
  <anchor x="310" y="690" name="top"/>
  <anchor x="220" y="632" name="topright"/>
  <anchor x="291" y="0" name="vedic"/>
  <anchor x="259" y="-121" name="nukta"/>
  <outline>
    <contour>
      <point x="427" y="588" type="curve"/>
      <point x="499" y="588" type="line"/>
      <point x="496" y="737"/>
      <point x="433" y="831"/>
      <point x="327" y="831" type="curve" smooth="yes"/>
      <point x="263" y="831"/>
      <point x="234" y="822"/>
      <point x="175" y="822" type="curve" smooth="yes"/>
      <point x="103" y="822"/>
      <point x="71" y="847"/>
      <point x="71" y="897" type="curve" smooth="yes"/>
      <point x="71" y="910"/>
      <point x="72" y="926"/>
      <point x="74" y="938" type="curve"/>
      <point x="16" y="945" type="line"/>
      <point x="10" y="919"/>
      <point x="6" y="888"/>
      <point x="6" y="859" type="curve" smooth="yes"/>
      <point x="6" y="756"/>
      <point x="68" y="682"/>
      <point x="191" y="682" type="curve" smooth="yes"/>
      <point x="257" y="682"/>
      <point x="299" y="694"/>
      <point x="345" y="694" type="curve" smooth="yes"/>
      <point x="396" y="694"/>
      <point x="428" y="676"/>
    </contour>
    <component base="ddha-beng"/>
  </outline>
</glyph>
<glyph name="ttha-beng" format="2">
  <advance width="562"/>
  <unicode hex="09A0"/>
  <anchor x="360" y="-50" name="bottom"/>
  <anchor x="502" y="-24" name="bottom.rakaar"/>
  <anchor x="410" y="-57" name="bottom.rvocalic"/>
  <anchor x="327" y="-20" name="bottom.virama"/>
  <anchor x="482" y="571" name="top"/>
  <anchor x="443" y="621" name="topleft"/>
  <anchor x="360" y="572" name="topright"/>
  <outline>
    <contour>
      <point x="297" y="-54" type="curve" smooth="yes"/>
      <point x="438" y="-54"/>
      <point x="530" y="26"/>
      <point x="530" y="186" type="curve" smooth="yes"/>
      <point x="530" y="330"/>
      <point x="421" y="445"/>
      <point x="327" y="536" type="curve"/>
      <point x="601" y="536" type="line"/>
      <point x="553" y="622" type="line"/>
      <point x="253" y="622" type="line"/>
      <point x="214" y="657"/>
      <point x="199" y="683"/>
      <point x="199" y="712" type="curve" smooth="yes"/>
      <point x="199" y="751"/>
      <point x="234" y="793"/>
      <point x="284" y="814" type="curve"/>
      <point x="177" y="896" type="line"/>
      <point x="109" y="864"/>
      <point x="64" y="809"/>
      <point x="64" y="758" type="curve" smooth="yes"/>
      <point x="64" y="697"/>
      <point x="104" y="664"/>
      <point x="156" y="622" type="curve"/>
      <point x="-39" y="622" type="line"/>
      <point x="8" y="536" type="line"/>
      <point x="209" y="536" type="line"/>
      <point x="218" y="517"/>
      <point x="224" y="490"/>
      <point x="224" y="458" type="curve" smooth="yes"/>
      <point x="224" y="346"/>
      <point x="139" y="271"/>
      <point x="9" y="248" type="curve"/>
      <point x="18" y="81"/>
      <point x="117" y="-54"/>
    </contour>
    <contour>
      <point x="265" y="60" type="curve" smooth="yes"/>
      <point x="202" y="60"/>
      <point x="161" y="116"/>
      <point x="161" y="165" type="curve"/>
      <point x="143" y="129" type="line"/>
      <point x="257" y="161"/>
      <point x="323" y="231"/>
      <point x="323" y="352" type="curve" smooth="yes"/>
      <point x="323" y="413"/>
      <point x="297" y="478"/>
      <point x="252" y="537" type="curve"/>
      <point x="238" y="536" type="line"/>
      <point x="332" y="437"/>
      <point x="379" y="347"/>
      <point x="379" y="220" type="curve" smooth="yes"/>
      <point x="379" y="112"/>
      <point x="336" y="60"/>
    </contour>
  </outline>
</glyph>
<glyph name="dda-beng" format="2">
  <advance width="652"/>
  <unicode hex="09A1"/>
  <anchor x="475" y="-26" name="bottom"/>
  <anchor x="582" y="-11" name="bottom.rakaar"/>
  <anchor x="482" y="-29" name="bottom.rvocalic"/>
  <anchor x="437" y="-11" name="bottom.virama"/>
  <anchor x="349" y="-142" name="nukta"/>
  <anchor x="308" y="592" name="top"/>
  <anchor x="309" y="572" name="topright"/>
  <outline>
    <contour>
      <point x="381" y="-27" type="curve" smooth="yes"/>
      <point x="552" y="-27"/>
      <point x="634" y="80"/>
      <point x="634" y="234" type="curve" smooth="yes"/>
      <point x="634" y="347"/>
      <point x="585" y="433"/>
      <point x="525" y="486" type="curve"/>
      <point x="464" y="404"/>
      <point x="409" y="369"/>
      <point x="378" y="369" type="curve" smooth="yes"/>
      <point x="361" y="369"/>
      <point x="343" y="375"/>
      <point x="343" y="401" type="curve" smooth="yes"/>
      <point x="343" y="536" type="line"/>
      <point x="691" y="536" type="line"/>
      <point x="642" y="622" type="line"/>
      <point x="-39" y="622" type="line"/>
      <point x="10" y="536" type="line"/>
      <point x="228" y="536" type="line"/>
      <point x="228" y="370" type="line" smooth="yes"/>
      <point x="228" y="314"/>
      <point x="248" y="282"/>
      <point x="277" y="254" type="curve" smooth="yes"/>
      <point x="307" y="225"/>
      <point x="344" y="208"/>
      <point x="391" y="208" type="curve" smooth="yes"/>
      <point x="453" y="208"/>
      <point x="535" y="259"/>
      <point x="586" y="336" type="curve"/>
      <point x="512" y="334" type="line"/>
      <point x="534" y="313"/>
      <point x="551" y="284"/>
      <point x="551" y="255" type="curve" smooth="yes"/>
      <point x="551" y="188"/>
      <point x="490" y="130"/>
      <point x="379" y="130" type="curve" smooth="yes"/>
      <point x="195" y="130"/>
      <point x="123" y="265"/>
      <point x="83" y="476" type="curve"/>
      <point x="13" y="462" type="line"/>
      <point x="53" y="153"/>
      <point x="160" y="-27"/>
    </contour>
  </outline>
</glyph>
<glyph name="nna-beng" format="2">
  <advance width="670"/>
  <unicode hex="09A3"/>
  <anchor x="566" y="62" name="bottom"/>
  <anchor x="590" y="-24" name="bottom.rakaar"/>
  <anchor x="590" y="-3" name="bottom.rvocalic"/>
  <anchor x="550" y="10" name="bottom.virama"/>
  <anchor x="550" y="582" name="top"/>
  <anchor x="540" y="572" name="topright"/>
  <outline>
    <contour>
      <point x="579" y="-43" type="line"/>
      <point x="590" y="-40" type="line"/>
      <point x="590" y="536" type="line"/>
      <point x="709" y="536" type="line"/>
      <point x="661" y="622" type="line"/>
      <point x="578" y="622" type="line"/>
      <point x="568" y="686" type="line"/>
      <point x="484" y="724" type="line"/>
      <point x="475" y="720" type="line"/>
      <point x="475" y="617" type="line" smooth="yes"/>
      <point x="475" y="539"/>
      <point x="480" y="453"/>
      <point x="487" y="376" type="curve"/>
      <point x="499" y="386" type="line"/>
      <point x="429" y="528"/>
      <point x="346" y="631"/>
      <point x="221" y="631" type="curve" smooth="yes"/>
      <point x="121" y="631"/>
      <point x="30" y="559"/>
      <point x="30" y="419" type="curve" smooth="yes"/>
      <point x="30" y="257"/>
      <point x="142" y="189"/>
      <point x="243" y="189" type="curve" smooth="yes"/>
      <point x="327" y="189"/>
      <point x="372" y="238"/>
      <point x="372" y="308" type="curve" smooth="yes"/>
      <point x="372" y="372"/>
      <point x="332" y="424"/>
      <point x="263" y="424" type="curve" smooth="yes"/>
      <point x="206" y="424"/>
      <point x="167" y="384"/>
      <point x="167" y="328" type="curve" smooth="yes"/>
      <point x="167" y="305"/>
      <point x="171" y="283"/>
      <point x="179" y="270" type="curve"/>
      <point x="241" y="316" type="line"/>
      <point x="227" y="313"/>
      <point x="212" y="312"/>
      <point x="199" y="312" type="curve" smooth="yes"/>
      <point x="168" y="312"/>
      <point x="138" y="335"/>
      <point x="138" y="382" type="curve" smooth="yes"/>
      <point x="138" y="446"/>
      <point x="188" y="484"/>
      <point x="257" y="484" type="curve" smooth="yes"/>
      <point x="335" y="484"/>
      <point x="427" y="421"/>
      <point x="489" y="277" type="curve"/>
      <point x="475" y="346" type="line"/>
      <point x="475" y="-1" type="line"/>
    </contour>
  </outline>
</glyph>
<glyph name="ta-beng" format="2">
  <advance width="655"/>
  <unicode hex="09A4"/>
  <anchor x="500" y="-15" name="bottom"/>
  <anchor x="580" y="0" name="bottom.rakaar"/>
  <anchor x="510" y="-19" name="bottom.rvocalic"/>
  <anchor x="435" y="0" name="bottom.virama"/>
  <anchor x="397" y="592" name="top"/>
  <anchor x="398" y="572" name="topright"/>
  <outline>
    <contour>
      <point x="396" y="-15" type="curve" smooth="yes"/>
      <point x="523" y="-15"/>
      <point x="641" y="53"/>
      <point x="641" y="234" type="curve" smooth="yes"/>
      <point x="641" y="389"/>
      <point x="539" y="502"/>
      <point x="372" y="502" type="curve" smooth="yes"/>
      <point x="265" y="502"/>
      <point x="211" y="442"/>
      <point x="211" y="358" type="curve" smooth="yes"/>
      <point x="211" y="282"/>
      <point x="260" y="221"/>
      <point x="347" y="221" type="curve" smooth="yes"/>
      <point x="428" y="221"/>
      <point x="468" y="271"/>
      <point x="468" y="337" type="curve" smooth="yes"/>
      <point x="468" y="382"/>
      <point x="441" y="418"/>
      <point x="422" y="435" type="curve"/>
      <point x="376" y="340" type="line"/>
      <point x="389" y="348"/>
      <point x="414" y="360"/>
      <point x="443" y="360" type="curve" smooth="yes"/>
      <point x="506" y="360"/>
      <point x="547" y="332"/>
      <point x="547" y="268" type="curve" smooth="yes"/>
      <point x="547" y="192"/>
      <point x="483" y="145"/>
      <point x="387" y="145" type="curve" smooth="yes"/>
      <point x="245" y="145"/>
      <point x="129" y="232"/>
      <point x="57" y="484" type="curve"/>
      <point x="-10" y="468" type="line"/>
      <point x="65" y="145"/>
      <point x="183" y="-15"/>
    </contour>
    <contour>
      <point x="8" y="536" type="line"/>
      <point x="694" y="536" type="line"/>
      <point x="645" y="622" type="line"/>
      <point x="-39" y="622" type="line"/>
    </contour>
  </outline>
</glyph>
<glyph name="tha-beng" format="2">
  <advance width="650"/>
  <unicode hex="09A5"/>
  <anchor x="561" y="37" name="bottom"/>
  <anchor x="570" y="100" name="bottom.rakaar"/>
  <anchor x="570" y="11" name="bottom.rvocalic"/>
  <anchor x="550" y="20" name="bottom.virama"/>
  <anchor x="530" y="582" name="top"/>
  <anchor x="520" y="572" name="topright"/>
  <outline>
    <contour>
      <point x="559" y="-32" type="line"/>
      <point x="570" y="-29" type="line"/>
      <point x="570" y="536" type="line"/>
      <point x="689" y="536" type="line"/>
      <point x="641" y="622" type="line"/>
      <point x="558" y="622" type="line"/>
      <point x="548" y="686" type="line"/>
      <point x="464" y="724" type="line"/>
      <point x="455" y="720" type="line"/>
      <point x="455" y="80" type="line"/>
      <point x="474" y="97" type="line"/>
      <point x="404" y="254"/>
      <point x="251" y="280"/>
      <point x="154" y="303" type="curve"/>
      <point x="208" y="238" type="line"/>
      <point x="359" y="245"/>
      <point x="417" y="320"/>
      <point x="417" y="420" type="curve" smooth="yes"/>
      <point x="417" y="544"/>
      <point x="316" y="625"/>
      <point x="199" y="625" type="curve" smooth="yes"/>
      <point x="95" y="625"/>
      <point x="30" y="575"/>
      <point x="30" y="498" type="curve" smooth="yes"/>
      <point x="30" y="424"/>
      <point x="74" y="388"/>
      <point x="133" y="388" type="curve" smooth="yes"/>
      <point x="189" y="388"/>
      <point x="223" y="421"/>
      <point x="223" y="471" type="curve" smooth="yes"/>
      <point x="223" y="508"/>
      <point x="208" y="530"/>
      <point x="179" y="544" type="curve"/>
      <point x="183" y="489" type="line"/>
      <point x="199" y="510"/>
      <point x="214" y="520"/>
      <point x="239" y="520" type="curve" smooth="yes"/>
      <point x="279" y="520"/>
      <point x="297" y="490"/>
      <point x="297" y="456" type="curve" smooth="yes"/>
      <point x="297" y="366"/>
      <point x="196" y="343"/>
      <point x="75" y="344" type="curve"/>
      <point x="135" y="174" type="line"/>
      <point x="268" y="164"/>
      <point x="409" y="115"/>
      <point x="473" y="14" type="curve"/>
    </contour>
  </outline>
</glyph>
<glyph name="da-beng" format="2">
  <advance width="581"/>
  <unicode hex="09A6"/>
  <anchor x="491" y="62" name="bottom"/>
  <anchor x="510" y="50" name="bottom.rakaar"/>
  <anchor x="511" y="-51" name="bottom.rvocalic"/>
  <anchor x="495" y="-45" name="bottom.virama"/>
  <anchor x="145" y="592" name="top"/>
  <anchor x="146" y="572" name="topright"/>
  <outline>
    <contour>
      <point x="451" y="-95" type="curve"/>
      <point x="511" y="-72" type="line"/>
      <point x="487" y="12"/>
      <point x="481" y="62"/>
      <point x="481" y="127" type="curve" smooth="yes"/>
      <point x="481" y="210"/>
      <point x="507" y="308"/>
      <point x="552" y="383" type="curve"/>
      <point x="416" y="495" type="line"/>
      <point x="322" y="445"/>
      <point x="216" y="370"/>
      <point x="153" y="300" type="curve"/>
      <point x="180" y="246" type="line"/>
      <point x="180" y="536" type="line"/>
      <point x="620" y="536" type="line"/>
      <point x="573" y="622" type="line"/>
      <point x="-39" y="622" type="line"/>
      <point x="9" y="536" type="line"/>
      <point x="65" y="536" type="line"/>
      <point x="65" y="190" type="line"/>
      <point x="181" y="102" type="line"/>
      <point x="271" y="196"/>
      <point x="368" y="283"/>
      <point x="466" y="348" type="curve"/>
      <point x="414" y="386" type="line"/>
      <point x="389" y="316"/>
      <point x="378" y="247"/>
      <point x="378" y="178" type="curve" smooth="yes"/>
      <point x="378" y="70"/>
      <point x="415" y="-25"/>
    </contour>
  </outline>
</glyph>
<glyph name="na-beng" format="2">
  <advance width="597"/>
  <unicode hex="09A8"/>
  <anchor x="503" y="68" name="bottom"/>
  <anchor x="517" y="100" name="bottom.rakaar"/>
  <anchor x="517" y="1" name="bottom.rvocalic"/>
  <anchor x="497" y="20" name="bottom.virama"/>
  <anchor x="482" y="592" name="top"/>
  <anchor x="483" y="572" name="topright"/>
  <outline>
    <contour>
      <point x="506" y="-36" type="line"/>
      <point x="517" y="-33" type="line"/>
      <point x="517" y="536" type="line"/>
      <point x="636" y="536" type="line"/>
      <point x="589" y="622" type="line"/>
      <point x="-39" y="622" type="line"/>
      <point x="8" y="536" type="line"/>
      <point x="402" y="536" type="line"/>
      <point x="402" y="384" type="line" smooth="yes"/>
      <point x="402" y="322"/>
      <point x="410" y="206"/>
      <point x="416" y="161" type="curve"/>
      <point x="439" y="184" type="line"/>
      <point x="408" y="302"/>
      <point x="321" y="441"/>
      <point x="170" y="441" type="curve" smooth="yes"/>
      <point x="82" y="441"/>
      <point x="18" y="391"/>
      <point x="18" y="294" type="curve" smooth="yes"/>
      <point x="18" y="211"/>
      <point x="74" y="151"/>
      <point x="159" y="151" type="curve" smooth="yes"/>
      <point x="241" y="151"/>
      <point x="282" y="209"/>
      <point x="282" y="271" type="curve" smooth="yes"/>
      <point x="282" y="300"/>
      <point x="270" y="325"/>
      <point x="243" y="343" type="curve"/>
      <point x="206" y="253" type="line"/>
      <point x="217" y="259"/>
      <point x="242" y="267"/>
      <point x="260" y="267" type="curve" smooth="yes"/>
      <point x="363" y="267"/>
      <point x="410" y="111"/>
      <point x="429" y="20" type="curve"/>
    </contour>
  </outline>
</glyph>
<glyph name="pa-beng" format="2">
  <advance width="752"/>
  <unicode hex="09AA"/>
  <anchor x="648" y="62" name="bottom"/>
  <anchor x="672" y="-24" name="bottom.rakaar"/>
  <anchor x="672" y="-3" name="bottom.rvocalic"/>
  <anchor x="632" y="10" name="bottom.virama"/>
  <anchor x="632" y="582" name="top"/>
  <anchor x="622" y="572" name="topright"/>
  <outline>
    <contour>
      <point x="661" y="-43" type="line"/>
      <point x="672" y="-40" type="line"/>
      <point x="672" y="536" type="line"/>
      <point x="791" y="536" type="line"/>
      <point x="743" y="622" type="line"/>
      <point x="660" y="622" type="line"/>
      <point x="650" y="686" type="line"/>
      <point x="566" y="724" type="line"/>
      <point x="557" y="720" type="line"/>
      <point x="557" y="587" type="line" smooth="yes"/>
      <point x="557" y="534"/>
      <point x="562" y="470"/>
      <point x="568" y="393" type="curve"/>
      <point x="571" y="393" type="line"/>
      <point x="510" y="559"/>
      <point x="397" y="632"/>
      <point x="281" y="632" type="curve" smooth="yes"/>
      <point x="164" y="632"/>
      <point x="59" y="542"/>
      <point x="-10" y="408" type="curve"/>
      <point x="116" y="307" type="line"/>
      <point x="138" y="328"/>
      <point x="162" y="336"/>
      <point x="178" y="336" type="curve" smooth="yes"/>
      <point x="203" y="336"/>
      <point x="215" y="325"/>
      <point x="215" y="301" type="curve" smooth="yes"/>
      <point x="215" y="267"/>
      <point x="185" y="235"/>
      <point x="152" y="212" type="curve"/>
      <point x="265" y="94" type="line"/>
      <point x="530" y="366" type="line"/>
      <point x="428" y="483" type="line"/>
      <point x="257" y="305" type="line"/>
      <point x="269" y="291" type="line"/>
      <point x="279" y="315"/>
      <point x="289" y="334"/>
      <point x="289" y="366" type="curve" smooth="yes"/>
      <point x="289" y="408"/>
      <point x="259" y="431"/>
      <point x="220" y="431" type="curve" smooth="yes"/>
      <point x="189" y="431"/>
      <point x="158" y="418"/>
      <point x="141" y="399" type="curve"/>
      <point x="186" y="374" type="line"/>
      <point x="204" y="445"/>
      <point x="248" y="504"/>
      <point x="313" y="504" type="curve" smooth="yes"/>
      <point x="391" y="504"/>
      <point x="499" y="413"/>
      <point x="561" y="258" type="curve"/>
      <point x="557" y="353" type="line"/>
      <point x="557" y="-1" type="line"/>
    </contour>
  </outline>
</glyph>
<glyph name="ra-beng" format="2">
  <advance width="571"/>
  <unicode hex="09B0"/>
  <anchor x="481" y="37" name="bottom"/>
  <anchor x="492" y="100" name="bottom.rakaar"/>
  <anchor x="491" y="-18" name="bottom.rvocalic"/>
  <anchor x="472" y="20" name="bottom.virama"/>
  <anchor x="234" y="23" name="nukta"/>
  <anchor x="457" y="592" name="top"/>
  <anchor x="458" y="572" name="topright"/>
  <outline>
    <contour>
      <point x="480" y="-32" type="line"/>
      <point x="491" y="-29" type="line"/>
      <point x="491" y="536" type="line"/>
      <point x="610" y="536" type="line"/>
      <point x="562" y="622" type="line"/>
      <point x="-39" y="622" type="line"/>
      <point x="8" y="536" type="line"/>
      <point x="376" y="536" type="line"/>
      <point x="376" y="447" type="line"/>
      <point x="389" y="514" type="line"/>
      <point x="251" y="484"/>
      <point x="110" y="422"/>
      <point x="3" y="354" type="curve"/>
      <point x="68" y="182" type="line"/>
      <point x="208" y="167"/>
      <point x="322" y="116"/>
      <point x="394" y="15" type="curve"/>
    </contour>
    <contour>
      <point x="376" y="88" type="line"/>
      <point x="395" y="112" type="line"/>
      <point x="347" y="206"/>
      <point x="260" y="263"/>
      <point x="177" y="284" type="curve"/>
      <point x="182" y="262" type="line"/>
      <point x="245" y="299"/>
      <point x="330" y="337"/>
      <point x="396" y="353" type="curve"/>
      <point x="376" y="401" type="line"/>
    </contour>
    <contour>
      <point x="234" y="-60" type="curve" smooth="yes"/>
      <point x="279" y="-60"/>
      <point x="318" y="-28"/>
      <point x="318" y="23" type="curve" smooth="yes"/>
      <point x="318" y="73"/>
      <point x="280" y="107"/>
      <point x="234" y="107" type="curve" smooth="yes"/>
      <point x="187" y="107"/>
      <point x="149" y="73"/>
      <point x="149" y="23" type="curve" smooth="yes"/>
      <point x="149" y="-26"/>
      <point x="188" y="-60"/>
    </contour>
  </outline>
</glyph>
<glyph name="la-beng" format="2">
  <advance width="727"/>
  <unicode hex="09B2"/>
  <anchor x="623" y="62" name="bottom"/>
  <anchor x="647" y="-24" name="bottom.rakaar"/>
  <anchor x="647" y="-3" name="bottom.rvocalic"/>
  <anchor x="607" y="10" name="bottom.virama"/>
  <anchor x="612" y="592" name="top"/>
  <anchor x="613" y="572" name="topright"/>
  <outline>
    <contour>
      <point x="636" y="-43" type="line"/>
      <point x="647" y="-40" type="line"/>
      <point x="647" y="536" type="line"/>
      <point x="766" y="536" type="line"/>
      <point x="717" y="622" type="line"/>
      <point x="-39" y="622" type="line"/>
      <point x="9" y="536" type="line"/>
      <point x="532" y="536" type="line"/>
      <point x="532" y="450" type="line" smooth="yes"/>
      <point x="532" y="382"/>
      <point x="540" y="339"/>
      <point x="550" y="287" type="curve"/>
      <point x="562" y="288" type="line"/>
      <point x="522" y="402"/>
      <point x="480" y="488"/>
      <point x="408" y="488" type="curve" smooth="yes"/>
      <point x="357" y="488"/>
      <point x="316" y="426"/>
      <point x="326" y="333" type="curve"/>
      <point x="344" y="336" type="line"/>
      <point x="334" y="426"/>
      <point x="268" y="495"/>
      <point x="172" y="495" type="curve" smooth="yes"/>
      <point x="74" y="495"/>
      <point x="3" y="424"/>
      <point x="3" y="298" type="curve" smooth="yes"/>
      <point x="3" y="166"/>
      <point x="81" y="70"/>
      <point x="208" y="70" type="curve" smooth="yes"/>
      <point x="279" y="70"/>
      <point x="321" y="110"/>
      <point x="321" y="175" type="curve" smooth="yes"/>
      <point x="321" y="236"/>
      <point x="285" y="277"/>
      <point x="226" y="277" type="curve" smooth="yes"/>
      <point x="177" y="277"/>
      <point x="141" y="241"/>
      <point x="141" y="187" type="curve" smooth="yes"/>
      <point x="141" y="166"/>
      <point x="148" y="146"/>
      <point x="153" y="134" type="curve"/>
      <point x="206" y="165" type="line"/>
      <point x="194" y="163"/>
      <point x="180" y="162"/>
      <point x="170" y="162" type="curve" smooth="yes"/>
      <point x="141" y="162"/>
      <point x="117" y="188"/>
      <point x="117" y="235" type="curve" smooth="yes"/>
      <point x="117" y="293"/>
      <point x="152" y="330"/>
      <point x="219" y="330" type="curve" smooth="yes"/>
      <point x="284" y="330"/>
      <point x="337" y="299"/>
      <point x="361" y="233" type="curve"/>
      <point x="398" y="223" type="line"/>
      <point x="396" y="283"/>
      <point x="415" y="314"/>
      <point x="451" y="314" type="curve" smooth="yes"/>
      <point x="486" y="314"/>
      <point x="517" y="287"/>
      <point x="539" y="201" type="curve"/>
      <point x="532" y="273" type="line"/>
      <point x="532" y="-1" type="line"/>
    </contour>
  </outline>
</glyph>
<glyph name="sha-beng" format="2">
  <advance width="710"/>
  <unicode hex="09B6"/>
  <anchor x="606" y="62" name="bottom"/>
  <anchor x="630" y="-24" name="bottom.rakaar"/>
  <anchor x="630" y="-3" name="bottom.rvocalic"/>
  <anchor x="590" y="10" name="bottom.virama"/>
  <anchor x="590" y="582" name="top"/>
  <anchor x="580" y="572" name="topright"/>
  <outline>
    <contour>
      <point x="619" y="-43" type="line"/>
      <point x="630" y="-40" type="line"/>
      <point x="630" y="536" type="line"/>
      <point x="749" y="536" type="line"/>
      <point x="701" y="622" type="line"/>
      <point x="618" y="622" type="line"/>
      <point x="608" y="686" type="line"/>
      <point x="524" y="724" type="line"/>
      <point x="515" y="720" type="line"/>
      <point x="515" y="614" type="line" smooth="yes"/>
      <point x="515" y="579"/>
      <point x="518" y="493"/>
      <point x="526" y="436" type="curve"/>
      <point x="539" y="428" type="line"/>
      <point x="485" y="563"/>
      <point x="433" y="632"/>
      <point x="357" y="632" type="curve" smooth="yes"/>
      <point x="294" y="632"/>
      <point x="242" y="587"/>
      <point x="210" y="546" type="curve"/>
      <point x="174" y="588"/>
      <point x="136" y="622"/>
      <point x="75" y="622" type="curve" smooth="yes"/>
      <point x="-39" y="622" type="line"/>
      <point x="10" y="536" type="line"/>
      <point x="73" y="536" type="line" smooth="yes"/>
      <point x="113" y="536"/>
      <point x="153" y="515"/>
      <point x="175" y="475" type="curve"/>
      <point x="198" y="511" type="line"/>
      <point x="50" y="454"/>
      <point x="16" y="376"/>
      <point x="16" y="317" type="curve" smooth="yes"/>
      <point x="16" y="240"/>
      <point x="71" y="213"/>
      <point x="118" y="213" type="curve" smooth="yes"/>
      <point x="178" y="213"/>
      <point x="221" y="253"/>
      <point x="237" y="305" type="curve"/>
      <point x="254" y="246"/>
      <point x="297" y="215"/>
      <point x="349" y="215" type="curve" smooth="yes"/>
      <point x="406" y="215"/>
      <point x="445" y="253"/>
      <point x="445" y="319" type="curve" smooth="yes"/>
      <point x="445" y="392"/>
      <point x="384" y="446"/>
      <point x="317" y="476" type="curve"/>
      <point x="329" y="436" type="line"/>
      <point x="342" y="464"/>
      <point x="366" y="491"/>
      <point x="399" y="491" type="curve" smooth="yes"/>
      <point x="431" y="491"/>
      <point x="480" y="467"/>
      <point x="529" y="338" type="curve"/>
      <point x="515" y="406" type="line"/>
      <point x="515" y="-1" type="line"/>
    </contour>
  </outline>
</glyph>
<glyph name="avagraha-beng" format="2">
  <advance width="527"/>
  <unicode hex="09BD"/>
  <anchor x="224" y="592" name="top"/>
  <anchor x="225" y="572" name="topright"/>
  <outline>
    <contour>
      <point x="534" y="-127" type="curve"/>
      <point x="577" y="-81" type="line"/>
      <point x="472" y="28"/>
      <point x="339" y="118"/>
      <point x="206" y="145" type="curve"/>
      <point x="164" y="105" type="line"/>
      <point x="183" y="94"/>
      <point x="211" y="87"/>
      <point x="243" y="87" type="curve" smooth="yes"/>
      <point x="423" y="87"/>
      <point x="510" y="164"/>
      <point x="510" y="282" type="curve" smooth="yes"/>
      <point x="510" y="414"/>
      <point x="391" y="494"/>
      <point x="220" y="494" type="curve" smooth="yes"/>
      <point x="121" y="494"/>
      <point x="62" y="445"/>
      <point x="62" y="372" type="curve" smooth="yes"/>
      <point x="62" y="294"/>
      <point x="119" y="262"/>
      <point x="181" y="262" type="curve" smooth="yes"/>
      <point x="248" y="262"/>
      <point x="297" y="306"/>
      <point x="297" y="384" type="curve" smooth="yes"/>
      <point x="297" y="457"/>
      <point x="243" y="563"/>
      <point x="139" y="622" type="curve"/>
      <point x="-39" y="622" type="line"/>
      <point x="8" y="536" type="line"/>
      <point x="111" y="536" type="line"/>
      <point x="33" y="543" type="line"/>
      <point x="110" y="529"/>
      <point x="163" y="504"/>
      <point x="212" y="457" type="curve"/>
      <point x="212" y="359" type="line"/>
      <point x="229" y="378"/>
      <point x="265" y="405"/>
      <point x="292" y="405" type="curve" smooth="yes"/>
      <point x="348" y="405"/>
      <point x="386" y="373"/>
      <point x="386" y="329" type="curve" smooth="yes"/>
      <point x="386" y="259"/>
      <point x="312" y="219"/>
      <point x="214" y="219" type="curve" smooth="yes"/>
      <point x="151" y="219"/>
      <point x="96" y="234"/>
      <point x="49" y="263" type="curve"/>
      <point x="87" y="66" type="line"/>
      <point x="220" y="38"/>
      <point x="358" y="9"/>
    </contour>
  </outline>
</glyph>
<glyph name="iMatra-beng" format="2">
  <advance width="275"/>
  <unicode hex="09BF"/>
  <anchor x="741" y="592" name="top"/>
  <anchor x="680" y="593" name="topright"/>
  <outline>
    <contour>
      <point x="184" y="-43" type="line"/>
      <point x="195" y="-40" type="line"/>
      <point x="195" y="536" type="line"/>
      <point x="315" y="536" type="line"/>
      <point x="266" y="622" type="line"/>
      <point x="184" y="622" type="line"/>
      <point x="168" y="646"/>
      <point x="153" y="668"/>
      <point x="142" y="690" type="curve"/>
      <point x="177" y="750"/>
      <point x="272" y="801"/>
      <point x="368" y="801" type="curve" smooth="yes"/>
      <point x="470" y="801"/>
      <point x="568" y="752"/>
      <point x="675" y="664" type="curve"/>
      <point x="726" y="710" type="line"/>
      <point x="643" y="803"/>
      <point x="497" y="925"/>
      <point x="330" y="925" type="curve" smooth="yes"/>
      <point x="182" y="925"/>
      <point x="38" y="836"/>
      <point x="-19" y="725" type="curve"/>
      <point x="12" y="687"/>
      <point x="52" y="651"/>
      <point x="80" y="622" type="curve"/>
      <point x="-39" y="622" type="line"/>
      <point x="9" y="536" type="line"/>
      <point x="80" y="536" type="line"/>
      <point x="80" y="-1" type="line"/>
    </contour>
  </outline>
</glyph>
<glyph name="uMatra-beng" format="2">
  <unicode hex="09C1"/>
  <anchor x="0" y="0" name="_bottom"/>
  <outline>
    <contour>
      <point x="166" y="-309" type="curve"/>
      <point x="218" y="-279" type="line"/>
      <point x="159" y="-160"/>
      <point x="12" y="-30"/>
      <point x="-151" y="-30" type="curve" smooth="yes"/>
      <point x="-250" y="-30"/>
      <point x="-309" y="-84"/>
      <point x="-309" y="-161" type="curve" smooth="yes"/>
      <point x="-309" y="-239"/>
      <point x="-252" y="-292"/>
      <point x="-163" y="-292" type="curve" smooth="yes"/>
      <point x="-51" y="-292"/>
      <point x="14" y="-205"/>
      <point x="14" y="-119" type="curve" smooth="yes"/>
      <point x="14" y="-51"/>
      <point x="-1" y="-2"/>
      <point x="-17" y="40" type="curve"/>
      <point x="-101" y="15" type="line"/>
      <point x="-92" y="-11"/>
      <point x="-83" y="-42"/>
      <point x="-83" y="-79" type="curve" smooth="yes"/>
      <point x="-83" y="-173"/>
      <point x="-129" y="-195"/>
      <point x="-172" y="-195" type="curve" smooth="yes"/>
      <point x="-201" y="-195"/>
      <point x="-218" y="-183"/>
      <point x="-218" y="-162" type="curve" smooth="yes"/>
      <point x="-218" y="-140"/>
      <point x="-202" y="-127"/>
      <point x="-169" y="-127" type="curve" smooth="yes"/>
      <point x="-27" y="-127"/>
      <point x="84" y="-190"/>
    </contour>
  </outline>
</glyph>
<glyph name="rrVocalicMatra-beng" format="2">
  <unicode hex="09C4"/>
  <anchor x="0" y="0" name="_bottom.rvocalic"/>
  <outline>
    <contour>
      <point x="31" y="-288" type="curve"/>
      <point x="62" y="-241" type="line"/>
      <point x="32" y="-207"/>
      <point x="-56" y="-133"/>
      <point x="-165" y="-90" type="curve"/>
      <point x="-152" y="-125" type="line"/>
      <point x="-115" y="-97"/>
      <point x="-50" y="-63"/>
      <point x="0" y="-40" type="curve"/>
      <point x="0" y="-11" type="line"/>
      <point x="-77" y="62" type="line"/>
      <point x="-147" y="30"/>
      <point x="-250" y="-23"/>
      <point x="-324" y="-76" type="curve"/>
      <point x="-245" y="-169" type="line"/>
      <point x="-121" y="-196"/>
      <point x="-38" y="-237"/>
    </contour>
    <contour>
      <point x="13" y="-450" type="curve"/>
      <point x="42" y="-408" type="line"/>
      <point x="12" y="-373"/>
      <point x="-65" y="-308"/>
      <point x="-160" y="-263" type="curve"/>
      <point x="-148" y="-290" type="line"/>
      <point x="-110" y="-262"/>
      <point x="-74" y="-240"/>
      <point x="-27" y="-217" type="curve"/>
      <point x="-142" y="-164" type="line"/>
      <point x="-202" y="-192"/>
      <point x="-247" y="-218"/>
      <point x="-302" y="-253" type="curve"/>
      <point x="-232" y="-333" type="line"/>
      <point x="-126" y="-362"/>
      <point x="-51" y="-399"/>
    </contour>
  </outline>
</glyph>
<glyph name="aiMatra-beng" format="2">
  <advance width="427"/>
  <unicode hex="09C8"/>
  <outline>
    <contour>
      <point x="352" y="588" type="curve"/>
      <point x="423" y="588" type="line"/>
      <point x="420" y="737"/>
      <point x="367" y="831"/>
      <point x="261" y="831" type="curve" smooth="yes"/>
      <point x="197" y="831"/>
      <point x="166" y="821"/>
      <point x="104" y="821" type="curve" smooth="yes"/>
      <point x="45" y="821"/>
      <point x="15" y="847"/>
      <point x="15" y="897" type="curve" smooth="yes"/>
      <point x="15" y="910"/>
      <point x="16" y="926"/>
      <point x="18" y="938" type="curve"/>
      <point x="-40" y="945" type="line"/>
      <point x="-46" y="919"/>
      <point x="-50" y="888"/>
      <point x="-50" y="859" type="curve" smooth="yes"/>
      <point x="-50" y="756"/>
      <point x="2" y="682"/>
      <point x="115" y="682" type="curve" smooth="yes"/>
      <point x="181" y="682"/>
      <point x="213" y="694"/>
      <point x="259" y="694" type="curve" smooth="yes"/>
      <point x="310" y="694"/>
      <point x="352" y="682"/>
    </contour>
    <contour>
      <point x="292" y="-35" type="curve" smooth="yes"/>
      <point x="373" y="-35"/>
      <point x="421" y="7"/>
      <point x="421" y="84" type="curve" smooth="yes"/>
      <point x="421" y="141"/>
      <point x="385" y="190"/>
      <point x="315" y="190" type="curve" smooth="yes"/>
      <point x="255" y="190"/>
      <point x="214" y="148"/>
      <point x="214" y="93" type="curve" smooth="yes"/>
      <point x="214" y="52"/>
      <point x="229" y="26"/>
      <point x="249" y="8" type="curve"/>
      <point x="293" y="26" type="line"/>
      <point x="201" y="41"/>
      <point x="171" y="127"/>
      <point x="171" y="248" type="curve" smooth="yes"/>
      <point x="171" y="435"/>
      <point x="319" y="536"/>
      <point x="423" y="536" type="curve" smooth="yes"/>
      <point x="466" y="536" type="line"/>
      <point x="420" y="622" type="line"/>
      <point x="-39" y="622" type="line"/>
      <point x="7" y="536" type="line"/>
      <point x="238" y="536" type="line"/>
      <point x="175" y="570" type="line"/>
      <point x="104" y="529"/>
      <point x="30" y="435"/>
      <point x="30" y="291" type="curve" smooth="yes"/>
      <point x="30" y="76"/>
      <point x="150" y="-35"/>
    </contour>
  </outline>
</glyph>
<glyph name="oMatra-beng" format="2">
  <advance width="837"/>
  <unicode hex="09CB"/>
  <outline>
    <contour>
      <point x="419" y="249" type="curve" smooth="yes"/>
      <point x="452" y="249"/>
      <point x="480" y="272"/>
      <point x="480" y="310" type="curve" smooth="yes"/>
      <point x="480" y="346"/>
      <point x="453" y="372"/>
      <point x="419" y="372" type="curve" smooth="yes"/>
      <point x="384" y="372"/>
      <point x="355" y="346"/>
      <point x="355" y="310" type="curve" smooth="yes"/>
      <point x="355" y="274"/>
      <point x="385" y="249"/>
    </contour>
    <contour>
      <point x="292" y="-35" type="curve" smooth="yes"/>
      <point x="373" y="-35"/>
      <point x="421" y="7"/>
      <point x="421" y="84" type="curve" smooth="yes"/>
      <point x="421" y="141"/>
      <point x="385" y="190"/>
      <point x="315" y="190" type="curve" smooth="yes"/>
      <point x="255" y="190"/>
      <point x="214" y="148"/>
      <point x="214" y="93" type="curve" smooth="yes"/>
      <point x="214" y="52"/>
      <point x="229" y="26"/>
      <point x="249" y="8" type="curve"/>
      <point x="293" y="26" type="line"/>
      <point x="201" y="41"/>
      <point x="171" y="127"/>
      <point x="171" y="248" type="curve" smooth="yes"/>
      <point x="171" y="435"/>
      <point x="319" y="536"/>
      <point x="423" y="536" type="curve" smooth="yes"/>
      <point x="466" y="536" type="line"/>
      <point x="420" y="622" type="line"/>
      <point x="-39" y="622" type="line"/>
      <point x="7" y="536" type="line"/>
      <point x="238" y="536" type="line"/>
      <point x="175" y="570" type="line"/>
      <point x="104" y="529"/>
      <point x="30" y="435"/>
      <point x="30" y="291" type="curve" smooth="yes"/>
      <point x="30" y="76"/>
      <point x="150" y="-35"/>
    </contour>
    <contour>
      <point x="746" y="-43" type="line"/>
      <point x="757" y="-40" type="line"/>
      <point x="757" y="536" type="line"/>
      <point x="876" y="536" type="line"/>
      <point x="828" y="622" type="line"/>
      <point x="745" y="622" type="line"/>
      <point x="735" y="686" type="line"/>
      <point x="651" y="724" type="line"/>
      <point x="642" y="720" type="line"/>
      <point x="642" y="614" type="line" smooth="yes"/>
      <point x="642" y="593"/>
      <point x="644" y="537"/>
      <point x="650" y="490" type="curve"/>
      <point x="663" y="493" type="line"/>
      <point x="645" y="579"/>
      <point x="621" y="622"/>
      <point x="557" y="622" type="curve" smooth="yes"/>
      <point x="523" y="622" type="line"/>
      <point x="571" y="536" type="line"/>
      <point x="575" y="536" type="line" smooth="yes"/>
      <point x="616" y="536"/>
      <point x="636" y="489"/>
      <point x="642" y="442" type="curve"/>
      <point x="642" y="-1" type="line"/>
    </contour>
  </outline>
</glyph>
<glyph name="auMatra-beng" format="2">
  <advance width="837"/>
  <unicode hex="09CC"/>
  <anchor x="927" y="599" name="top"/>
  <anchor x="552" y="586" name="topright"/>
  <outline>
    <contour>
      <point x="419" y="249" type="curve" smooth="yes"/>
      <point x="452" y="249"/>
      <point x="480" y="272"/>
      <point x="480" y="310" type="curve" smooth="yes"/>
      <point x="480" y="346"/>
      <point x="453" y="372"/>
      <point x="419" y="372" type="curve" smooth="yes"/>
      <point x="384" y="372"/>
      <point x="355" y="346"/>
      <point x="355" y="310" type="curve" smooth="yes"/>
      <point x="355" y="274"/>
      <point x="385" y="249"/>
    </contour>
    <contour>
      <point x="746" y="-43" type="line"/>
      <point x="757" y="-40" type="line"/>
      <point x="757" y="536" type="line"/>
      <point x="876" y="536" type="line"/>
      <point x="827" y="622" type="line"/>
      <point x="523" y="622" type="line"/>
      <point x="571" y="536" type="line"/>
      <point x="642" y="536" type="line"/>
      <point x="642" y="-1" type="line"/>
    </contour>
    <contour>
      <point x="647" y="596" type="curve"/>
      <point x="755" y="596" type="line"/>
      <point x="752" y="743"/>
      <point x="642" y="835"/>
      <point x="509" y="835" type="curve" smooth="yes"/>
      <point x="419" y="835"/>
      <point x="363" y="820"/>
      <point x="273" y="820" type="curve" smooth="yes"/>
      <point x="182" y="820"/>
      <point x="127" y="831"/>
      <point x="127" y="895" type="curve" smooth="yes"/>
      <point x="127" y="909"/>
      <point x="128" y="926"/>
      <point x="131" y="938" type="curve"/>
      <point x="71" y="945" type="line"/>
      <point x="66" y="919"/>
      <point x="62" y="888"/>
      <point x="62" y="857" type="curve" smooth="yes"/>
      <point x="62" y="735"/>
      <point x="149" y="681"/>
      <point x="277" y="681" type="curve" smooth="yes"/>
      <point x="385" y="681"/>
      <point x="451" y="706"/>
      <point x="548" y="706" type="curve" smooth="yes"/>
      <point x="628" y="706"/>
      <point x="651" y="669"/>
      <point x="651" y="635" type="curve" smooth="yes"/>
      <point x="651" y="623"/>
      <point x="650" y="610"/>
    </contour>
    <contour>
      <point x="292" y="-35" type="curve" smooth="yes"/>
      <point x="373" y="-35"/>
      <point x="421" y="7"/>
      <point x="421" y="84" type="curve" smooth="yes"/>
      <point x="421" y="141"/>
      <point x="385" y="190"/>
      <point x="315" y="190" type="curve" smooth="yes"/>
      <point x="255" y="190"/>
      <point x="214" y="148"/>
      <point x="214" y="93" type="curve" smooth="yes"/>
      <point x="214" y="52"/>
      <point x="229" y="26"/>
      <point x="249" y="8" type="curve"/>
      <point x="293" y="26" type="line"/>
      <point x="201" y="41"/>
      <point x="171" y="127"/>
      <point x="171" y="248" type="curve" smooth="yes"/>
      <point x="171" y="435"/>
      <point x="319" y="536"/>
      <point x="423" y="536" type="curve" smooth="yes"/>
      <point x="466" y="536" type="line"/>
      <point x="420" y="622" type="line"/>
      <point x="-39" y="622" type="line"/>
      <point x="7" y="536" type="line"/>
      <point x="238" y="536" type="line"/>
      <point x="175" y="570" type="line"/>
      <point x="104" y="529"/>
      <point x="30" y="435"/>
      <point x="30" y="291" type="curve" smooth="yes"/>
      <point x="30" y="76"/>
      <point x="150" y="-35"/>
    </contour>
  </outline>
</glyph>
<glyph name="taKhanda-beng" format="2">
  <advance width="562"/>
  <unicode hex="09CE"/>
  <anchor x="287" y="592" name="top"/>
  <anchor x="288" y="572" name="topright"/>
  <outline>
    <contour>
      <point x="527" y="-95" type="line"/>
      <point x="552" y="-62"/>
      <point x="572" y="-9"/>
      <point x="572" y="42" type="curve" smooth="yes"/>
      <point x="572" y="137"/>
      <point x="482" y="206"/>
      <point x="333" y="234" type="curve" smooth="yes"/>
      <point x="184" y="262"/>
      <point x="142" y="297"/>
      <point x="142" y="370" type="curve" smooth="yes"/>
      <point x="142" y="469"/>
      <point x="211" y="487"/>
      <point x="284" y="487" type="curve" smooth="yes"/>
      <point x="351" y="487"/>
      <point x="388" y="473"/>
      <point x="388" y="443" type="curve" smooth="yes"/>
      <point x="388" y="418"/>
      <point x="371" y="406"/>
      <point x="338" y="406" type="curve" smooth="yes"/>
      <point x="296" y="406"/>
      <point x="241" y="434"/>
      <point x="232" y="503" type="curve"/>
      <point x="169" y="482" type="line"/>
      <point x="185" y="362"/>
      <point x="228" y="276"/>
      <point x="325" y="276" type="curve" smooth="yes"/>
      <point x="422" y="276"/>
      <point x="464" y="362"/>
      <point x="464" y="467" type="curve" smooth="yes"/>
      <point x="464" y="566"/>
      <point x="403" y="625"/>
      <point x="284" y="625" type="curve" smooth="yes"/>
      <point x="134" y="625"/>
      <point x="46" y="497"/>
      <point x="46" y="353" type="curve" smooth="yes"/>
      <point x="46" y="215"/>
      <point x="104" y="117"/>
      <point x="290" y="84" type="curve" smooth="yes"/>
      <point x="436" y="58"/>
      <point x="484" y="44"/>
      <point x="484" y="-9" type="curve" smooth="yes"/>
      <point x="484" y="-33"/>
      <point x="478" y="-55"/>
      <point x="468" y="-77" type="curve"/>
    </contour>
  </outline>
</glyph>
<glyph name="auLength-beng" format="2">
  <advance width="275"/>
  <unicode hex="09D7"/>
  <anchor x="365" y="599" name="top"/>
  <anchor x="-10" y="586" name="topright"/>
  <outline>
    <contour>
      <point x="184" y="-43" type="line"/>
      <point x="195" y="-40" type="line"/>
      <point x="195" y="536" type="line"/>
      <point x="314" y="536" type="line"/>
      <point x="265" y="622" type="line"/>
      <point x="-39" y="622" type="line"/>
      <point x="9" y="536" type="line"/>
      <point x="80" y="536" type="line"/>
      <point x="80" y="-1" type="line"/>
    </contour>
    <contour>
      <point x="85" y="596" type="curve"/>
      <point x="193" y="596" type="line"/>
      <point x="190" y="743"/>
      <point x="80" y="835"/>
      <point x="-53" y="835" type="curve" smooth="yes"/>
      <point x="-143" y="835"/>
      <point x="-199" y="820"/>
      <point x="-289" y="820" type="curve" smooth="yes"/>
      <point x="-380" y="820"/>
      <point x="-435" y="831"/>
      <point x="-435" y="895" type="curve" smooth="yes"/>
      <point x="-435" y="909"/>
      <point x="-434" y="926"/>
      <point x="-431" y="938" type="curve"/>
      <point x="-491" y="945" type="line"/>
      <point x="-496" y="919"/>
      <point x="-500" y="888"/>
      <point x="-500" y="857" type="curve" smooth="yes"/>
      <point x="-500" y="735"/>
      <point x="-413" y="681"/>
      <point x="-285" y="681" type="curve" smooth="yes"/>
      <point x="-177" y="681"/>
      <point x="-111" y="706"/>
      <point x="-14" y="706" type="curve" smooth="yes"/>
      <point x="66" y="706"/>
      <point x="89" y="669"/>
      <point x="89" y="635" type="curve" smooth="yes"/>
      <point x="89" y="623"/>
      <point x="88" y="610"/>
    </contour>
  </outline>
</glyph>
<glyph name="rrVocalic-beng" format="2">
  <advance width="832"/>
  <unicode hex="09E0"/>
  <anchor x="549" y="0" name="bottom"/>
  <anchor x="549" y="100" name="bottom.rakaar"/>
  <anchor x="549" y="11" name="bottom.rvocalic"/>
  <anchor x="529" y="20" name="bottom.virama"/>
  <anchor x="549" y="536" name="top"/>
  <anchor x="552" y="536" name="topright"/>
  <outline>
    <contour>
      <point x="538" y="-45" type="line"/>
      <point x="549" y="-42" type="line"/>
      <point x="549" y="636" type="line"/>
      <point x="443" y="694" type="line"/>
      <point x="434" y="690" type="line"/>
      <point x="434" y="406" type="line"/>
      <point x="447" y="480" type="line"/>
      <point x="325" y="447"/>
      <point x="172" y="379"/>
      <point x="68" y="315" type="curve"/>
      <point x="132" y="148" type="line"/>
      <point x="258" y="140"/>
      <point x="388" y="98"/>
      <point x="452" y="1" type="curve"/>
    </contour>
    <contour>
      <point x="434" y="67" type="line"/>
      <point x="453" y="84" type="line"/>
      <point x="381" y="232"/>
      <point x="263" y="255"/>
      <point x="170" y="262" type="curve"/>
      <point x="193" y="190" type="line"/>
      <point x="251" y="231"/>
      <point x="369" y="295"/>
      <point x="454" y="317" type="curve"/>
      <point x="434" y="354" type="line"/>
    </contour>
    <contour>
      <point x="135" y="419" type="curve" smooth="yes"/>
      <point x="190" y="419"/>
      <point x="295" y="455"/>
      <point x="342" y="520" type="curve"/>
      <point x="309" y="527" type="line"/>
      <point x="331" y="507"/>
      <point x="359" y="477"/>
      <point x="372" y="441" type="curve"/>
      <point x="430" y="455" type="line"/>
      <point x="411" y="523"/>
      <point x="364" y="603"/>
      <point x="301" y="639" type="curve"/>
      <point x="261" y="578"/>
      <point x="206" y="541"/>
      <point x="131" y="541" type="curve" smooth="yes"/>
      <point x="115" y="541"/>
      <point x="101" y="545"/>
      <point x="88" y="551" type="curve"/>
      <point x="148" y="482" type="line"/>
      <point x="169" y="500"/>
      <point x="176" y="517"/>
      <point x="176" y="547" type="curve" smooth="yes"/>
      <point x="176" y="584"/>
      <point x="151" y="621"/>
      <point x="93" y="621" type="curve" smooth="yes"/>
      <point x="41" y="621"/>
      <point x="6" y="585"/>
      <point x="6" y="532" type="curve" smooth="yes"/>
      <point x="6" y="461"/>
      <point x="53" y="419"/>
    </contour>
    <contour>
      <point x="741" y="38" type="line"/>
      <point x="752" y="41" type="line"/>
      <point x="752" y="536" type="line"/>
      <point x="871" y="536" type="line"/>
      <point x="823" y="622" type="line"/>
      <point x="740" y="622" type="line"/>
      <point x="730" y="686" type="line"/>
      <point x="646" y="724" type="line"/>
      <point x="637" y="720" type="line"/>
      <point x="637" y="157" type="line"/>
      <point x="656" y="175" type="line"/>
      <point x="615" y="278"/>
      <point x="577" y="307"/>
      <point x="514" y="340" type="curve"/>
      <point x="503" y="226" type="line"/>
      <point x="574" y="195"/>
      <point x="615" y="165"/>
      <point x="655" y="85" type="curve"/>
    </contour>
    <contour>
      <point x="505" y="-231" type="curve"/>
      <point x="536" y="-184" type="line"/>
      <point x="505" y="-140"/>
      <point x="413" y="-59"/>
      <point x="314" y="-9" type="curve"/>
      <point x="327" y="-44" type="line"/>
      <point x="364" y="-16"/>
      <point x="429" y="18"/>
      <point x="479" y="41" type="curve"/>
      <point x="479" y="70" type="line"/>
      <point x="402" y="143" type="line"/>
      <point x="332" y="111"/>
      <point x="229" y="58"/>
      <point x="155" y="5" type="curve"/>
      <point x="231" y="-90" type="line"/>
      <point x="345" y="-122"/>
      <point x="435" y="-170"/>
    </contour>
  </outline>
</glyph>
<glyph name="llVocalic-beng" format="2">
  <advance width="795"/>
  <unicode hex="09E1"/>
  <anchor x="454" y="536" name="top"/>
  <outline>
    <contour>
      <point x="310" y="-22" type="curve"/>
      <point x="467" y="4"/>
      <point x="556" y="91"/>
      <point x="556" y="259" type="curve" smooth="yes"/>
      <point x="556" y="417"/>
      <point x="474" y="479"/>
      <point x="306" y="507" type="curve" smooth="yes"/>
      <point x="217" y="522"/>
      <point x="155" y="538"/>
      <point x="155" y="616" type="curve" smooth="yes"/>
      <point x="155" y="648"/>
      <point x="161" y="670"/>
      <point x="173" y="699" type="curve"/>
      <point x="115" y="718" type="line"/>
      <point x="102" y="696"/>
      <point x="67" y="628"/>
      <point x="67" y="555" type="curve" smooth="yes"/>
      <point x="67" y="430"/>
      <point x="147" y="388"/>
      <point x="276" y="367" type="curve" smooth="yes"/>
      <point x="398" y="347"/>
      <point x="473" y="338"/>
      <point x="473" y="225" type="curve" smooth="yes"/>
      <point x="473" y="146"/>
      <point x="431" y="106"/>
      <point x="370" y="104" type="curve"/>
      <point x="432" y="69" type="line"/>
      <point x="433" y="218"/>
      <point x="356" y="333"/>
      <point x="220" y="333" type="curve" smooth="yes"/>
      <point x="87" y="333"/>
      <point x="35" y="239"/>
      <point x="35" y="145" type="curve" smooth="yes"/>
      <point x="35" y="38"/>
      <point x="94" y="-15"/>
      <point x="171" y="-15" type="curve" smooth="yes"/>
      <point x="232" y="-15"/>
      <point x="260" y="27"/>
      <point x="260" y="77" type="curve" smooth="yes"/>
      <point x="260" y="130"/>
      <point x="225" y="164"/>
      <point x="174" y="164" type="curve" smooth="yes"/>
      <point x="130" y="164"/>
      <point x="89" y="134"/>
      <point x="90" y="94" type="curve"/>
      <point x="157" y="86" type="line"/>
      <point x="137" y="92"/>
      <point x="122" y="109"/>
      <point x="122" y="141" type="curve" smooth="yes"/>
      <point x="122" y="177"/>
      <point x="150" y="204"/>
      <point x="196" y="204" type="curve" smooth="yes"/>
      <point x="285" y="204"/>
      <point x="314" y="100"/>
      <point x="314" y="19" type="curve" smooth="yes"/>
      <point x="314" y="5"/>
      <point x="313" y="-8"/>
    </contour>
    <contour>
      <point x="536" y="-248" type="line"/>
      <point x="639" y="-237"/>
      <point x="780" y="-168"/>
      <point x="780" y="53" type="curve" smooth="yes"/>
      <point x="780" y="223"/>
      <point x="698" y="262"/>
      <point x="516" y="309" type="curve"/>
      <point x="503" y="170" type="line"/>
      <point x="627" y="148"/>
      <point x="698" y="134"/>
      <point x="698" y="25" type="curve" smooth="yes"/>
      <point x="698" y="-57"/>
      <point x="650" y="-113"/>
      <point x="590" y="-116" type="curve"/>
      <point x="652" y="-151" type="line"/>
      <point x="653" y="-1"/>
      <point x="575" y="113"/>
      <point x="439" y="113" type="curve" smooth="yes"/>
      <point x="309" y="113"/>
      <point x="259" y="19"/>
      <point x="259" y="-75" type="curve" smooth="yes"/>
      <point x="259" y="-184"/>
      <point x="318" y="-235"/>
      <point x="395" y="-235" type="curve" smooth="yes"/>
      <point x="455" y="-235"/>
      <point x="484" y="-193"/>
      <point x="484" y="-143" type="curve" smooth="yes"/>
      <point x="484" y="-91"/>
      <point x="449" y="-56"/>
      <point x="398" y="-56" type="curve" smooth="yes"/>
      <point x="354" y="-56"/>
      <point x="313" y="-87"/>
      <point x="314" y="-126" type="curve"/>
      <point x="381" y="-134" type="line"/>
      <point x="361" y="-128"/>
      <point x="346" y="-111"/>
      <point x="346" y="-80" type="curve" smooth="yes"/>
      <point x="346" y="-43"/>
      <point x="373" y="-15"/>
      <point x="416" y="-15" type="curve" smooth="yes"/>
      <point x="504" y="-15"/>
      <point x="534" y="-119"/>
      <point x="534" y="-201" type="curve" smooth="yes"/>
      <point x="534" y="-215"/>
      <point x="533" y="-228"/>
      <point x="530" y="-241" type="curve"/>
    </contour>
  </outline>
</glyph>
<glyph name="lVocalicMatra-beng" format="2">
  <unicode hex="09E2"/>
  <anchor x="0" y="20" name="_bottom"/>
  <outline>
    <contour>
      <point x="-109" y="-378" type="line"/>
      <point x="-15" y="-369"/>
      <point x="65" y="-313"/>
      <point x="65" y="-205" type="curve" smooth="yes"/>
      <point x="65" y="-128"/>
      <point x="20" y="-87"/>
      <point x="-61" y="-60" type="curve" smooth="yes"/>
      <point x="-134" y="-36"/>
      <point x="-157" y="-26"/>
      <point x="-157" y="8" type="curve" smooth="yes"/>
      <point x="-157" y="15"/>
      <point x="-155" y="29"/>
      <point x="-146" y="46" type="curve"/>
      <point x="-190" y="62" type="line"/>
      <point x="-214" y="32"/>
      <point x="-230" y="-5"/>
      <point x="-230" y="-35" type="curve" smooth="yes"/>
      <point x="-230" y="-90"/>
      <point x="-199" y="-129"/>
      <point x="-108" y="-147" type="curve" smooth="yes"/>
      <point x="-22" y="-164"/>
      <point x="3" y="-182"/>
      <point x="3" y="-226" type="curve" smooth="yes"/>
      <point x="3" y="-266"/>
      <point x="-17" y="-287"/>
      <point x="-35" y="-287" type="curve" smooth="yes"/>
      <point x="-53" y="-287"/>
      <point x="-62" y="-283"/>
      <point x="-69" y="-276" type="curve"/>
      <point x="-24" y="-325" type="line"/>
      <point x="-23" y="-318"/>
      <point x="-23" y="-312"/>
      <point x="-23" y="-306" type="curve" smooth="yes"/>
      <point x="-23" y="-204"/>
      <point x="-91" y="-161"/>
      <point x="-164" y="-161" type="curve" smooth="yes"/>
      <point x="-236" y="-161"/>
      <point x="-286" y="-218"/>
      <point x="-286" y="-280" type="curve" smooth="yes"/>
      <point x="-286" y="-346"/>
      <point x="-248" y="-370"/>
      <point x="-209" y="-370" type="curve" smooth="yes"/>
      <point x="-167" y="-370"/>
      <point x="-147" y="-340"/>
      <point x="-147" y="-309" type="curve" smooth="yes"/>
      <point x="-147" y="-274"/>
      <point x="-169" y="-250"/>
      <point x="-204" y="-250" type="curve" smooth="yes"/>
      <point x="-229" y="-250"/>
      <point x="-249" y="-268"/>
      <point x="-250" y="-290" type="curve"/>
      <point x="-230" y="-297" type="line"/>
      <point x="-234" y="-291"/>
      <point x="-235" y="-286"/>
      <point x="-235" y="-279" type="curve" smooth="yes"/>
      <point x="-235" y="-246"/>
      <point x="-212" y="-236"/>
      <point x="-184" y="-236" type="curve" smooth="yes"/>
      <point x="-136" y="-236"/>
      <point x="-111" y="-275"/>
      <point x="-111" y="-336" type="curve" smooth="yes"/>
      <point x="-111" y="-353"/>
      <point x="-112" y="-363"/>
      <point x="-113" y="-373" type="curve"/>
    </contour>
  </outline>
</glyph>
<glyph name="llVocalicMatra-beng" format="2">
  <unicode hex="09E3"/>
  <anchor x="0" y="20" name="_bottom"/>
  <outline>
    <contour>
      <point x="-113" y="-373" type="curve"/>
      <point x="0" y="-368"/>
      <point x="65" y="-304"/>
      <point x="65" y="-205" type="curve" smooth="yes"/>
      <point x="65" y="-128"/>
      <point x="20" y="-87"/>
      <point x="-61" y="-60" type="curve" smooth="yes"/>
      <point x="-134" y="-36"/>
      <point x="-157" y="-26"/>
      <point x="-157" y="8" type="curve" smooth="yes"/>
      <point x="-157" y="15"/>
      <point x="-155" y="29"/>
      <point x="-146" y="46" type="curve"/>
      <point x="-190" y="62" type="line"/>
      <point x="-214" y="32"/>
      <point x="-230" y="-5"/>
      <point x="-230" y="-35" type="curve" smooth="yes"/>
      <point x="-230" y="-90"/>
      <point x="-199" y="-129"/>
      <point x="-108" y="-147" type="curve" smooth="yes"/>
      <point x="-22" y="-164"/>
      <point x="3" y="-182"/>
      <point x="3" y="-226" type="curve" smooth="yes"/>
      <point x="3" y="-266"/>
      <point x="-17" y="-287"/>
      <point x="-35" y="-287" type="curve" smooth="yes"/>
      <point x="-53" y="-287"/>
      <point x="-62" y="-283"/>
      <point x="-69" y="-276" type="curve"/>
      <point x="-24" y="-325" type="line"/>
      <point x="-23" y="-318"/>
      <point x="-23" y="-312"/>
      <point x="-23" y="-306" type="curve" smooth="yes"/>
      <point x="-23" y="-204"/>
      <point x="-91" y="-161"/>
      <point x="-164" y="-161" type="curve" smooth="yes"/>
      <point x="-236" y="-161"/>
      <point x="-286" y="-218"/>
      <point x="-286" y="-280" type="curve" smooth="yes"/>
      <point x="-286" y="-346"/>
      <point x="-248" y="-370"/>
      <point x="-209" y="-370" type="curve" smooth="yes"/>
      <point x="-167" y="-370"/>
      <point x="-147" y="-340"/>
      <point x="-147" y="-309" type="curve" smooth="yes"/>
      <point x="-147" y="-274"/>
      <point x="-169" y="-250"/>
      <point x="-204" y="-250" type="curve" smooth="yes"/>
      <point x="-229" y="-250"/>
      <point x="-249" y="-268"/>
      <point x="-250" y="-290" type="curve"/>
      <point x="-230" y="-297" type="line"/>
      <point x="-234" y="-291"/>
      <point x="-235" y="-286"/>
      <point x="-235" y="-279" type="curve" smooth="yes"/>
      <point x="-235" y="-246"/>
      <point x="-212" y="-236"/>
      <point x="-184" y="-236" type="curve" smooth="yes"/>
      <point x="-136" y="-236"/>
      <point x="-111" y="-275"/>
      <point x="-111" y="-336" type="curve" smooth="yes"/>
      <point x="-111" y="-353"/>
      <point x="-112" y="-363"/>
    </contour>
    <contour>
      <point x="51" y="-502" type="line"/>
      <point x="145" y="-493"/>
      <point x="225" y="-437"/>
      <point x="225" y="-329" type="curve" smooth="yes"/>
      <point x="225" y="-252"/>
      <point x="180" y="-211"/>
      <point x="53" y="-171" type="curve"/>
      <point x="48" y="-261" type="line"/>
      <point x="134" y="-278"/>
      <point x="163" y="-306"/>
      <point x="163" y="-350" type="curve" smooth="yes"/>
      <point x="163" y="-390"/>
      <point x="143" y="-411"/>
      <point x="125" y="-411" type="curve" smooth="yes"/>
      <point x="107" y="-411"/>
      <point x="98" y="-407"/>
      <point x="91" y="-400" type="curve"/>
      <point x="130" y="-449" type="line"/>
      <point x="131" y="-442"/>
      <point x="131" y="-435"/>
      <point x="131" y="-428" type="curve" smooth="yes"/>
      <point x="131" y="-327"/>
      <point x="68" y="-285"/>
      <point x="-4" y="-285" type="curve" smooth="yes"/>
      <point x="-76" y="-285"/>
      <point x="-126" y="-342"/>
      <point x="-126" y="-404" type="curve" smooth="yes"/>
      <point x="-126" y="-470"/>
      <point x="-88" y="-494"/>
      <point x="-49" y="-494" type="curve" smooth="yes"/>
      <point x="-7" y="-494"/>
      <point x="13" y="-464"/>
      <point x="13" y="-433" type="curve" smooth="yes"/>
      <point x="13" y="-398"/>
      <point x="-9" y="-374"/>
      <point x="-44" y="-374" type="curve" smooth="yes"/>
      <point x="-69" y="-374"/>
      <point x="-89" y="-392"/>
      <point x="-90" y="-414" type="curve"/>
      <point x="-70" y="-421" type="line"/>
      <point x="-74" y="-415"/>
      <point x="-75" y="-410"/>
      <point x="-75" y="-403" type="curve" smooth="yes"/>
      <point x="-75" y="-370"/>
      <point x="-52" y="-360"/>
      <point x="-24" y="-360" type="curve" smooth="yes"/>
      <point x="24" y="-360"/>
      <point x="49" y="-399"/>
      <point x="49" y="-460" type="curve" smooth="yes"/>
      <point x="49" y="-477"/>
      <point x="48" y="-487"/>
      <point x="47" y="-497" type="curve"/>
    </contour>
  </outline>
</glyph>
<glyph name="zero-beng" format="2">
  <advance width="627"/>
  <unicode hex="09E6"/>
  <outline>
    <contour>
      <point x="311" y="-14" type="curve" smooth="yes"/>
      <point x="476" y="-14"/>
      <point x="582" y="106"/>
      <point x="582" y="285" type="curve" smooth="yes"/>
      <point x="582" y="436"/>
      <point x="484" y="569"/>
      <point x="321" y="569" type="curve" smooth="yes"/>
      <point x="164" y="569"/>
      <point x="45" y="450"/>
      <point x="45" y="276" type="curve" smooth="yes"/>
      <point x="45" y="101"/>
      <point x="165" y="-14"/>
    </contour>
    <contour>
      <point x="277" y="115" type="curve" smooth="yes"/>
      <point x="221" y="115"/>
      <point x="181" y="149"/>
      <point x="181" y="226" type="curve" smooth="yes"/>
      <point x="181" y="337"/>
      <point x="268" y="438"/>
      <point x="356" y="438" type="curve" smooth="yes"/>
      <point x="417" y="438"/>
      <point x="452" y="397"/>
      <point x="452" y="329" type="curve" smooth="yes"/>
      <point x="452" y="221"/>
      <point x="378" y="115"/>
    </contour>
  </outline>
</glyph>
<glyph name="one-beng" format="2">
  <advance width="567"/>
  <unicode hex="09E7"/>
  <outline>
    <contour>
      <point x="316" y="-46" type="curve" smooth="yes"/>
      <point x="457" y="-46"/>
      <point x="547" y="51"/>
      <point x="547" y="176" type="curve" smooth="yes"/>
      <point x="547" y="289"/>
      <point x="500" y="347"/>
      <point x="354" y="406" type="curve" smooth="yes"/>
      <point x="245" y="450"/>
      <point x="236" y="462"/>
      <point x="233" y="502" type="curve"/>
      <point x="153" y="498" type="line"/>
      <point x="161" y="473"/>
      <point x="187" y="463"/>
      <point x="213" y="463" type="curve" smooth="yes"/>
      <point x="263" y="463"/>
      <point x="287" y="495"/>
      <point x="287" y="547" type="curve" smooth="yes"/>
      <point x="287" y="590"/>
      <point x="255" y="640"/>
      <point x="186" y="640" type="curve" smooth="yes"/>
      <point x="112" y="640"/>
      <point x="55" y="585"/>
      <point x="55" y="508" type="curve" smooth="yes"/>
      <point x="55" y="429"/>
      <point x="84" y="354"/>
      <point x="229" y="315" type="curve" smooth="yes"/>
      <point x="381" y="274"/>
      <point x="457" y="254"/>
      <point x="457" y="183" type="curve" smooth="yes"/>
      <point x="457" y="121"/>
      <point x="417" y="86"/>
      <point x="344" y="86" type="curve" smooth="yes"/>
      <point x="305" y="86"/>
      <point x="267" y="102"/>
      <point x="248" y="126" type="curve"/>
      <point x="216" y="62" type="line"/>
      <point x="232" y="55"/>
      <point x="250" y="53"/>
      <point x="260" y="53" type="curve" smooth="yes"/>
      <point x="308" y="53"/>
      <point x="334" y="93"/>
      <point x="334" y="140" type="curve" smooth="yes"/>
      <point x="334" y="193"/>
      <point x="296" y="231"/>
      <point x="236" y="231" type="curve" smooth="yes"/>
      <point x="168" y="231"/>
      <point x="125" y="180"/>
      <point x="125" y="110" type="curve" smooth="yes"/>
      <point x="125" y="0"/>
      <point x="213" y="-46"/>
    </contour>
  </outline>
</glyph>
<glyph name="two-beng" format="2">
  <advance width="555"/>
  <unicode hex="09E8"/>
  <outline>
    <contour>
      <point x="558" y="-118" type="curve"/>
      <point x="600" y="-71" type="line"/>
      <point x="496" y="38"/>
      <point x="358" y="133"/>
      <point x="225" y="160" type="curve"/>
      <point x="218" y="105" type="line"/>
      <point x="234" y="102"/>
      <point x="263" y="100"/>
      <point x="292" y="100" type="curve" smooth="yes"/>
      <point x="437" y="100"/>
      <point x="521" y="151"/>
      <point x="521" y="269" type="curve" smooth="yes"/>
      <point x="521" y="352"/>
      <point x="477" y="412"/>
      <point x="352" y="438" type="curve" smooth="yes"/>
      <point x="256" y="458"/>
      <point x="217" y="482"/>
      <point x="211" y="523" type="curve"/>
      <point x="165" y="476" type="line"/>
      <point x="175" y="466"/>
      <point x="192" y="463"/>
      <point x="211" y="463" type="curve" smooth="yes"/>
      <point x="264" y="463"/>
      <point x="292" y="495"/>
      <point x="292" y="547" type="curve" smooth="yes"/>
      <point x="292" y="590"/>
      <point x="260" y="640"/>
      <point x="191" y="640" type="curve" smooth="yes"/>
      <point x="117" y="640"/>
      <point x="60" y="585"/>
      <point x="60" y="504" type="curve" smooth="yes"/>
      <point x="60" y="416"/>
      <point x="115" y="358"/>
      <point x="229" y="335" type="curve" smooth="yes"/>
      <point x="360" y="308"/>
      <point x="419" y="319"/>
      <point x="419" y="278" type="curve" smooth="yes"/>
      <point x="419" y="242"/>
      <point x="342" y="231"/>
      <point x="269" y="231" type="curve" smooth="yes"/>
      <point x="193" y="231"/>
      <point x="117" y="253"/>
      <point x="73" y="281" type="curve"/>
      <point x="107" y="89" type="line"/>
      <point x="240" y="53"/>
      <point x="382" y="19"/>
    </contour>
  </outline>
</glyph>
<glyph name="three-beng" format="2">
  <advance width="682"/>
  <unicode hex="09E9"/>
  <outline>
    <contour>
      <point x="402" y="-16" type="curve" smooth="yes"/>
      <point x="534" y="-16"/>
      <point x="647" y="61"/>
      <point x="647" y="260" type="curve" smooth="yes"/>
      <point x="647" y="427"/>
      <point x="547" y="552"/>
      <point x="386" y="552" type="curve" smooth="yes"/>
      <point x="283" y="552"/>
      <point x="229" y="492"/>
      <point x="229" y="408" type="curve" smooth="yes"/>
      <point x="229" y="334"/>
      <point x="280" y="274"/>
      <point x="363" y="274" type="curve" smooth="yes"/>
      <point x="445" y="274"/>
      <point x="482" y="335"/>
      <point x="479" y="392" type="curve" smooth="yes"/>
      <point x="477" y="434"/>
      <point x="454" y="467"/>
      <point x="436" y="485" type="curve"/>
      <point x="391" y="390" type="line"/>
      <point x="404" y="398"/>
      <point x="427" y="410"/>
      <point x="456" y="410" type="curve" smooth="yes"/>
      <point x="516" y="410"/>
      <point x="562" y="376"/>
      <point x="562" y="291" type="curve" smooth="yes"/>
      <point x="562" y="192"/>
      <point x="491" y="155"/>
      <point x="396" y="155" type="curve" smooth="yes"/>
      <point x="258" y="155"/>
      <point x="155" y="235"/>
      <point x="95" y="505" type="curve"/>
      <point x="30" y="490" type="line"/>
      <point x="90" y="143"/>
      <point x="200" y="-16"/>
    </contour>
  </outline>
</glyph>
<glyph name="five-beng" format="2">
  <advance width="596"/>
  <unicode hex="09EB"/>
  <outline>
    <contour>
      <point x="365" y="-32" type="curve" smooth="yes"/>
      <point x="445" y="-32"/>
      <point x="520" y="-12"/>
      <point x="576" y="38" type="curve"/>
      <point x="537" y="122" type="line"/>
      <point x="465" y="131"/>
      <point x="441" y="168"/>
      <point x="441" y="212" type="curve" smooth="yes"/>
      <point x="441" y="282"/>
      <point x="508" y="321"/>
      <point x="570" y="339" type="curve"/>
      <point x="523" y="433" type="line"/>
      <point x="474" y="426"/>
      <point x="413" y="435"/>
      <point x="413" y="495" type="curve" smooth="yes"/>
      <point x="413" y="512"/>
      <point x="420" y="531"/>
      <point x="437" y="545" type="curve"/>
      <point x="433" y="586"/>
      <point x="415" y="622"/>
      <point x="349" y="622" type="curve" smooth="yes"/>
      <point x="209" y="622"/>
      <point x="40" y="488"/>
      <point x="40" y="279" type="curve" smooth="yes"/>
      <point x="40" y="86"/>
      <point x="206" y="-32"/>
    </contour>
    <contour>
      <point x="338" y="85" type="curve" smooth="yes"/>
      <point x="245" y="85"/>
      <point x="182" y="135"/>
      <point x="182" y="245" type="curve" smooth="yes"/>
      <point x="182" y="360"/>
      <point x="262" y="461"/>
      <point x="364" y="490" type="curve"/>
      <point x="336" y="537" type="line"/>
      <point x="318" y="518"/>
      <point x="307" y="483"/>
      <point x="307" y="460" type="curve" smooth="yes"/>
      <point x="307" y="383"/>
      <point x="414" y="379"/>
      <point x="448" y="379" type="curve"/>
      <point x="404" y="404" type="line"/>
      <point x="350" y="366"/>
      <point x="304" y="318"/>
      <point x="304" y="246" type="curve" smooth="yes"/>
      <point x="304" y="177"/>
      <point x="356" y="113"/>
      <point x="450" y="91" type="curve"/>
      <point x="439" y="111" type="line"/>
      <point x="405" y="95"/>
      <point x="373" y="85"/>
    </contour>
  </outline>
</glyph>
<glyph name="six-beng" format="2">
  <advance width="701"/>
  <unicode hex="09EC"/>
  <outline>
    <contour>
      <point x="418" y="-46" type="curve" smooth="yes"/>
      <point x="584" y="-46"/>
      <point x="666" y="72"/>
      <point x="666" y="225" type="curve" smooth="yes"/>
      <point x="666" y="338"/>
      <point x="617" y="428"/>
      <point x="557" y="481" type="curve"/>
      <point x="496" y="399"/>
      <point x="448" y="359"/>
      <point x="418" y="359" type="curve" smooth="yes"/>
      <point x="394" y="359"/>
      <point x="382" y="370"/>
      <point x="382" y="397" type="curve" smooth="yes"/>
      <point x="382" y="507" type="line" smooth="yes"/>
      <point x="382" y="575"/>
      <point x="342" y="639"/>
      <point x="261" y="639" type="curve" smooth="yes"/>
      <point x="202" y="639"/>
      <point x="163" y="603"/>
      <point x="163" y="546" type="curve" smooth="yes"/>
      <point x="163" y="489"/>
      <point x="202" y="456"/>
      <point x="246" y="456" type="curve" smooth="yes"/>
      <point x="301" y="456"/>
      <point x="320" y="499"/>
      <point x="321" y="529" type="curve"/>
      <point x="267" y="526" type="line"/>
      <point x="267" y="359" type="line" smooth="yes"/>
      <point x="267" y="302"/>
      <point x="288" y="269"/>
      <point x="317" y="241" type="curve" smooth="yes"/>
      <point x="348" y="212"/>
      <point x="385" y="199"/>
      <point x="428" y="199" type="curve" smooth="yes"/>
      <point x="493" y="199"/>
      <point x="568" y="252"/>
      <point x="619" y="329" type="curve"/>
      <point x="551" y="355" type="line"/>
      <point x="573" y="326"/>
      <point x="591" y="296"/>
      <point x="591" y="258" type="curve" smooth="yes"/>
      <point x="591" y="173"/>
      <point x="512" y="118"/>
      <point x="409" y="118" type="curve" smooth="yes"/>
      <point x="259" y="118"/>
      <point x="165" y="247"/>
      <point x="104" y="473" type="curve"/>
      <point x="40" y="457" type="line"/>
      <point x="101" y="128"/>
      <point x="204" y="-46"/>
    </contour>
  </outline>
</glyph>
<glyph name="seven-beng" format="2">
  <advance width="615"/>
  <unicode hex="09ED"/>
  <outline>
    <contour>
      <point x="507" y="-60" type="curve" smooth="yes"/>
      <point x="571" y="-60"/>
      <point x="605" y="-24"/>
      <point x="605" y="33" type="curve" smooth="yes"/>
      <point x="605" y="90"/>
      <point x="566" y="124"/>
      <point x="521" y="124" type="curve" smooth="yes"/>
      <point x="467" y="124"/>
      <point x="448" y="81"/>
      <point x="447" y="50" type="curve"/>
      <point x="499" y="41" type="line"/>
      <point x="499" y="461" type="line" smooth="yes"/>
      <point x="499" y="566"/>
      <point x="415" y="638"/>
      <point x="291" y="638" type="curve" smooth="yes"/>
      <point x="157" y="638"/>
      <point x="45" y="543"/>
      <point x="45" y="409" type="curve" smooth="yes"/>
      <point x="45" y="270"/>
      <point x="176" y="180"/>
      <point x="282" y="180" type="curve" smooth="yes"/>
      <point x="347" y="180"/>
      <point x="378" y="190"/>
      <point x="411" y="207" type="curve"/>
      <point x="411" y="378" type="line"/>
      <point x="372" y="344"/>
      <point x="318" y="320"/>
      <point x="258" y="320" type="curve" smooth="yes"/>
      <point x="194" y="320"/>
      <point x="164" y="343"/>
      <point x="164" y="382" type="curve" smooth="yes"/>
      <point x="164" y="448"/>
      <point x="268" y="521"/>
      <point x="329" y="521" type="curve" smooth="yes"/>
      <point x="371" y="521"/>
      <point x="384" y="502"/>
      <point x="384" y="459" type="curve" smooth="yes"/>
      <point x="384" y="86" type="line" smooth="yes"/>
      <point x="384" y="4"/>
      <point x="427" y="-60"/>
    </contour>
  </outline>
</glyph>
<glyph name="eight-beng" format="2">
  <advance width="717"/>
  <unicode hex="09EE"/>
  <outline>
    <contour>
      <point x="350" y="-47" type="curve" smooth="yes"/>
      <point x="465" y="-47"/>
      <point x="586" y="43"/>
      <point x="586" y="172" type="curve" smooth="yes"/>
      <point x="586" y="242"/>
      <point x="535" y="285"/>
      <point x="472" y="336" type="curve"/>
      <point x="410" y="336" type="line"/>
      <point x="441" y="289"/>
      <point x="447" y="259"/>
      <point x="447" y="216" type="curve" smooth="yes"/>
      <point x="447" y="134"/>
      <point x="369" y="75"/>
      <point x="320" y="75" type="curve" smooth="yes"/>
      <point x="290" y="75"/>
      <point x="271" y="88"/>
      <point x="271" y="124" type="curve" smooth="yes"/>
      <point x="271" y="497" type="line" smooth="yes"/>
      <point x="271" y="579"/>
      <point x="230" y="639"/>
      <point x="149" y="639" type="curve" smooth="yes"/>
      <point x="87" y="639"/>
      <point x="50" y="603"/>
      <point x="50" y="546" type="curve" smooth="yes"/>
      <point x="50" y="489"/>
      <point x="89" y="456"/>
      <point x="133" y="456" type="curve" smooth="yes"/>
      <point x="188" y="456"/>
      <point x="207" y="499"/>
      <point x="208" y="529" type="curve"/>
      <point x="156" y="538" type="line"/>
      <point x="156" y="139" type="line" smooth="yes"/>
      <point x="156" y="32"/>
      <point x="244" y="-47"/>
    </contour>
    <contour>
      <point x="234" y="236" type="line"/>
      <point x="288" y="271"/>
      <point x="385" y="310"/>
      <point x="470" y="310" type="curve" smooth="yes"/>
      <point x="535" y="310"/>
      <point x="565" y="267"/>
      <point x="621" y="267" type="curve" smooth="yes"/>
      <point x="680" y="267"/>
      <point x="710" y="319"/>
      <point x="722" y="434" type="curve"/>
      <point x="667" y="446" type="line"/>
      <point x="640" y="385"/>
      <point x="621" y="375"/>
      <point x="580" y="375" type="curve" smooth="yes"/>
      <point x="505" y="375"/>
      <point x="470" y="412"/>
      <point x="388" y="412" type="curve" smooth="yes"/>
      <point x="337" y="412"/>
      <point x="285" y="401"/>
      <point x="234" y="380" type="curve"/>
    </contour>
  </outline>
</glyph>
<glyph name="nine-beng" format="2">
  <advance width="677"/>
  <unicode hex="09EF"/>
  <outline>
    <contour>
      <point x="350" y="-60" type="line"/>
      <point x="460" y="-46"/>
      <point x="619" y="32"/>
      <point x="619" y="220" type="curve" smooth="yes"/>
      <point x="619" y="312"/>
      <point x="562" y="401"/>
      <point x="436" y="436" type="curve" smooth="yes"/>
      <point x="328" y="466"/>
      <point x="284" y="482"/>
      <point x="278" y="523" type="curve"/>
      <point x="222" y="476" type="line"/>
      <point x="232" y="466"/>
      <point x="249" y="463"/>
      <point x="267" y="463" type="curve" smooth="yes"/>
      <point x="320" y="463"/>
      <point x="349" y="495"/>
      <point x="349" y="547" type="curve" smooth="yes"/>
      <point x="349" y="590"/>
      <point x="316" y="640"/>
      <point x="247" y="640" type="curve" smooth="yes"/>
      <point x="173" y="640"/>
      <point x="116" y="585"/>
      <point x="116" y="504" type="curve" smooth="yes"/>
      <point x="116" y="415"/>
      <point x="179" y="364"/>
      <point x="320" y="334" type="curve" smooth="yes"/>
      <point x="452" y="306"/>
      <point x="517" y="274"/>
      <point x="517" y="190" type="curve" smooth="yes"/>
      <point x="517" y="114"/>
      <point x="473" y="66"/>
      <point x="412" y="61" type="curve"/>
      <point x="468" y="41" type="line"/>
      <point x="469" y="196"/>
      <point x="392" y="307"/>
      <point x="247" y="307" type="curve" smooth="yes"/>
      <point x="112" y="307"/>
      <point x="58" y="210"/>
      <point x="58" y="111" type="curve" smooth="yes"/>
      <point x="58" y="-3"/>
      <point x="120" y="-57"/>
      <point x="200" y="-57" type="curve" smooth="yes"/>
      <point x="264" y="-57"/>
      <point x="293" y="-13"/>
      <point x="293" y="38" type="curve" smooth="yes"/>
      <point x="293" y="93"/>
      <point x="257" y="128"/>
      <point x="204" y="128" type="curve" smooth="yes"/>
      <point x="159" y="128"/>
      <point x="116" y="97"/>
      <point x="117" y="56" type="curve"/>
      <point x="185" y="49" type="line"/>
      <point x="163" y="56"/>
      <point x="147" y="74"/>
      <point x="147" y="108" type="curve" smooth="yes"/>
      <point x="147" y="148"/>
      <point x="176" y="178"/>
      <point x="223" y="178" type="curve" smooth="yes"/>
      <point x="317" y="178"/>
      <point x="347" y="80"/>
      <point x="347" y="-8" type="curve" smooth="yes"/>
      <point x="347" y="-23"/>
      <point x="346" y="-38"/>
      <point x="343" y="-53" type="curve"/>
    </contour>
  </outline>
</glyph>
<glyph name="rupeemark-beng" format="2">
  <advance width="596"/>
  <unicode hex="09F2"/>
  <outline>
    <contour>
      <point x="492" y="1" type="curve"/>
      <point x="565" y="23" type="line"/>
      <point x="439" y="353"/>
      <point x="236" y="490"/>
      <point x="109" y="558" type="curve"/>
      <point x="70" y="384" type="line"/>
      <point x="175" y="342"/>
      <point x="358" y="269"/>
    </contour>
  </outline>
</glyph>
<glyph name="rupee-beng" format="2">
  <advance width="672"/>
  <unicode hex="09F3"/>
  <outline>
    <contour>
      <point x="339" y="-23" type="curve" smooth="yes"/>
      <point x="489" y="-23"/>
      <point x="606" y="117"/>
      <point x="606" y="272" type="curve" smooth="yes"/>
      <point x="606" y="378"/>
      <point x="543" y="427"/>
      <point x="472" y="427" type="curve" smooth="yes"/>
      <point x="399" y="427"/>
      <point x="350" y="377"/>
      <point x="350" y="315" type="curve" smooth="yes"/>
      <point x="350" y="253"/>
      <point x="388" y="208"/>
      <point x="453" y="208" type="curve" smooth="yes"/>
      <point x="475" y="208"/>
      <point x="501" y="221"/>
      <point x="522" y="246" type="curve"/>
      <point x="447" y="286" type="line"/>
      <point x="442" y="146"/>
      <point x="362" y="101"/>
      <point x="314" y="101" type="curve" smooth="yes"/>
      <point x="293" y="101"/>
      <point x="275" y="114"/>
      <point x="275" y="139" type="curve" smooth="yes"/>
      <point x="275" y="665" type="line" smooth="yes"/>
      <point x="275" y="748"/>
      <point x="234" y="808"/>
      <point x="153" y="808" type="curve" smooth="yes"/>
      <point x="90" y="808"/>
      <point x="53" y="771"/>
      <point x="53" y="714" type="curve" smooth="yes"/>
      <point x="53" y="657"/>
      <point x="92" y="623"/>
      <point x="137" y="623" type="curve" smooth="yes"/>
      <point x="192" y="623"/>
      <point x="211" y="666"/>
      <point x="212" y="697" type="curve"/>
      <point x="160" y="706" type="line"/>
      <point x="160" y="140" type="line" smooth="yes"/>
      <point x="160" y="48"/>
      <point x="252" y="-23"/>
    </contour>
    <contour>
      <point x="72" y="473" type="line"/>
      <point x="622" y="473" type="line"/>
      <point x="583" y="555" type="line"/>
      <point x="30" y="555" type="line"/>
    </contour>
  </outline>
</glyph>
<glyph name="oneNumr-beng" format="2">
  <advance width="551"/>
  <unicode hex="09F4"/>
  <outline>
    <contour>
      <point x="148" y="-10" type="line"/>
      <point x="302" y="96"/>
      <point x="433" y="263"/>
      <point x="501" y="554" type="curve"/>
      <point x="426" y="571" type="line"/>
      <point x="339" y="306"/>
      <point x="176" y="187"/>
      <point x="15" y="91" type="curve"/>
    </contour>
  </outline>
</glyph>
<glyph name="twoNumr-beng" format="2">
  <advance width="766"/>
  <unicode hex="09F5"/>
  <outline>
    <contour>
      <point x="302" y="-19" type="line"/>
      <point x="498" y="97"/>
      <point x="628" y="291"/>
      <point x="706" y="649" type="curve"/>
      <point x="622" y="670" type="line"/>
      <point x="559" y="463"/>
      <point x="482" y="329"/>
      <point x="374" y="231" type="curve"/>
      <point x="411" y="191" type="line"/>
      <point x="419" y="209"/>
      <point x="421" y="230"/>
      <point x="421" y="248" type="curve" smooth="yes"/>
      <point x="421" y="399"/>
      <point x="316" y="485"/>
      <point x="202" y="485" type="curve" smooth="yes"/>
      <point x="101" y="485"/>
      <point x="30" y="426"/>
      <point x="30" y="332" type="curve" smooth="yes"/>
      <point x="30" y="255"/>
      <point x="79" y="215"/>
      <point x="141" y="215" type="curve" smooth="yes"/>
      <point x="206" y="215"/>
      <point x="242" y="258"/>
      <point x="242" y="311" type="curve" smooth="yes"/>
      <point x="242" y="354"/>
      <point x="222" y="381"/>
      <point x="190" y="396" type="curve"/>
      <point x="168" y="358" type="line"/>
      <point x="185" y="374"/>
      <point x="201" y="385"/>
      <point x="234" y="385" type="curve" smooth="yes"/>
      <point x="288" y="385"/>
      <point x="319" y="334"/>
      <point x="319" y="273" type="curve" smooth="yes"/>
      <point x="319" y="184"/>
      <point x="238" y="121"/>
      <point x="154" y="93" type="curve"/>
    </contour>
  </outline>
</glyph>
<glyph name="threeNumr-beng" format="2">
  <advance width="820"/>
  <unicode hex="09F6"/>
  <outline>
    <contour>
      <point x="279" y="-28" type="curve" smooth="yes"/>
      <point x="447" y="-28"/>
      <point x="610" y="45"/>
      <point x="760" y="649" type="curve"/>
      <point x="676" y="670" type="line"/>
      <point x="538" y="204"/>
      <point x="343" y="86"/>
      <point x="238" y="86" type="curve" smooth="yes"/>
      <point x="211" y="86"/>
      <point x="192" y="94"/>
      <point x="192" y="112" type="curve" smooth="yes"/>
      <point x="192" y="136"/>
      <point x="212" y="139"/>
      <point x="296" y="169" type="curve" smooth="yes"/>
      <point x="405" y="208"/>
      <point x="448" y="270"/>
      <point x="448" y="347" type="curve" smooth="yes"/>
      <point x="448" y="471"/>
      <point x="334" y="538"/>
      <point x="218" y="538" type="curve" smooth="yes"/>
      <point x="113" y="538"/>
      <point x="58" y="484"/>
      <point x="58" y="406" type="curve" smooth="yes"/>
      <point x="58" y="337"/>
      <point x="101" y="301"/>
      <point x="159" y="301" type="curve" smooth="yes"/>
      <point x="216" y="301"/>
      <point x="251" y="336"/>
      <point x="251" y="384" type="curve" smooth="yes"/>
      <point x="251" y="421"/>
      <point x="236" y="442"/>
      <point x="207" y="456" type="curve"/>
      <point x="210" y="401" type="line"/>
      <point x="227" y="422"/>
      <point x="242" y="432"/>
      <point x="268" y="432" type="curve" smooth="yes"/>
      <point x="309" y="432"/>
      <point x="331" y="416"/>
      <point x="331" y="382" type="curve" smooth="yes"/>
      <point x="331" y="340"/>
      <point x="296" y="310"/>
      <point x="198" y="282" type="curve" smooth="yes"/>
      <point x="91" y="251"/>
      <point x="50" y="214"/>
      <point x="50" y="148" type="curve" smooth="yes"/>
      <point x="50" y="48"/>
      <point x="166" y="-28"/>
    </contour>
  </outline>
</glyph>
<glyph name="oneLessNumr-beng" format="2">
  <advance width="708"/>
  <unicode hex="09F8"/>
  <outline>
    <contour>
      <point x="610" y="-27" type="curve" smooth="yes"/>
      <point x="674" y="-27"/>
      <point x="708" y="9"/>
      <point x="708" y="67" type="curve" smooth="yes"/>
      <point x="708" y="124"/>
      <point x="669" y="158"/>
      <point x="624" y="158" type="curve" smooth="yes"/>
      <point x="569" y="158"/>
      <point x="550" y="115"/>
      <point x="549" y="84" type="curve"/>
      <point x="601" y="75" type="line"/>
      <point x="601" y="417" type="line"/>
      <point x="488" y="509" type="line"/>
      <point x="392" y="447"/>
      <point x="309" y="373"/>
      <point x="244" y="302" type="curve"/>
      <point x="264" y="258" type="line"/>
      <point x="269" y="304"/>
      <point x="272" y="344"/>
      <point x="272" y="390" type="curve" smooth="yes"/>
      <point x="272" y="496" type="line" smooth="yes"/>
      <point x="272" y="579"/>
      <point x="231" y="639"/>
      <point x="150" y="639" type="curve" smooth="yes"/>
      <point x="87" y="639"/>
      <point x="50" y="602"/>
      <point x="50" y="545" type="curve" smooth="yes"/>
      <point x="50" y="488"/>
      <point x="89" y="454"/>
      <point x="134" y="454" type="curve" smooth="yes"/>
      <point x="189" y="454"/>
      <point x="208" y="497"/>
      <point x="209" y="528" type="curve"/>
      <point x="157" y="537" type="line"/>
      <point x="157" y="191" type="line"/>
      <point x="272" y="103" type="line"/>
      <point x="362" y="199"/>
      <point x="438" y="278"/>
      <point x="538" y="354" type="curve"/>
      <point x="486" y="402" type="line"/>
      <point x="486" y="120" type="line" smooth="yes"/>
      <point x="486" y="37"/>
      <point x="529" y="-27"/>
    </contour>
  </outline>
</glyph>
<glyph name="sixteenDnom-beng" format="2">
  <advance width="473"/>
  <unicode hex="09F9"/>
  <outline>
    <contour>
      <point x="235" y="103" type="curve" smooth="yes"/>
      <point x="352" y="103"/>
      <point x="439" y="174"/>
      <point x="439" y="295" type="curve" smooth="yes"/>
      <point x="439" y="417"/>
      <point x="368" y="521"/>
      <point x="242" y="521" type="curve" smooth="yes"/>
      <point x="119" y="521"/>
      <point x="34" y="447"/>
      <point x="34" y="326" type="curve" smooth="yes"/>
      <point x="34" y="199"/>
      <point x="113" y="103"/>
    </contour>
    <contour>
      <point x="201" y="232" type="curve" smooth="yes"/>
      <point x="164" y="232"/>
      <point x="139" y="249"/>
      <point x="139" y="285" type="curve" smooth="yes"/>
      <point x="139" y="345"/>
      <point x="211" y="389"/>
      <point x="273" y="389" type="curve" smooth="yes"/>
      <point x="311" y="389"/>
      <point x="336" y="370"/>
      <point x="336" y="334" type="curve" smooth="yes"/>
      <point x="336" y="276"/>
      <point x="264" y="232"/>
    </contour>
  </outline>
</glyph>
<glyph name="isshar-beng" format="2">
  <advance width="630"/>
  <unicode hex="09FA"/>
  <outline>
    <contour>
      <point x="246" y="134" type="curve" smooth="yes"/>
      <point x="393" y="134"/>
      <point x="493" y="242"/>
      <point x="591" y="511" type="curve"/>
      <point x="524" y="525" type="line"/>
      <point x="439" y="337"/>
      <point x="348" y="285"/>
      <point x="253" y="285" type="curve" smooth="yes"/>
      <point x="146" y="285"/>
      <point x="103" y="355"/>
      <point x="103" y="435" type="curve" smooth="yes"/>
      <point x="103" y="442"/>
      <point x="103" y="450"/>
      <point x="104" y="458" type="curve"/>
      <point x="42" y="453" type="line"/>
      <point x="38" y="426"/>
      <point x="35" y="400"/>
      <point x="35" y="375" type="curve" smooth="yes"/>
      <point x="35" y="237"/>
      <point x="104" y="134"/>
    </contour>
    <contour>
      <point x="266" y="343" type="curve" smooth="yes"/>
      <point x="309" y="343"/>
      <point x="343" y="373"/>
      <point x="343" y="421" type="curve" smooth="yes"/>
      <point x="343" y="466"/>
      <point x="309" y="498"/>
      <point x="266" y="498" type="curve" smooth="yes"/>
      <point x="221" y="498"/>
      <point x="186" y="467"/>
      <point x="186" y="421" type="curve" smooth="yes"/>
      <point x="186" y="373"/>
      <point x="223" y="343"/>
    </contour>
  </outline>
</glyph>
<glyph name="ganda-beng" format="2">
  <advance width="407"/>
  <unicode hex="09FB"/>
  <outline>
    <contour>
      <point x="344" y="-101" type="curve"/>
      <point x="407" y="-69" type="line"/>
      <point x="306" y="50"/>
      <point x="210" y="200"/>
      <point x="210" y="304" type="curve" smooth="yes"/>
      <point x="210" y="355"/>
      <point x="228" y="384"/>
      <point x="286" y="413" type="curve"/>
      <point x="211" y="523" type="line"/>
      <point x="119" y="484"/>
      <point x="60" y="426"/>
      <point x="60" y="350" type="curve" smooth="yes"/>
      <point x="60" y="217"/>
      <point x="194" y="70"/>
    </contour>
  </outline>
</glyph>
<glyph name="uni09FC" format="2">
  <advance width="520"/>
  <unicode hex="09FC"/>
  <anchor x="-248" y="0" name="vedic"/>
  <outline>
    <contour>
      <point x="260" y="249" type="curve" smooth="yes"/>
      <point x="369" y="249"/>
      <point x="448" y="312"/>
      <point x="465" y="463" type="curve"/>
      <point x="410" y="480" type="line"/>
      <point x="389" y="395"/>
      <point x="334" y="361"/>
      <point x="261" y="361" type="curve" smooth="yes"/>
      <point x="188" y="361"/>
      <point x="130" y="396"/>
      <point x="109" y="480" type="curve"/>
      <point x="55" y="463" type="line"/>
      <point x="69" y="313"/>
      <point x="151" y="249"/>
    </contour>
    <contour>
      <point x="259" y="396" type="curve" smooth="yes"/>
      <point x="305" y="396"/>
      <point x="334" y="423"/>
      <point x="334" y="467" type="curve" smooth="yes"/>
      <point x="334" y="508"/>
      <point x="305" y="536"/>
      <point x="259" y="536" type="curve" smooth="yes"/>
      <point x="211" y="536"/>
      <point x="183" y="509"/>
      <point x="183" y="467" type="curve" smooth="yes"/>
      <point x="183" y="423"/>
      <point x="214" y="396"/>
    </contour>
    <contour>
      <point x="432" y="-48" type="curve"/>
      <point x="476" y="0" type="line"/>
      <point x="389" y="116"/>
      <point x="293" y="165"/>
      <point x="198" y="193" type="curve"/>
      <point x="159" y="76" type="line"/>
      <point x="257" y="55"/>
      <point x="340" y="29"/>
    </contour>
  </outline>
</glyph>
<glyph name="uni1CD0" format="2">
  <unicode hex="1CD0"/>
  <note>
uni1CD0
</note>
  <anchor x="-299" y="-280" name="_vedic"/>
  <outline>
    <contour>
      <point x="-376" y="685" type="line"/>
      <point x="-233" y="837" type="line"/>
      <point x="-297" y="837" type="line"/>
      <point x="-158" y="685" type="line"/>
      <point x="-104" y="738" type="line"/>
      <point x="-307" y="962" type="line"/>
      <point x="-494" y="775" type="line"/>
    </contour>
  </outline>
</glyph>
<glyph name="uni1CD2" format="2">
  <unicode hex="1CD2"/>
  <note>
uni1CD2
</note>
  <anchor x="-299" y="-280" name="_vedic"/>
  <outline>
    <contour>
      <point x="-463" y="742" type="line"/>
      <point x="-80" y="742" type="line"/>
      <point x="-133" y="828" type="line"/>
      <point x="-516" y="828" type="line"/>
    </contour>
  </outline>
</glyph>
<glyph name="uni1CD5" format="2">
  <unicode hex="1CD5"/>
  <note>
uni1CD5
</note>
  <anchor x="-299" y="440" name="_vedic"/>
  <outline>
    <contour>
      <point x="-360" y="-315" type="curve" smooth="yes"/>
      <point x="-283" y="-315"/>
      <point x="-232" y="-274"/>
      <point x="-232" y="-195" type="curve" smooth="yes"/>
      <point x="-232" y="-124" type="line"/>
      <point x="-346" y="-81" type="line"/>
      <point x="-346" y="-159" type="line" smooth="yes"/>
      <point x="-346" y="-196"/>
      <point x="-361" y="-225"/>
      <point x="-402" y="-225" type="curve" smooth="yes"/>
      <point x="-424" y="-225"/>
      <point x="-438" y="-212"/>
      <point x="-438" y="-192" type="curve" smooth="yes"/>
      <point x="-438" y="-172"/>
      <point x="-424" y="-150"/>
      <point x="-403" y="-123" type="curve"/>
      <point x="-510" y="-54" type="line"/>
      <point x="-535" y="-81"/>
      <point x="-552" y="-112"/>
      <point x="-552" y="-143" type="curve" smooth="yes"/>
      <point x="-552" y="-218"/>
      <point x="-463" y="-315"/>
    </contour>
    <contour>
      <point x="-159" y="-315" type="curve" smooth="yes"/>
      <point x="-93" y="-315"/>
      <point x="-44" y="-271"/>
      <point x="-44" y="-201" type="curve" smooth="yes"/>
      <point x="-44" y="-154"/>
      <point x="-65" y="-109"/>
      <point x="-119" y="-57" type="curve"/>
      <point x="-177" y="-101" type="line"/>
      <point x="-160" y="-122"/>
      <point x="-146" y="-143"/>
      <point x="-146" y="-171" type="curve" smooth="yes"/>
      <point x="-146" y="-202"/>
      <point x="-169" y="-219"/>
      <point x="-201" y="-219" type="curve" smooth="yes"/>
      <point x="-234" y="-219"/>
      <point x="-260" y="-199"/>
      <point x="-283" y="-165" type="curve"/>
      <point x="-326" y="-186" type="line"/>
      <point x="-300" y="-262"/>
      <point x="-237" y="-315"/>
    </contour>
  </outline>
</glyph>
<glyph name="uni1CE1" format="2">
  <advance width="579"/>
  <unicode hex="1CE1"/>
  <note>
uni1CE1
</note>
  <outline>
    <contour>
      <point x="195" y="-194" type="curve" smooth="yes"/>
      <point x="323" y="-194"/>
      <point x="369" y="-130"/>
      <point x="369" y="7" type="curve" smooth="yes"/>
      <point x="369" y="195"/>
      <point x="300" y="364"/>
      <point x="300" y="581" type="curve" smooth="yes"/>
      <point x="300" y="698"/>
      <point x="348" y="728"/>
      <point x="399" y="728" type="curve" smooth="yes"/>
      <point x="442" y="728"/>
      <point x="466" y="706"/>
      <point x="497" y="668" type="curve"/>
      <point x="539" y="690" type="line"/>
      <point x="503" y="778"/>
      <point x="453" y="860"/>
      <point x="336" y="860" type="curve" smooth="yes"/>
      <point x="223" y="860"/>
      <point x="170" y="765"/>
      <point x="170" y="672" type="curve" smooth="yes"/>
      <point x="170" y="519"/>
      <point x="239" y="357"/>
      <point x="239" y="93" type="curve" smooth="yes"/>
      <point x="239" y="-19"/>
      <point x="194" y="-56"/>
      <point x="125" y="-56" type="curve" smooth="yes"/>
      <point x="85" y="-56"/>
      <point x="54" y="-42"/>
      <point x="22" y="-15" type="curve"/>
      <point x="0" y="-46" type="line"/>
      <point x="27" y="-134"/>
      <point x="93" y="-194"/>
    </contour>
  </outline>
</glyph>
<glyph name="uni1CEA" format="2">
  <advance width="915"/>
  <unicode hex="1CEA"/>
  <note>
uni1CEA
</note>
  <anchor x="457" y="0" name="vedic"/>
  <outline>
    <contour>
      <point x="512" y="-10" type="curve" smooth="yes"/>
      <point x="688" y="-10"/>
      <point x="800" y="57"/>
      <point x="800" y="157" type="curve" smooth="yes"/>
      <point x="800" y="277"/>
      <point x="639" y="354"/>
      <point x="639" y="447" type="curve" smooth="yes"/>
      <point x="639" y="503"/>
      <point x="683" y="535"/>
      <point x="729" y="535" type="curve" smooth="yes"/>
      <point x="750" y="535"/>
      <point x="759" y="526"/>
      <point x="759" y="513" type="curve" smooth="yes"/>
      <point x="759" y="488"/>
      <point x="720" y="472"/>
      <point x="666" y="463" type="curve"/>
      <point x="723" y="340" type="line"/>
      <point x="806" y="354"/>
      <point x="865" y="384"/>
      <point x="865" y="455" type="curve" smooth="yes"/>
      <point x="865" y="541"/>
      <point x="783" y="635"/>
      <point x="668" y="635" type="curve" smooth="yes"/>
      <point x="570" y="635"/>
      <point x="505" y="581"/>
      <point x="505" y="505" type="curve" smooth="yes"/>
      <point x="505" y="395"/>
      <point x="643" y="326"/>
      <point x="643" y="227" type="curve" smooth="yes"/>
      <point x="643" y="154"/>
      <point x="554" y="109"/>
      <point x="444" y="109" type="curve" smooth="yes"/>
      <point x="333" y="109"/>
      <point x="292" y="131"/>
      <point x="292" y="166" type="curve" smooth="yes"/>
      <point x="292" y="239"/>
      <point x="461" y="288"/>
      <point x="461" y="404" type="curve" smooth="yes"/>
      <point x="461" y="514"/>
      <point x="367" y="635"/>
      <point x="232" y="635" type="curve" smooth="yes"/>
      <point x="151" y="635"/>
      <point x="101" y="585"/>
      <point x="101" y="526" type="curve" smooth="yes"/>
      <point x="101" y="462"/>
      <point x="150" y="406"/>
      <point x="234" y="359" type="curve"/>
      <point x="277" y="418" type="line"/>
      <point x="256" y="432"/>
      <point x="245" y="445"/>
      <point x="245" y="462" type="curve" smooth="yes"/>
      <point x="245" y="492"/>
      <point x="278" y="516"/>
      <point x="310" y="516" type="curve" smooth="yes"/>
      <point x="336" y="516"/>
      <point x="350" y="501"/>
      <point x="350" y="482" type="curve" smooth="yes"/>
      <point x="350" y="386"/>
      <point x="151" y="340"/>
      <point x="151" y="222" type="curve" smooth="yes"/>
      <point x="151" y="114"/>
      <point x="281" y="-10"/>
    </contour>
  </outline>
</glyph>
<glyph name="uni1CF5" format="2">
  <advance width="486"/>
  <unicode hex="1CF5"/>
  <outline>
    <contour>
      <point x="433" y="448" type="line"/>
      <point x="366" y="499" type="line"/>
      <point x="259" y="368" type="line"/>
      <point x="146" y="503" type="line"/>
      <point x="39" y="423" type="line"/>
      <point x="174" y="267" type="line"/>
      <point x="52" y="124" type="line"/>
      <point x="119" y="73" type="line"/>
      <point x="227" y="205" type="line"/>
      <point x="340" y="69" type="line"/>
      <point x="447" y="149" type="line"/>
      <point x="312" y="306" type="line"/>
    </contour>
  </outline>
</glyph>
<glyph name="uni1CF6" format="2">
  <advance width="641"/>
  <unicode hex="1CF6"/>
  <note>
uni1CF6
</note>
  <outline>
    <contour>
      <point x="252" y="118" type="curve" smooth="yes"/>
      <point x="337" y="118"/>
      <point x="393" y="173"/>
      <point x="393" y="311" type="curve" smooth="yes"/>
      <point x="393" y="401" type="line"/>
      <point x="268" y="436" type="line"/>
      <point x="268" y="319" type="line" smooth="yes"/>
      <point x="268" y="262"/>
      <point x="251" y="219"/>
      <point x="206" y="219" type="curve" smooth="yes"/>
      <point x="183" y="219"/>
      <point x="167" y="238"/>
      <point x="167" y="273" type="curve" smooth="yes"/>
      <point x="167" y="306"/>
      <point x="184" y="346"/>
      <point x="214" y="392" type="curve"/>
      <point x="87" y="473" type="line"/>
      <point x="60" y="436"/>
      <point x="41" y="394"/>
      <point x="41" y="352" type="curve" smooth="yes"/>
      <point x="41" y="250"/>
      <point x="140" y="118"/>
    </contour>
    <contour>
      <point x="473" y="119" type="curve" smooth="yes"/>
      <point x="546" y="119"/>
      <point x="600" y="177"/>
      <point x="600" y="273" type="curve" smooth="yes"/>
      <point x="600" y="338"/>
      <point x="577" y="398"/>
      <point x="517" y="469" type="curve"/>
      <point x="442" y="418" type="line"/>
      <point x="472" y="380"/>
      <point x="489" y="352"/>
      <point x="489" y="307" type="curve" smooth="yes"/>
      <point x="489" y="254"/>
      <point x="462" y="226"/>
      <point x="427" y="226" type="curve" smooth="yes"/>
      <point x="387" y="226"/>
      <point x="362" y="258"/>
      <point x="337" y="317" type="curve"/>
      <point x="291" y="295" type="line"/>
      <point x="319" y="190"/>
      <point x="387" y="119"/>
    </contour>
  </outline>
</glyph>
<glyph name="uni1CF7" format="2">
  <advance width="579"/>
  <unicode hex="1CF7"/>
  <note>
uni1CE1
</note>
  <outline>
    <contour>
      <point x="348" y="-194" type="line"/>
      <point x="361" y="-127"/>
      <point x="369" y="-69"/>
      <point x="369" y="23" type="curve" smooth="yes"/>
      <point x="369" y="244"/>
      <point x="280" y="376"/>
      <point x="280" y="599" type="curve" smooth="yes"/>
      <point x="280" y="698"/>
      <point x="328" y="728"/>
      <point x="384" y="728" type="curve" smooth="yes"/>
      <point x="442" y="728"/>
      <point x="466" y="706"/>
      <point x="497" y="668" type="curve"/>
      <point x="539" y="690" type="line"/>
      <point x="503" y="778"/>
      <point x="444" y="860"/>
      <point x="328" y="860" type="curve" smooth="yes"/>
      <point x="214" y="860"/>
      <point x="150" y="784"/>
      <point x="150" y="665" type="curve" smooth="yes"/>
      <point x="150" y="457"/>
      <point x="239" y="345"/>
      <point x="239" y="83" type="curve" smooth="yes"/>
      <point x="239" y="-31"/>
      <point x="225" y="-98"/>
      <point x="200" y="-175" type="curve"/>
    </contour>
  </outline>
</glyph>
<glyph name="zerowidthnonjoiner" format="2">
  <unicode hex="200C"/>
  <outline>
    <contour>
      <point x="-21" y="-133" type="line"/>
      <point x="21" y="-133" type="line"/>
      <point x="21" y="628" type="line"/>
      <point x="-21" y="628" type="line"/>
    </contour>
  </outline>
</glyph>
<glyph name="endash" format="2">
  <advance width="500"/>
  <unicode hex="2013"/>
  <outline>
    <contour>
      <point x="-5" y="233" type="line"/>
      <point x="505" y="233" type="line"/>
      <point x="505" y="304" type="line"/>
      <point x="-5" y="304" type="line"/>
    </contour>
  </outline>
</glyph>
<glyph name="quoteleft" format="2">
  <advance width="281"/>
  <unicode hex="2018"/>
  <outline>
    <contour>
      <point x="148" y="407" type="curve" smooth="yes"/>
      <point x="190" y="407"/>
      <point x="221" y="432"/>
      <point x="221" y="477" type="curve" smooth="yes"/>
      <point x="221" y="557"/>
      <point x="148" y="546"/>
      <point x="148" y="584" type="curve" smooth="yes"/>
      <point x="148" y="623"/>
      <point x="178" y="641"/>
      <point x="236" y="662" type="curve"/>
      <point x="236" y="714" type="line"/>
      <point x="105" y="679"/>
      <point x="56" y="603"/>
      <point x="56" y="518" type="curve" smooth="yes"/>
      <point x="56" y="449"/>
      <point x="92" y="407"/>
    </contour>
  </outline>
</glyph>
<glyph name="quoteright" format="2">
  <advance width="281"/>
  <unicode hex="2019"/>
  <outline>
    <contour>
      <point x="45" y="407" type="line"/>
      <point x="176" y="442"/>
      <point x="225" y="518"/>
      <point x="225" y="603" type="curve" smooth="yes"/>
      <point x="225" y="672"/>
      <point x="189" y="714"/>
      <point x="133" y="714" type="curve" smooth="yes"/>
      <point x="91" y="714"/>
      <point x="60" y="690"/>
      <point x="60" y="645" type="curve" smooth="yes"/>
      <point x="60" y="564"/>
      <point x="133" y="575"/>
      <point x="133" y="537" type="curve" smooth="yes"/>
      <point x="133" y="498"/>
      <point x="104" y="480"/>
      <point x="45" y="459" type="curve"/>
    </contour>
  </outline>
</glyph>
<glyph name="quotedblleft" format="2">
  <advance width="490"/>
  <unicode hex="201C"/>
  <outline>
    <contour>
      <point x="358" y="407" type="curve" smooth="yes"/>
      <point x="399" y="407"/>
      <point x="431" y="432"/>
      <point x="431" y="477" type="curve" smooth="yes"/>
      <point x="431" y="557"/>
      <point x="357" y="546"/>
      <point x="357" y="584" type="curve" smooth="yes"/>
      <point x="357" y="623"/>
      <point x="388" y="641"/>
      <point x="445" y="662" type="curve"/>
      <point x="445" y="714" type="line"/>
      <point x="315" y="679"/>
      <point x="266" y="603"/>
      <point x="266" y="518" type="curve" smooth="yes"/>
      <point x="266" y="449"/>
      <point x="302" y="407"/>
    </contour>
    <contour>
      <point x="148" y="407" type="curve" smooth="yes"/>
      <point x="190" y="407"/>
      <point x="221" y="432"/>
      <point x="221" y="477" type="curve" smooth="yes"/>
      <point x="221" y="557"/>
      <point x="148" y="546"/>
      <point x="148" y="584" type="curve" smooth="yes"/>
      <point x="148" y="623"/>
      <point x="178" y="641"/>
      <point x="236" y="662" type="curve"/>
      <point x="236" y="714" type="line"/>
      <point x="105" y="679"/>
      <point x="56" y="603"/>
      <point x="56" y="518" type="curve" smooth="yes"/>
      <point x="56" y="449"/>
      <point x="92" y="407"/>
    </contour>
  </outline>
</glyph>
<glyph name="quotedblright" format="2">
  <advance width="491"/>
  <unicode hex="201D"/>
  <outline>
    <contour>
      <point x="255" y="407" type="line"/>
      <point x="386" y="442"/>
      <point x="435" y="518"/>
      <point x="435" y="603" type="curve" smooth="yes"/>
      <point x="435" y="672"/>
      <point x="398" y="714"/>
      <point x="342" y="714" type="curve" smooth="yes"/>
      <point x="301" y="714"/>
      <point x="270" y="690"/>
      <point x="270" y="645" type="curve" smooth="yes"/>
      <point x="270" y="564"/>
      <point x="343" y="575"/>
      <point x="343" y="537" type="curve" smooth="yes"/>
      <point x="343" y="498"/>
      <point x="313" y="480"/>
      <point x="255" y="459" type="curve"/>
    </contour>
    <contour>
      <point x="45" y="407" type="line"/>
      <point x="176" y="442"/>
      <point x="225" y="518"/>
      <point x="225" y="603" type="curve" smooth="yes"/>
      <point x="225" y="672"/>
      <point x="189" y="714"/>
      <point x="133" y="714" type="curve" smooth="yes"/>
      <point x="91" y="714"/>
      <point x="60" y="690"/>
      <point x="60" y="645" type="curve" smooth="yes"/>
      <point x="60" y="564"/>
      <point x="133" y="575"/>
      <point x="133" y="537" type="curve" smooth="yes"/>
      <point x="133" y="498"/>
      <point x="104" y="480"/>
      <point x="45" y="459" type="curve"/>
    </contour>
  </outline>
</glyph>
<glyph name="uniA8F1" format="2">
  <unicode hex="A8F1"/>
  <note>
uniA8F1
</note>
  <outline>
    <contour>
      <point x="-103" y="972" type="curve" smooth="yes"/>
      <point x="-47" y="972"/>
      <point x="-18" y="1001"/>
      <point x="-18" y="1043" type="curve" smooth="yes"/>
      <point x="-18" y="1134"/>
      <point x="-126" y="1164"/>
      <point x="-126" y="1199" type="curve" smooth="yes"/>
      <point x="-126" y="1209"/>
      <point x="-119" y="1216"/>
      <point x="-101" y="1216" type="curve" smooth="yes"/>
      <point x="-30" y="1216" type="line"/>
      <point x="-30" y="1223" type="line"/>
      <point x="-54" y="1273" type="line"/>
      <point x="-145" y="1273" type="line" smooth="yes"/>
      <point x="-189" y="1273"/>
      <point x="-216" y="1251"/>
      <point x="-216" y="1220" type="curve" smooth="yes"/>
      <point x="-216" y="1154"/>
      <point x="-102" y="1113"/>
      <point x="-102" y="1067" type="curve" smooth="yes"/>
      <point x="-102" y="1049"/>
      <point x="-110" y="1037"/>
      <point x="-134" y="1037" type="curve" smooth="yes"/>
      <point x="-160" y="1037"/>
      <point x="-189" y="1070"/>
      <point x="-222" y="1121" type="curve"/>
      <point x="-263" y="1101" type="line"/>
      <point x="-225" y="1028"/>
      <point x="-180" y="972"/>
    </contour>
  </outline>
</glyph>
<glyph name="aaMatra-beng.fina" format="2">
  <advance width="255"/>
  <outline>
    <contour>
      <point x="184" y="-43" type="line"/>
      <point x="195" y="-40" type="line"/>
      <point x="195" y="686" type="line"/>
      <point x="89" y="724" type="line"/>
      <point x="80" y="720" type="line"/>
      <point x="80" y="614" type="line" smooth="yes"/>
      <point x="80" y="593"/>
      <point x="82" y="537"/>
      <point x="88" y="490" type="curve"/>
      <point x="101" y="493" type="line"/>
      <point x="83" y="579"/>
      <point x="59" y="622"/>
      <point x="-5" y="622" type="curve" smooth="yes"/>
      <point x="-39" y="622" type="line"/>
      <point x="9" y="536" type="line"/>
      <point x="13" y="536" type="line" smooth="yes"/>
      <point x="54" y="536"/>
      <point x="74" y="489"/>
      <point x="80" y="442" type="curve"/>
      <point x="80" y="-1" type="line"/>
    </contour>
  </outline>
</glyph>
<glyph name="aiMatra-beng.init" format="2">
  <advance width="427"/>
  <outline>
    <contour>
      <point x="351" y="588" type="curve"/>
      <point x="423" y="588" type="line"/>
      <point x="420" y="737"/>
      <point x="367" y="831"/>
      <point x="261" y="831" type="curve" smooth="yes"/>
      <point x="197" y="831"/>
      <point x="166" y="821"/>
      <point x="104" y="821" type="curve" smooth="yes"/>
      <point x="45" y="821"/>
      <point x="15" y="847"/>
      <point x="15" y="897" type="curve" smooth="yes"/>
      <point x="15" y="910"/>
      <point x="16" y="926"/>
      <point x="18" y="938" type="curve"/>
      <point x="-40" y="945" type="line"/>
      <point x="-46" y="919"/>
      <point x="-50" y="888"/>
      <point x="-50" y="859" type="curve" smooth="yes"/>
      <point x="-50" y="756"/>
      <point x="2" y="682"/>
      <point x="115" y="682" type="curve" smooth="yes"/>
      <point x="181" y="682"/>
      <point x="213" y="694"/>
      <point x="259" y="694" type="curve" smooth="yes"/>
      <point x="310" y="694"/>
      <point x="352" y="682"/>
    </contour>
    <contour>
      <point x="290" y="-35" type="curve" smooth="yes"/>
      <point x="372" y="-35"/>
      <point x="421" y="8"/>
      <point x="421" y="84" type="curve" smooth="yes"/>
      <point x="421" y="141"/>
      <point x="385" y="190"/>
      <point x="315" y="190" type="curve" smooth="yes"/>
      <point x="255" y="190"/>
      <point x="214" y="148"/>
      <point x="214" y="93" type="curve" smooth="yes"/>
      <point x="214" y="52"/>
      <point x="229" y="26"/>
      <point x="249" y="8" type="curve"/>
      <point x="293" y="26" type="line"/>
      <point x="201" y="43"/>
      <point x="171" y="121"/>
      <point x="171" y="258" type="curve" smooth="yes"/>
      <point x="171" y="420"/>
      <point x="306" y="536"/>
      <point x="423" y="536" type="curve" smooth="yes"/>
      <point x="466" y="536" type="line"/>
      <point x="420" y="622" type="line"/>
      <point x="316" y="622" type="line" smooth="yes"/>
      <point x="187" y="622"/>
      <point x="30" y="493"/>
      <point x="30" y="296" type="curve" smooth="yes"/>
      <point x="30" y="66"/>
      <point x="157" y="-35"/>
    </contour>
  </outline>
</glyph>
<glyph name="auLength-beng.fina" format="2">
  <advance width="255"/>
  <anchor x="365" y="599" name="top"/>
  <anchor x="-10" y="586" name="topright"/>
  <outline>
    <contour>
      <point x="184" y="-43" type="line"/>
      <point x="195" y="-40" type="line"/>
      <point x="195" y="606" type="line" smooth="yes"/>
      <point x="195" y="753"/>
      <point x="80" y="835"/>
      <point x="-53" y="835" type="curve" smooth="yes"/>
      <point x="-143" y="835"/>
      <point x="-199" y="820"/>
      <point x="-289" y="820" type="curve" smooth="yes"/>
      <point x="-380" y="820"/>
      <point x="-435" y="831"/>
      <point x="-435" y="895" type="curve" smooth="yes"/>
      <point x="-435" y="909"/>
      <point x="-434" y="926"/>
      <point x="-431" y="938" type="curve"/>
      <point x="-491" y="945" type="line"/>
      <point x="-496" y="919"/>
      <point x="-500" y="888"/>
      <point x="-500" y="857" type="curve" smooth="yes"/>
      <point x="-500" y="735"/>
      <point x="-413" y="681"/>
      <point x="-285" y="681" type="curve" smooth="yes"/>
      <point x="-177" y="681"/>
      <point x="-111" y="706"/>
      <point x="-14" y="706" type="curve" smooth="yes"/>
      <point x="66" y="706"/>
      <point x="89" y="669"/>
      <point x="89" y="635" type="curve" smooth="yes"/>
      <point x="89" y="623"/>
      <point x="88" y="610"/>
      <point x="85" y="596" type="curve"/>
      <point x="153" y="622" type="line"/>
      <point x="-39" y="622" type="line"/>
      <point x="9" y="536" type="line"/>
      <point x="80" y="536" type="line"/>
      <point x="80" y="-1" type="line"/>
    </contour>
  </outline>
</glyph>
<glyph name="b_ba-beng" format="2">
  <advance width="1001"/>
  <anchor x="912" y="37" name="bottom"/>
  <anchor x="921" y="100" name="bottom.rakaar"/>
  <anchor x="921" y="11" name="bottom.rvocalic"/>
  <anchor x="901" y="20" name="bottom.virama"/>
  <anchor x="886" y="592" name="top"/>
  <anchor x="887" y="572" name="topright"/>
  <outline>
    <contour>
      <point x="460" y="-32" type="line"/>
      <point x="471" y="-29" type="line"/>
      <point x="471" y="536" type="line"/>
      <point x="806" y="536" type="line"/>
      <point x="806" y="447" type="line"/>
      <point x="819" y="514" type="line"/>
      <point x="681" y="484"/>
      <point x="557" y="422"/>
      <point x="450" y="354" type="curve"/>
      <point x="515" y="182" type="line"/>
      <point x="655" y="167"/>
      <point x="752" y="116"/>
      <point x="824" y="15" type="curve"/>
      <point x="910" y="-32" type="line"/>
      <point x="921" y="-29" type="line"/>
      <point x="921" y="536" type="line"/>
      <point x="1040" y="536" type="line"/>
      <point x="992" y="622" type="line"/>
      <point x="-39" y="622" type="line"/>
      <point x="8" y="536" type="line"/>
      <point x="356" y="536" type="line"/>
      <point x="356" y="447" type="line"/>
      <point x="369" y="514" type="line"/>
      <point x="231" y="484"/>
      <point x="110" y="422"/>
      <point x="3" y="354" type="curve"/>
      <point x="68" y="182" type="line"/>
      <point x="208" y="167"/>
      <point x="302" y="116"/>
      <point x="374" y="15" type="curve"/>
    </contour>
    <contour>
      <point x="356" y="88" type="line"/>
      <point x="375" y="112" type="line"/>
      <point x="327" y="206"/>
      <point x="260" y="263"/>
      <point x="177" y="284" type="curve"/>
      <point x="182" y="262" type="line"/>
      <point x="245" y="299"/>
      <point x="310" y="337"/>
      <point x="376" y="353" type="curve"/>
      <point x="356" y="401" type="line"/>
    </contour>
    <contour>
      <point x="806" y="88" type="line"/>
      <point x="825" y="112" type="line"/>
      <point x="777" y="206"/>
      <point x="700" y="263"/>
      <point x="617" y="284" type="curve"/>
      <point x="622" y="262" type="line"/>
      <point x="685" y="299"/>
      <point x="760" y="337"/>
      <point x="826" y="353" type="curve"/>
      <point x="806" y="401" type="line"/>
    </contour>
  </outline>
</glyph>
<glyph name="b_bha-beng" format="2">
  <advance width="724"/>
  <anchor x="569" y="-247" name="bottom"/>
  <anchor x="650" y="-232" name="bottom.rakaar"/>
  <anchor x="570" y="-268" name="bottom.rvocalic"/>
  <anchor x="505" y="-232" name="bottom.virama"/>
  <anchor x="584" y="592" name="top"/>
  <anchor x="585" y="572" name="topright"/>
  <outline>
    <contour>
      <point x="463" y="-249" type="curve" smooth="yes"/>
      <point x="601" y="-249"/>
      <point x="703" y="-175"/>
      <point x="703" y="-19" type="curve" smooth="yes"/>
      <point x="703" y="83"/>
      <point x="658" y="142"/>
      <point x="594" y="198" type="curve"/>
      <point x="563" y="132"/>
      <point x="511" y="79"/>
      <point x="423" y="74" type="curve"/>
      <point x="447" y="40" type="line"/>
      <point x="466" y="55"/>
      <point x="480" y="74"/>
      <point x="480" y="102" type="curve" smooth="yes"/>
      <point x="480" y="150"/>
      <point x="437" y="178"/>
      <point x="385" y="178" type="curve" smooth="yes"/>
      <point x="325" y="178"/>
      <point x="286" y="134"/>
      <point x="286" y="85" type="curve" smooth="yes"/>
      <point x="286" y="6"/>
      <point x="357" y="-40"/>
      <point x="443" y="-40" type="curve" smooth="yes"/>
      <point x="527" y="-40"/>
      <point x="595" y="-6"/>
      <point x="649" y="67" type="curve"/>
      <point x="617" y="81" type="line"/>
      <point x="632" y="66"/>
      <point x="638" y="54"/>
      <point x="638" y="16" type="curve" smooth="yes"/>
      <point x="638" y="-60"/>
      <point x="558" y="-93"/>
      <point x="462" y="-93" type="curve" smooth="yes"/>
      <point x="182" y="-93"/>
      <point x="94" y="257"/>
      <point x="64" y="438" type="curve"/>
      <point x="3" y="429" type="line"/>
      <point x="33" y="177"/>
      <point x="116" y="-249"/>
    </contour>
    <contour>
      <point x="519" y="194" type="line"/>
      <point x="535" y="209" type="line"/>
      <point x="470" y="305"/>
      <point x="346" y="331"/>
      <point x="261" y="351" type="curve"/>
      <point x="282" y="282" type="line"/>
      <point x="337" y="317"/>
      <point x="463" y="366"/>
      <point x="536" y="384" type="curve"/>
      <point x="519" y="425" type="line"/>
    </contour>
    <contour>
      <point x="558" y="110" type="curve"/>
      <point x="619" y="144" type="line"/>
      <point x="619" y="536" type="line"/>
      <point x="763" y="536" type="line"/>
      <point x="715" y="622" type="line"/>
      <point x="-39" y="622" type="line"/>
      <point x="8" y="536" type="line"/>
      <point x="519" y="536" type="line"/>
      <point x="519" y="502" type="line"/>
      <point x="530" y="529" type="line"/>
      <point x="412" y="503"/>
      <point x="268" y="451"/>
      <point x="173" y="395" type="curve"/>
      <point x="228" y="248" type="line"/>
      <point x="341" y="236"/>
      <point x="486" y="200"/>
    </contour>
  </outline>
</glyph>
<glyph name="b_d_ra-beng" format="2">
  <advance width="876"/>
  <anchor x="809" y="-103" name="bottom"/>
  <anchor x="827" y="-176" name="bottom.rvocalic"/>
  <anchor x="806" y="-139" name="bottom.virama"/>
  <anchor x="637" y="592" name="top"/>
  <anchor x="638" y="572" name="topright"/>
  <outline>
    <contour>
      <point x="816" y="-190" type="line"/>
      <point x="827" y="-187" type="line"/>
      <point x="786" y="-72"/>
      <point x="778" y="31"/>
      <point x="778" y="124" type="curve" smooth="yes"/>
      <point x="778" y="213"/>
      <point x="803" y="309"/>
      <point x="848" y="383" type="curve"/>
      <point x="711" y="495" type="line"/>
      <point x="617" y="445"/>
      <point x="512" y="368"/>
      <point x="448" y="290" type="curve"/>
      <point x="475" y="246" type="line"/>
      <point x="475" y="536" type="line"/>
      <point x="915" y="536" type="line"/>
      <point x="868" y="622" type="line"/>
      <point x="-39" y="622" type="line"/>
      <point x="9" y="536" type="line"/>
      <point x="360" y="536" type="line"/>
      <point x="360" y="230" type="line"/>
      <point x="386" y="239" type="line"/>
      <point x="316" y="301"/>
      <point x="235" y="330"/>
      <point x="137" y="344" type="curve"/>
      <point x="159" y="282" type="line"/>
      <point x="207" y="313"/>
      <point x="313" y="372"/>
      <point x="389" y="393" type="curve"/>
      <point x="383" y="530" type="line"/>
      <point x="262" y="502"/>
      <point x="140" y="448"/>
      <point x="47" y="390" type="curve"/>
      <point x="113" y="250" type="line"/>
      <point x="271" y="231"/>
      <point x="373" y="174"/>
      <point x="468" y="94" type="curve"/>
      <point x="478" y="94" type="line"/>
      <point x="565" y="197"/>
      <point x="663" y="283"/>
      <point x="761" y="348" type="curve"/>
      <point x="709" y="386" type="line"/>
      <point x="685" y="316"/>
      <point x="673" y="249"/>
      <point x="673" y="181" type="curve" smooth="yes"/>
      <point x="673" y="89"/>
      <point x="689" y="-15"/>
      <point x="733" y="-83" type="curve"/>
      <point x="734" y="-66" type="line"/>
      <point x="663" y="31"/>
      <point x="595" y="54"/>
      <point x="515" y="54" type="curve" smooth="yes"/>
      <point x="446" y="54"/>
      <point x="375" y="36"/>
      <point x="296" y="36" type="curve" smooth="yes"/>
      <point x="206" y="36"/>
      <point x="140" y="46"/>
      <point x="140" y="122" type="curve" smooth="yes"/>
      <point x="140" y="142"/>
      <point x="142" y="163"/>
      <point x="151" y="194" type="curve"/>
      <point x="89" y="208" type="line"/>
      <point x="72" y="157"/>
      <point x="64" y="114"/>
      <point x="64" y="62" type="curve" smooth="yes"/>
      <point x="64" y="-79"/>
      <point x="159" y="-118"/>
      <point x="270" y="-118" type="curve" smooth="yes"/>
      <point x="382" y="-118"/>
      <point x="456" y="-84"/>
      <point x="564" y="-84" type="curve" smooth="yes"/>
      <point x="635" y="-84"/>
      <point x="691" y="-102"/>
      <point x="737" y="-153" type="curve"/>
    </contour>
  </outline>
</glyph>
<glyph name="b_da-beng" format="2">
  <advance width="846"/>
  <anchor x="753" y="63" name="bottom"/>
  <anchor x="775" y="50" name="bottom.rakaar"/>
  <anchor x="776" y="-61" name="bottom.rvocalic"/>
  <anchor x="760" y="-45" name="bottom.virama"/>
  <anchor x="410" y="592" name="top"/>
  <anchor x="578" y="592" name="topleft"/>
  <anchor x="411" y="572" name="topright"/>
  <outline>
    <contour>
      <point x="720" y="-94" type="curve"/>
      <point x="776" y="-72" type="line"/>
      <point x="748" y="12"/>
      <point x="747" y="62"/>
      <point x="747" y="130" type="curve" smooth="yes"/>
      <point x="747" y="210"/>
      <point x="772" y="308"/>
      <point x="817" y="383" type="curve"/>
      <point x="681" y="495" type="line"/>
      <point x="587" y="445"/>
      <point x="481" y="367"/>
      <point x="418" y="290" type="curve"/>
      <point x="445" y="246" type="line"/>
      <point x="445" y="536" type="line"/>
      <point x="885" y="536" type="line"/>
      <point x="838" y="622" type="line"/>
      <point x="-39" y="622" type="line"/>
      <point x="9" y="536" type="line"/>
      <point x="330" y="536" type="line"/>
      <point x="330" y="230" type="line"/>
      <point x="356" y="239" type="line"/>
      <point x="286" y="301"/>
      <point x="205" y="330"/>
      <point x="107" y="344" type="curve"/>
      <point x="129" y="282" type="line"/>
      <point x="177" y="313"/>
      <point x="283" y="372"/>
      <point x="359" y="393" type="curve"/>
      <point x="353" y="530" type="line"/>
      <point x="232" y="502"/>
      <point x="110" y="448"/>
      <point x="17" y="390" type="curve"/>
      <point x="83" y="250" type="line"/>
      <point x="241" y="231"/>
      <point x="343" y="174"/>
      <point x="438" y="94" type="curve"/>
      <point x="448" y="94" type="line"/>
      <point x="535" y="197"/>
      <point x="634" y="284"/>
      <point x="731" y="348" type="curve"/>
      <point x="679" y="386" type="line"/>
      <point x="654" y="316"/>
      <point x="643" y="247"/>
      <point x="643" y="178" type="curve" smooth="yes"/>
      <point x="643" y="70"/>
      <point x="680" y="-25"/>
    </contour>
  </outline>
</glyph>
<glyph name="b_dha-beng" format="2">
  <advance width="688"/>
  <anchor x="466" y="-123" name="bottom"/>
  <anchor x="476" y="-60" name="bottom.rakaar"/>
  <anchor x="476" y="-149" name="bottom.rvocalic"/>
  <anchor x="456" y="-140" name="bottom.virama"/>
  <anchor x="441" y="592" name="top"/>
  <anchor x="442" y="572" name="topright"/>
  <outline>
    <contour>
      <point x="465" y="-192" type="line"/>
      <point x="476" y="-189" type="line"/>
      <point x="476" y="536" type="line"/>
      <point x="727" y="536" type="line"/>
      <point x="681" y="622" type="line"/>
      <point x="-39" y="622" type="line"/>
      <point x="8" y="536" type="line"/>
      <point x="361" y="536" type="line"/>
      <point x="361" y="454" type="line"/>
      <point x="374" y="519" type="line"/>
      <point x="240" y="488"/>
      <point x="101" y="425"/>
      <point x="0" y="373" type="curve"/>
      <point x="65" y="220" type="line"/>
      <point x="137" y="218"/>
      <point x="221" y="203"/>
      <point x="265" y="173" type="curve"/>
      <point x="294" y="209" type="line"/>
      <point x="242" y="266"/>
      <point x="163" y="297"/>
      <point x="101" y="302" type="curve"/>
      <point x="125" y="242" type="line"/>
      <point x="180" y="271"/>
      <point x="298" y="329"/>
      <point x="380" y="356" type="curve"/>
      <point x="361" y="404" type="line"/>
      <point x="361" y="-76" type="line"/>
      <point x="380" y="-61" type="line"/>
      <point x="331" y="26"/>
      <point x="251" y="67"/>
      <point x="156" y="87" type="curve"/>
      <point x="178" y="32" type="line"/>
      <point x="320" y="117"/>
      <point x="450" y="173"/>
      <point x="566" y="209" type="curve"/>
      <point x="546" y="247" type="line"/>
      <point x="546" y="-61" type="line"/>
      <point x="657" y="-128" type="line"/>
      <point x="658" y="269" type="line"/>
      <point x="560" y="349" type="line"/>
      <point x="394" y="302"/>
      <point x="257" y="242"/>
      <point x="65" y="137" type="curve"/>
      <point x="132" y="-8" type="line"/>
      <point x="241" y="-22"/>
      <point x="323" y="-61"/>
      <point x="379" y="-146" type="curve"/>
    </contour>
  </outline>
</glyph>
<glyph name="b_ja-beng" format="2">
  <advance width="1077"/>
  <anchor x="985" y="-39" name="bottom"/>
  <anchor x="981" y="0" name="bottom.rakaar"/>
  <anchor x="982" y="-111" name="bottom.rvocalic"/>
  <anchor x="966" y="-95" name="bottom.virama"/>
  <anchor x="513" y="592" name="top"/>
  <anchor x="770" y="592" name="topleft"/>
  <anchor x="514" y="572" name="topright"/>
  <outline>
    <contour>
      <point x="549" y="-132" type="curve" smooth="yes"/>
      <point x="724" y="-132"/>
      <point x="806" y="-35"/>
      <point x="806" y="113" type="curve" smooth="yes"/>
      <point x="806" y="216"/>
      <point x="759" y="287"/>
      <point x="697" y="334" type="curve"/>
      <point x="653" y="276"/>
      <point x="615" y="263"/>
      <point x="586" y="263" type="curve" smooth="yes"/>
      <point x="566" y="263"/>
      <point x="548" y="272"/>
      <point x="548" y="300" type="curve" smooth="yes"/>
      <point x="548" y="536" type="line"/>
      <point x="1116" y="536" type="line"/>
      <point x="1067" y="622" type="line"/>
      <point x="-39" y="622" type="line"/>
      <point x="10" y="536" type="line"/>
      <point x="441" y="536" type="line"/>
      <point x="441" y="235" type="line"/>
      <point x="456" y="227" type="line"/>
      <point x="422" y="297"/>
      <point x="344" y="340"/>
      <point x="246" y="351" type="curve"/>
      <point x="268" y="297" type="line"/>
      <point x="321" y="337"/>
      <point x="411" y="377"/>
      <point x="468" y="387" type="curve"/>
      <point x="463" y="524" type="line"/>
      <point x="359" y="500"/>
      <point x="270" y="463"/>
      <point x="164" y="403" type="curve"/>
      <point x="233" y="255" type="line"/>
      <point x="340" y="246"/>
      <point x="407" y="210"/>
      <point x="458" y="163" type="curve" smooth="yes"/>
      <point x="495" y="129"/>
      <point x="529" y="106"/>
      <point x="582" y="106" type="curve" smooth="yes"/>
      <point x="644" y="106"/>
      <point x="711" y="145"/>
      <point x="762" y="214" type="curve"/>
      <point x="694" y="227" type="line"/>
      <point x="719" y="201"/>
      <point x="734" y="177"/>
      <point x="734" y="138" type="curve" smooth="yes"/>
      <point x="734" y="69"/>
      <point x="671" y="31"/>
      <point x="558" y="31" type="curve" smooth="yes"/>
      <point x="389" y="31"/>
      <point x="201" y="124"/>
      <point x="76" y="478" type="curve"/>
      <point x="13" y="458" type="line"/>
      <point x="131" y="43"/>
      <point x="325" y="-132"/>
    </contour>
    <contour>
      <point x="920" y="-144" type="curve"/>
      <point x="982" y="-122" type="line"/>
      <point x="953" y="-39"/>
      <point x="949" y="16"/>
      <point x="949" y="84" type="curve" smooth="yes"/>
      <point x="949" y="188"/>
      <point x="985" y="276"/>
      <point x="1048" y="368" type="curve"/>
      <point x="945" y="488" type="line"/>
      <point x="888" y="465"/>
      <point x="820" y="460"/>
      <point x="763" y="460" type="curve" smooth="yes"/>
      <point x="672" y="460"/>
      <point x="590" y="491"/>
      <point x="544" y="521" type="curve"/>
      <point x="507" y="465" type="line"/>
      <point x="574" y="387"/>
      <point x="715" y="336"/>
      <point x="824" y="336" type="curve" smooth="yes"/>
      <point x="871" y="336"/>
      <point x="905" y="341"/>
      <point x="931" y="351" type="curve"/>
      <point x="903" y="390" type="line"/>
      <point x="865" y="302"/>
      <point x="847" y="246"/>
      <point x="847" y="142" type="curve" smooth="yes"/>
      <point x="847" y="20"/>
      <point x="878" y="-63"/>
    </contour>
  </outline>
</glyph>
